<?xml version="1.0" standalone="no"?>
<!DOCTYPE svg PUBLIC "-//W3C//DTD SVG 20010904//EN"
 "http://www.w3.org/TR/2001/REC-SVG-20010904/DTD/svg10.dtd">
<svg version="1.0" xmlns="http://www.w3.org/2000/svg"
 width="137.000000pt" height="150.000000pt" viewBox="0 0 137.000000 150.000000"
 preserveAspectRatio="xMidYMid meet">

<g transform="translate(0.000000,150.000000) scale(0.100000,-0.100000)"
fill="#636363" stroke="none">
<path d="M655 1460 c-12 -4 -54 -13 -94 -19 -40 -6 -90 -20 -110 -31 -40 -20
-96 -77 -105 -107 -11 -37 -46 -191 -46 -202 0 -6 -9 -20 -20 -31 -40 -40 -38
-119 4 -161 13 -13 31 -40 41 -59 10 -19 33 -58 52 -86 29 -44 33 -56 26 -84
-8 -31 -13 -34 -103 -60 -52 -15 -108 -31 -124 -34 -35 -9 -93 -67 -113 -113
-15 -37 -65 -391 -57 -404 8 -13 974 -12 974 1 0 7 -162 10 -465 10 l-465 0 0
38 c1 84 38 310 56 341 30 50 86 82 207 115 87 25 114 36 122 53 9 20 12 19
76 -38 37 -32 73 -59 81 -59 8 0 23 9 34 21 42 47 94 81 107 71 6 -6 55 -22
107 -36 52 -15 111 -34 132 -42 35 -16 58 -13 58 7 0 15 -73 44 -177 70 l-91
23 -6 39 c-6 34 -2 43 29 79 19 23 42 61 51 85 9 23 20 43 25 43 4 0 17 15 28
34 29 46 28 106 -2 143 -14 16 -27 48 -30 76 -8 56 -13 67 -32 67 -21 0 -9
-130 14 -147 37 -28 41 -35 41 -73 0 -36 -19 -70 -40 -70 -5 0 -20 -24 -33
-54 -14 -29 -41 -72 -61 -94 -27 -29 -36 -48 -34 -69 2 -23 -8 -38 -46 -73
-75 -71 -75 -71 -150 -4 -41 37 -66 67 -66 80 0 11 -18 40 -40 64 -22 24 -48
66 -58 92 -9 26 -20 48 -24 48 -5 0 -17 9 -28 20 -29 29 -26 81 5 110 18 17
25 34 25 61 0 21 7 59 16 85 9 26 18 59 21 73 14 83 87 134 218 156 111 18
105 18 105 -1 0 -14 10 -16 71 -12 l71 6 -5 -50 c-7 -57 -38 -105 -74 -114
-14 -4 -50 -2 -79 5 -30 6 -78 16 -107 22 -60 13 -147 4 -147 -14 0 -8 26 -12
83 -13 45 -1 95 -7 110 -13 42 -16 143 -14 178 5 41 21 69 84 69 158 0 52 -2
57 -17 51 -10 -4 -40 -10 -66 -13 -41 -4 -50 -2 -63 17 -16 22 -27 25 -59 11z"/>
<path d="M1045 501 c-137 -64 -179 -239 -84 -354 58 -70 148 -99 240 -77 130
31 210 201 150 318 -59 115 -194 165 -306 113z m199 -45 c151 -88 125 -308
-43 -365 -51 -17 -91 -13 -148 14 -75 34 -113 96 -113 180 0 51 5 69 30 109
59 93 176 120 274 62z"/>
<path d="M1176 310 l-58 -70 -35 31 c-27 23 -38 28 -47 19 -8 -9 0 -22 34 -51
25 -21 48 -38 52 -36 16 5 138 160 132 168 -10 16 -18 9 -78 -61z"/>
</g>
</svg>
