<?xml version="1.0" encoding="utf-8"?>
<!-- Generator: Adobe Illustrator 25.2.1, SVG Export Plug-In . SVG Version: 6.00 Build 0)  -->
<svg version="1.1" id="Layer_1" xmlns="http://www.w3.org/2000/svg" xmlns:xlink="http://www.w3.org/1999/xlink" x="0px" y="0px"
	 viewBox="0 0 18.8 20" style="enable-background:new 0 0 18.8 20;" xml:space="preserve">
<style type="text/css">
	.st0{fill:none;}
	.st1{fill:#010101;}
	.st2{fill:#B0B1B2;}
</style>
<g>
	<path class="st0" d="M17.9,9c-0.1,0-0.1,0-0.2,0.1l-1.3,1.3c-0.3,0.3-0.6,0.2-0.7,0.2c-0.1-0.1-0.3-0.2-0.2-0.6l0.6-3.9
		c0-0.1,0-0.1,0-0.2S16,5.8,16,5.8c-0.1,0-0.2,0.1-0.2,0.2l-0.6,3.8c0,0.1-0.1,0.2-0.2,0.3c-0.1,0.1-0.2,0.1-0.3,0.1l0,0l0,0
		c-0.2,0-0.4-0.2-0.3-0.5l0.8-5.1c0-0.1,0-0.1,0-0.2s-0.1-0.1-0.1-0.1c-0.1,0-0.2,0.1-0.2,0.2l-0.9,5c0,0.1-0.1,0.2-0.2,0.3
		c-0.1,0.1-0.2,0.1-0.3,0.1c0,0,0,0-0.1,0s-0.2-0.1-0.2-0.2c-0.1-0.1-0.1-0.2-0.1-0.3l0.7-4.1c0-0.1,0-0.1,0-0.2
		C13.5,5,13.5,5,13.4,5s-0.2,0.1-0.2,0.2l-0.6,4.1c0,0.1-0.1,0.2-0.2,0.3c-0.1,0.1-0.2,0.1-0.3,0.1c-0.2,0-0.4-0.2-0.3-0.5l0.4-2.5
		c0-0.1,0-0.1,0-0.2s-0.1-0.1-0.1-0.1l0,0c-0.1,0-0.2,0.1-0.2,0.2L11.4,9c0,0.1-0.2,0.9-0.2,1.6c0.5,2.6,0.5,2.6,0.5,2.6
		c0,0.1,0,0.2,0,0.3s0,0.2,0,0.4c0,0.1,0,0.2,0,0.3c0,0.2-0.1,0.4,0.1,0.5h0.1l0,0l2.8,0.3l0,0c0.2,0,0.3-0.1,0.3-0.2
		c0.1-0.4,0.3-0.7,0.5-0.9c0.1-0.2,0.3-0.5,0.5-0.7c0.3-0.4,0.6-0.8,0.8-1.3c0.2-0.7,0.5-1.2,1-1.7c0.7-0.6,0.5-0.8,0.5-0.9
		C18.1,9.1,18,9,17.9,9z"/>
	<path class="st0" d="M11.8,4.3l-0.5-0.1l-0.2-0.4l-0.2,0.4l-0.5,0.1l0.3,0.3L10.8,5L11,4.9c0.1-0.1,0.2-0.1,0.3-0.1l0.1,0.1L11.5,5
		l-0.1-0.4L11.8,4.3z"/>
	<path class="st1" d="M9.2,12.1c-1.7,0-3.5,0.6-5.3,1.8c-2.3,1.5-3.7,3.4-3.8,3.5c-0.1,0.1-0.1,0.2,0,0.2s0.2,0.1,0.2,0
		c0.1-0.1,4.5-5.7,9.6-5.1l-0.1-0.4C9.8,12.1,9.5,12.1,9.2,12.1z"/>
	<path class="st2" d="M4.9,10.4C4.8,10.4,4.8,10.4,4.9,10.4c-2.5,1.4-4.5,3.8-4.6,3.9c-0.1,0.1-0.1,0.2,0,0.2c0.1,0.1,0.2,0.1,0.2,0
		c0,0,2-2.5,4.4-3.8C5,10.6,5,10.5,4.9,10.4C5,10.5,5,10.4,4.9,10.4z"/>
	<path class="st2" d="M6.7,9.5C6.6,9.5,6.6,9.5,6.7,9.5C6.3,9.6,5.9,9.8,5.8,9.8c0,0.1-0.1,0.2,0,0.3S6,10.2,6,10.2S6.4,10,6.7,9.9
		c0.1,0,0.1,0,0.1-0.1s0-0.1,0-0.1C6.8,9.6,6.8,9.5,6.7,9.5z"/>
	<path class="st2" d="M9.2,9.3L9.2,9.3L9.2,9.3L9.6,9l0.2,0.1c0.1-0.3,0.1-0.5,0.1-0.6l0,0L10,8.2H9.9L9.7,7.7l0,0l0,0L9.4,8.3H8.9
		l0,0l0,0l0.4,0.4L9.2,9.3z"/>
	<path class="st1" d="M18.7,8.8c-0.2-0.2-0.4-0.4-0.7-0.4c-0.2,0-0.5,0.1-0.6,0.2l-1.2,1.2l0.6-3.7c0-0.2,0-0.4-0.1-0.6
		s-0.3-0.3-0.5-0.3c-0.1,0-0.2,0-0.4,0l-0.2,0.1l0.1-0.6c0-0.2,0-0.4-0.1-0.6c-0.1-0.2-0.3-0.3-0.5-0.3c-0.4-0.1-0.9,0.2-0.9,0.7
		v0.2L14,4.6c-0.1-0.1-0.2-0.1-0.3-0.1c-0.4-0.1-0.9,0.2-0.9,0.7L12.4,6l-0.1-0.1c-0.1-0.1-0.2-0.1-0.2-0.1c-0.1,0-0.1,0-0.1,0
		c-0.4,0-0.7,0.3-0.8,0.7l-0.4,2.3c0,0-0.2,1-0.2,1.8l0.5,2.7c0,0.1,0,0.2,0.1,0.2l0,0l0,0c0,0.3,0,0.5-0.1,0.7c0,0.1,0,0.5,0.2,0.7
		c0.1,0.2,0.3,0.2,0.5,0.3l2.8,0.3c0,0,0,0,0.1,0c0.4,0,0.8-0.3,0.9-0.5c0-0.1,0.2-0.4,0.4-0.9l0,0V14c0.1-0.1,0.2-0.3,0.3-0.4
		c0.4-0.5,0.7-1,1-1.7c0.2-0.6,0.4-1,0.9-1.5C18.6,10,19.1,9.4,18.7,8.8z M17.9,10.2c-0.6,0.5-0.8,1-1,1.6c-0.2,0.5-0.5,0.9-0.8,1.4
		c-0.2,0.2-0.3,0.5-0.5,0.7c-0.2,0.3-0.3,0.6-0.4,0.9c-0.1,0.1-0.3,0.3-0.5,0.3l0,0l-2.8-0.3c-0.1,0-0.2-0.1-0.2-0.1
		c-0.2-0.2-0.1-0.5-0.1-0.7c0-0.1,0-0.2,0-0.3s0-0.2,0-0.3s0-0.2,0-0.3c0-0.2-0.5-2.5-0.5-2.5C11,9.9,11.2,9.1,11.3,9l0.4-2.3
		c0-0.2,0.3-0.4,0.5-0.4c0.1,0,0.2,0.1,0.3,0.2c-0.1,0-0.1,0.1-0.1,0.3L12,9.3c0,0.1,0.1,0.2,0.2,0.2c0.1,0,0.1,0,0.1,0l0.1-0.1
		L13,5.3c0-0.2,0.3-0.4,0.5-0.4c0.1,0,0.2,0.1,0.3,0.2s0.1,0.2,0.1,0.3l-0.7,4c0,0.1,0,0.1,0,0.1l0.1,0.1l0,0l0,0c0.1,0,0.1,0,0.1,0
		l0.1-0.1l0.9-5c0-0.2,0.3-0.4,0.5-0.4c0.1,0,0.2,0.1,0.3,0.2s0.1,0.2,0.1,0.3l-0.9,5.1c0,0.1,0.1,0.2,0.2,0.2l0,0l0,0V10l0,0V9.9
		c0.1,0,0.1,0,0.1,0l0.1-0.1L15.5,6c0-0.2,0.3-0.4,0.5-0.4c0.1,0,0.2,0.1,0.3,0.2c0.1,0.1,0.1,0.2,0.1,0.3L15.8,10
		c0,0.2,0.1,0.4,0.1,0.4c0.1,0.1,0.2,0,0.4-0.1l1.4-1.4c0.1-0.1,0.2-0.1,0.3-0.1c0.2,0,0.4,0.1,0.4,0.2C18.6,9.3,18.5,9.7,17.9,10.2
		z"/>
</g>
<path class="st1" d="M11.8,3.7l-0.4-1c-0.1-0.1-0.1-0.1-0.1-0.1s-0.1,0-0.1,0.1l-0.4,1l-1,0.2C9.7,3.9,9.7,4,9.6,4
	c0,0,0,0.1,0.1,0.2l0.7,0.7V5c-0.1,0.4-0.2,1-0.2,1v0h-0.1c-6.8,1.1-9.8,5.7-9.9,5.8c-0.1,0.1,0,0.2,0.1,0.2c0.1,0.1,0.2,0,0.2-0.1
	s3.1-4.7,9.9-5.7l0.2-1l0,0l0.1-0.6L10.1,4h0.8l0.3-0.7L11.6,4l0.7,0.1c0.1-0.1,0.2-0.2,0.4-0.3L11.8,3.7z"/>
</svg>
