<?xml version="1.0" encoding="utf-8"?>
<!-- Generator: Adobe Illustrator 25.2.1, SVG Export Plug-In . SVG Version: 6.00 Build 0)  -->
<svg version="1.1" id="Layer_1" xmlns="http://www.w3.org/2000/svg" xmlns:xlink="http://www.w3.org/1999/xlink" x="0px" y="0px"
	 viewBox="0 0 17.2 20" style="enable-background:new 0 0 17.2 20;" xml:space="preserve">
<style type="text/css">
	.st0{fill:#010101;}
	.st1{fill:#B0B1B1;}
</style>
<g>
	<g>
		<path class="st0" d="M12.3,16c-0.1,0-0.3-0.1-0.3-0.3c0-2.3-1.9-4.2-4.2-4.2c-0.1,0-0.3-0.1-0.3-0.3C7.6,11.1,7.7,11,7.9,11
			c2.3,0,4.2-1.9,4.2-4.2c0-0.1,0.1-0.3,0.3-0.3c0.1,0,0.3,0.1,0.3,0.3c0,2.3,1.9,4.2,4.2,4.2c0.1,0,0.3,0.1,0.3,0.3
			c0,0.1-0.1,0.3-0.3,0.3c-2.3,0-4.2,1.9-4.2,4.2C12.6,15.9,12.5,16,12.3,16z M9.4,11.3c1.4,0.5,2.5,1.6,2.9,2.9
			c0.5-1.4,1.6-2.5,2.9-2.9c-1.4-0.5-2.5-1.6-2.9-2.9C11.9,9.7,10.8,10.8,9.4,11.3z"/>
	</g>
	<g>
		<path class="st0" d="M5.5,17.9c-0.1,0-0.3-0.1-0.3-0.3c0-1.7-1.4-3.1-3.1-3.1c-0.1,0-0.3-0.1-0.3-0.3c0-0.1,0.1-0.3,0.3-0.3
			c1.7,0,3.1-1.4,3.1-3.1c0-0.1,0.1-0.3,0.3-0.3c0.1,0,0.3,0.1,0.3,0.3c0,1.7,1.4,3.1,3.1,3.1c0.1,0,0.3,0.1,0.3,0.3
			c0,0.1-0.1,0.3-0.3,0.3c-1.7,0-3.1,1.4-3.1,3.1C5.8,17.8,5.7,17.9,5.5,17.9z M3.5,14.2c0.9,0.4,1.7,1.1,2.1,2.1
			c0.4-0.9,1.1-1.7,2.1-2.1c-0.9-0.4-1.7-1.1-2.1-2.1C5.2,13.1,4.4,13.8,3.5,14.2z"/>
	</g>
	<g>
		<path class="st0" d="M9.1,8.3C9,8.3,8.8,8.2,8.8,8c0-1.7-1.4-3.1-3.1-3.1c-0.1,0-0.3-0.1-0.3-0.3c0-0.2,0.1-0.3,0.3-0.3
			c1.7,0,3.1-1.4,3.1-3.1c0-0.1,0.1-0.3,0.3-0.3c0.1,0,0.3,0.1,0.3,0.3c0,1.7,1.4,3.1,3.1,3.1c0.1,0,0.3,0.1,0.3,0.3
			c0,0.2-0.1,0.3-0.3,0.3c-1.7,0-3.1,1.4-3.1,3.1C9.4,8.2,9.3,8.3,9.1,8.3z M7.1,4.7C8,5.1,8.8,5.8,9.2,6.8c0.4-0.9,1.1-1.7,2.1-2.1
			c-0.9-0.4-1.7-1.1-2.1-2.1C8.8,3.5,8,4.3,7.1,4.7z"/>
	</g>
	<g>
		<path class="st1" d="M1.5,9.2C0.7,9.2,0,8.5,0,7.6s0.7-1.5,1.5-1.5S3,6.8,3,7.6S2.3,9.2,1.5,9.2z M1.5,6.6c-0.6,0-1,0.4-1,1
			s0.4,1,1,1s1-0.4,1-1S2.1,6.6,1.5,6.6z"/>
	</g>
	<g>
		<path class="st1" d="M14.7,19c-0.6,0-1.1-0.5-1.1-1.1s0.5-1.1,1.1-1.1s1.1,0.5,1.1,1.1S15.3,19,14.7,19z M14.7,17.2
			c-0.3,0-0.6,0.3-0.6,0.6s0.3,0.6,0.6,0.6c0.3,0,0.6-0.3,0.6-0.6S15,17.2,14.7,17.2z"/>
	</g>
	<g>
		<path class="st1" d="M15.5,6.2c-0.6,0-1.1-0.5-1.1-1.1S14.9,4,15.5,4c0.6,0,1.1,0.5,1.1,1.1S16.1,6.2,15.5,6.2z M15.5,4.5
			c-0.3,0-0.6,0.3-0.6,0.6c0,0.3,0.3,0.6,0.6,0.6s0.6-0.3,0.6-0.6S15.9,4.5,15.5,4.5z"/>
	</g>
</g>
</svg>
