<?xml version="1.0" encoding="utf-8"?>
<!-- Generator: Adobe Illustrator 25.2.1, SVG Export Plug-In . SVG Version: 6.00 Build 0)  -->
<svg version="1.1" id="Layer_1" xmlns="http://www.w3.org/2000/svg" xmlns:xlink="http://www.w3.org/1999/xlink" x="0px" y="0px"
	 viewBox="0 0 17 20" style="enable-background:new 0 0 17 20;" xml:space="preserve">
<style type="text/css">
	.st0{fill:#010101;}
	.st1{fill:#B0B1B1;}
</style>
<g>
	<g>
		<path class="st0" d="M15.9,7.7c0.1-0.5-0.1-1-0.6-1.3c-0.3-0.2-0.6-0.3-0.9-0.3c-0.8,0-1.5,0.5-1.8,1.3c-0.1,0.2-0.4,0.4-0.8,0.4
			c-0.2,0-0.3-0.1-0.4-0.2c-0.1-0.1-0.2-0.4-0.1-0.7c0.1-0.9,0.5-1.5,0.8-2.1c0.3-0.5,0.5-0.9,0.6-1.4c0.2-0.8,0.1-1.4-0.2-1.8
			C12.3,1.2,11.9,1,11.4,1c-0.5-0.1-0.9,0.1-1.1,0.3C9.8,1.9,9.7,2.9,9.9,5C10,6.1,9.8,6.6,9.6,6.8C9.5,6.9,9.4,7,9.2,7
			S8.8,6.9,8.7,6.6C8.4,5.8,8.5,4.7,8.5,3.8c0-0.1,0-0.3,0-0.4s0-0.3,0-0.4c0.1-0.8,0.2-1.9-0.8-2.5C7.6,0.4,7.3,0.3,7.1,0.3
			c-0.8,0-1.5,0.5-1.6,1.2c-0.3,1.1,0.2,2.3,0.6,3c0.1,0.3,0.3,0.6,0.4,1c0,0.5-0.1,0.9-0.3,1.3C6.1,7,5.9,7.1,5.7,7.1
			c-0.1,0-0.1,0-0.2-0.1C5.4,6.9,5.4,6.7,5.3,6.5C5.2,6,5,5.4,4.3,4.9C4,4.7,3.7,4.6,3.3,4.6c-0.2,0-0.4,0-0.6,0.1
			C2.3,4.8,1.9,5,1.7,5.4s-0.2,0.8,0,1.2c0.3,0.8,1,1.2,1.6,1.5c0.1,0,0.1,0.1,0.2,0.1c0.8,0.5,1.2,0.9,1,1.8
			c-0.1,0.3-0.3,0.6-0.6,0.8S3.4,11,3,11c-0.6,0.1-1.4,0.3-1.8,1c-0.2,0.3-0.2,0.8,0,1.2C1.5,13.7,1.9,14,2.4,14c0.1,0,0.1,0,0.2,0
			c0.4,0,0.8-0.1,1.1-0.3c0.2-0.1,0.4-0.1,0.6-0.2c0.1,0,0.1,0,0.1,0c0.1,0,0.3,0,0.4,0.3c0.2,0.5-0.1,1.4-0.5,1.6
			c-0.2,0.1-0.6,0.5-0.7,1c0,0.2,0,0.5,0.3,0.9c0.2,0.2,0.5,0.4,0.8,0.4s0.6-0.1,0.8-0.4c0.1-0.2,0.3-0.4,0.4-0.8
			c0.2-0.5,0.4-1,0.7-1c0.1,0,0.1,0,0.2,0.1c0.7,0.3,0.6,1,0.4,1.8c0,0.1-0.1,0.2-0.1,0.3c-0.1,0.5,0,1.1,0.4,1.5
			c0.4,0.5,1,0.6,1.7,0.4h0.1l0,0c1.2-0.8,0.6-2.2,0.3-3.1c-0.1-0.2-0.2-0.4-0.2-0.6c-0.1-0.5-0.1-0.9,0-1.1c0-0.1,0.1-0.1,0.3-0.1
			c0.1,0,0.1,0,0.1,0c0.6,0.1,0.7,1.1,0.7,1.7c0,0.9,0.6,1.6,1.4,1.6c0.1,0,0.3,0,0.5-0.1h0.1l0,0c1.2-0.9,0.8-1.7,0.4-2.3
			c-0.1-0.2-0.2-0.3-0.3-0.5c0-0.1-0.1-0.1-0.1-0.2c-0.4-0.9-0.6-1.4-0.1-1.8c0.4-0.3,1-0.4,1.4-0.2C14,13,14.2,13,14.4,13
			c0.4,0,0.7-0.1,0.9-0.3c0.1-0.1,0.3-0.4,0.3-0.8c0-0.5-0.6-0.8-1.1-0.8c-0.2,0-0.4,0-0.5,0.1c-0.2,0.1-0.5,0-0.6-0.3
			c-0.4-1,0.3-1.5,1.4-1.9C15.4,8.8,15.8,8.3,15.9,7.7z M13.1,10.8c0.1,0.3,0.4,0.5,0.7,0.5c0.1,0,0.2,0,0.3-0.1s0.2-0.1,0.4-0.1
			c0.4,0,0.8,0.2,0.8,0.6c0,0.3,0,0.5-0.2,0.6c-0.1,0.2-0.4,0.3-0.7,0.3c-0.2,0-0.4,0-0.5-0.1c-0.2-0.1-0.4-0.1-0.7-0.1
			c-0.4,0-0.8,0.1-1,0.4c-0.6,0.6-0.3,1.3,0.1,2.1l0.1,0.2c0.1,0.2,0.2,0.3,0.3,0.5c0.4,0.6,0.8,1.2-0.3,2l0,0
			c-0.1,0.1-0.3,0.1-0.4,0.1c-0.6,0-1.1-0.6-1.1-1.4c0-0.8-0.1-1.8-0.9-1.9c-0.3-0.1-0.5,0-0.6,0.2c-0.2,0.3-0.2,0.7,0,1.3
			c0.1,0.2,0.1,0.4,0.2,0.6c0.4,1,0.9,2.2-0.2,2.9l0,0c-0.2,0.1-0.4,0.1-0.5,0.1c-0.4,0-0.7-0.1-0.9-0.4c-0.3-0.3-0.4-0.8-0.3-1.3
			c0-0.1,0.1-0.2,0.1-0.3c0.2-0.7,0.4-1.6-0.5-2.1c-0.1-0.1-0.2-0.1-0.3-0.1l0,0c-0.4,0-0.7,0.6-0.9,1.1c-0.3,0.3-0.4,0.6-0.5,0.7
			c-0.2,0.2-0.4,0.3-0.6,0.3s-0.4-0.1-0.6-0.3c-0.2-0.2-0.3-0.5-0.3-0.7c0.1-0.4,0.4-0.7,0.6-0.8c0.5-0.3,0.7-1.2,0.6-1.8
			c-0.1-0.4-0.4-0.5-0.8-0.5c-0.2,0-0.5,0.1-0.7,0.2c-0.4,0.1-0.7,0.3-1.2,0.2c-0.4,0-0.8-0.3-1.1-0.7c-0.2-0.3-0.2-0.6,0-0.9
			c0.3-0.6,1-0.7,1.6-0.8c0.4-0.1,0.7-0.1,1-0.3s0.6-0.6,0.6-1c0.2-1.1-0.5-1.6-1.1-2C3.5,8,3.5,7.9,3.4,7.9
			C2.8,7.6,2.2,7.2,1.9,6.5c-0.1-0.3-0.1-0.7,0-1c0.2-0.3,0.5-0.6,0.9-0.7C3,4.7,3.2,4.7,3.3,4.7C3.7,4.8,4,4.8,4.2,5
			C4.8,5.5,5,6.1,5.1,6.5C5.2,6.8,5.2,7,5.4,7.2c0,0.1,0.2,0.2,0.3,0.2c0.3,0,0.6-0.2,0.7-0.5C6.6,6.5,6.7,6,6.6,5.5
			c-0.1-0.3-0.2-0.7-0.4-1c-0.4-1-0.8-1.9-0.5-2.9c0.1-0.6,0.7-1,1.4-1c0.2,0,0.5,0.1,0.6,0.1c0.9,0.5,0.8,1.4,0.7,2.2
			c0,0.1,0,0.3-0.1,0.4c0,0.1,0,0.3,0,0.4c-0.1,1-0.2,2,0.2,2.9c0.1,0.3,0.4,0.5,0.7,0.5c0.2,0,0.4-0.1,0.5-0.2
			c0.2-0.3,0.5-0.8,0.4-1.9C9.9,3,10,2,10.5,1.5c0.2-0.2,0.5-0.3,0.9-0.3s0.8,0.2,1,0.5c0.2,0.3,0.3,0.9,0.2,1.6
			c-0.1,0.5-0.4,0.9-0.6,1.3c-0.4,0.6-0.7,1.3-0.9,2.2c-0.1,0.4,0,0.7,0.2,0.9c0.1,0.1,0.4,0.2,0.6,0.2c0.4,0,0.8-0.3,1-0.6
			c0.2-0.6,0.9-1.1,1.6-1.1c0.3,0,0.6,0.1,0.8,0.3c0.4,0.3,0.5,0.7,0.5,1.1c-0.1,0.5-0.4,0.9-0.9,1.2C13.6,9.4,12.7,9.9,13.1,10.8z"
			/>
	</g>
</g>
<ellipse class="st1" cx="14.1" cy="4.4" rx="0.3" ry="0.3"/>
<ellipse class="st1" cx="5" cy="18.9" rx="0.3" ry="0.3"/>
<ellipse class="st1" cx="16.4" cy="2.5" rx="0.6" ry="0.5"/>
<ellipse class="st1" cx="15.6" cy="16.1" rx="0.5" ry="0.5"/>
<ellipse class="st1" cx="0.4" cy="7.8" rx="0.4" ry="0.4"/>
</svg>
