<?xml version="1.0" encoding="utf-8"?>
<!-- Generator: Adobe Illustrator 25.2.1, SVG Export Plug-In . SVG Version: 6.00 Build 0)  -->
<svg version="1.1" id="Layer_1" xmlns="http://www.w3.org/2000/svg" xmlns:xlink="http://www.w3.org/1999/xlink" x="0px" y="0px"
	 viewBox="0 0 18.6 20" style="enable-background:new 0 0 18.6 20;" xml:space="preserve">
<style type="text/css">
	.st0{fill:none;}
	.st1{fill:#B0B1B2;}
	.st2{fill:#010101;}
</style>
<g>
	<polygon class="st0" points="16.5,11.2 16.5,8.7 14.6,9.9 	"/>
	<polygon class="st0" points="2.1,8.7 2.1,11.2 4,9.9 	"/>
	<path class="st1" d="M18.4,9.7h-1.2v-2c0-0.1-0.1-0.2-0.1-0.2H17c-0.1,0-0.1,0-0.1,0l-3.3,2.2c-0.1,0.1-0.1,0.1-0.1,0.2
		c0,0.1,0,0.1,0.1,0.2l3.3,2.2c0.1,0.1,0.2,0.1,0.2,0c0.1,0,0.1-0.1,0.1-0.2v-2h1.2c0.1,0,0.2-0.1,0.2-0.2S18.6,9.7,18.4,9.7z
		 M16.8,11.7l-2.7-1.8l2.6-1.8L16.8,11.7L16.8,11.7z"/>
	<path class="st1" d="M9.3,0.9C9.2,0.9,9.1,1,9.1,1.1v17.6c0,0.1,0.1,0.2,0.2,0.2c0.1,0,0.2-0.1,0.2-0.2V1.1C9.5,1,9.4,0.9,9.3,0.9z
		"/>
	<path class="st1" d="M5.2,9.9c0-0.1,0-0.1-0.1-0.2L1.8,7.5c-0.1-0.1-0.2-0.1-0.2,0c-0.1,0-0.1,0.1-0.1,0.2v2H0.2
		C0.1,9.7,0,9.8,0,9.9s0.1,0.2,0.2,0.2h1.2v2c0,0.1,0.1,0.2,0.1,0.2c0.1,0,0.2,0,0.2,0L5,10.1C5.1,10,5.2,10,5.2,9.9z M1.8,11.7V8.2
		L4.4,10L1.8,11.7z"/>
	<path class="st2" d="M11.7,9.9c0-3.6,2.1-8.6,2.2-8.7c0-0.1,0-0.1,0-0.2s-0.1-0.1-0.1-0.1h-0.1h-0.1c-0.1,0-0.1,0.1-0.1,0.1
		c-0.1,0.2-2.2,5.2-2.2,8.9c0,3.6,2.1,8.7,2.2,8.9c0.1,0.1,0.2,0.2,0.3,0.1s0.2-0.2,0.1-0.3C13.8,18.4,11.7,13.4,11.7,9.9z"/>
	<path class="st2" d="M5.1,1C5.1,0.9,5,0.9,5,0.9H4.9H4.8c0,0-0.1,0.1-0.1,0.1c0,0.1,0,0.1,0,0.2s2.1,5.2,2.1,8.7s-2.1,8.6-2.2,8.7
		c-0.1,0.1,0,0.3,0.1,0.3C4.8,19,5,18.9,5,18.8c0.1-0.2,2.2-5.2,2.2-8.9C7.3,6.3,5.2,1.2,5.1,1z"/>
</g>
</svg>
