<?xml version="1.0" encoding="utf-8"?>
<!-- Generator: Adobe Illustrator 25.2.1, SVG Export Plug-In . SVG Version: 6.00 Build 0)  -->
<svg version="1.1" id="Layer_1" xmlns="http://www.w3.org/2000/svg" xmlns:xlink="http://www.w3.org/1999/xlink" x="0px" y="0px"
	 viewBox="0 0 19.1 20" style="enable-background:new 0 0 19.1 20;" xml:space="preserve">
<style type="text/css">
	.st0{fill:#010101;}
	.st1{fill:#B0B1B2;}
</style>
<path class="st0" d="M9.6,7.2L9.6,7.2l0.7,0.7c0.7,0.2,1.3,0.8,1.6,1.5l0.7,0.7C12.6,8.5,11.2,7.2,9.6,7.2z"/>
<path class="st0" d="M9.6,13.2c0.1,0,0.1,0,0.2,0l-0.7-0.6c-0.9-0.2-1.6-0.9-1.8-1.7l-0.7-0.7l0,0C6.6,11.8,8,13.2,9.6,13.2z"/>
<path class="st0" d="M8.4,4.9c0.1,0,0.2-0.1,0.2-0.3V3.5c0-0.2,0.2-0.4,0.5-0.4h0.8c0.3,0,0.5,0.2,0.5,0.4v1.1
	c0,0.1,0.1,0.3,0.2,0.3c0.6,0.1,1.2,0.4,1.8,0.7c0.1,0.1,0.3,0.1,0.4,0l0.8-0.8c0.2-0.2,0.5-0.1,0.7,0.1l0.6,0.6
	c0.1,0.1,0.2,0.2,0.2,0.4c0,0.1,0,0.2-0.1,0.3l-0.7,0.7c-0.1,0.1-0.1,0.3,0,0.4c0.3,0.5,0.6,1.1,0.7,1.8c0,0.1,0.1,0.2,0.3,0.2h1
	c0.2,0,0.4,0.2,0.4,0.5v0.8c0,0.3-0.2,0.5-0.4,0.5h-1c-0.1,0-0.3,0.1-0.3,0.2c-0.1,0.2-0.1,0.5-0.2,0.7l0.5,0.5
	c0.1-0.3,0.2-0.5,0.3-0.8h0.8c0.6,0,1-0.5,1-1.1V9.8c0-0.6-0.5-1.1-1-1.1h-0.8c-0.1-0.5-0.3-1.1-0.6-1.5l0.6-0.6
	c0.2-0.2,0.3-0.5,0.3-0.8s-0.1-0.5-0.3-0.7L15,4.5C14.3,4,13.6,4,13.2,4.4L12.7,5c-0.5-0.3-1-0.5-1.5-0.6V3.6c0-0.6-0.5-1-1.1-1H9.2
	C8.6,2.5,8.1,3,8.1,3.6v0.8C7.7,4.4,7.4,4.6,7,4.8l0.5,0.5C7.8,5,8.1,5,8.4,4.9z"/>
<path class="st0" d="M10.8,15.5c-0.1,0-0.2,0.1-0.2,0.3v1.1c0,0.2-0.2,0.4-0.5,0.4H9.2c-0.3,0-0.5-0.2-0.5-0.4v-1.1
	c0-0.1-0.1-0.3-0.2-0.3c-0.6-0.1-1.2-0.4-1.8-0.7c-0.1-0.1-0.3-0.1-0.4,0l-0.7,0.7c-0.2,0.2-0.5,0.1-0.7-0.1l-0.6-0.6
	c-0.1-0.1-0.2-0.2-0.2-0.4c0-0.1,0-0.2,0.1-0.3l0.7-0.7C5,13.3,5,13.1,4.9,13c-0.3-0.5-0.6-1.1-0.7-1.8c0-0.1-0.1-0.2-0.3-0.2h-1
	c-0.2,0-0.4-0.2-0.4-0.5V9.8c0-0.3,0.2-0.5,0.4-0.5h1c0.1,0,0.3-0.1,0.3-0.2c0.2-0.4,0.3-0.7,0.4-0.9L4.1,7.7C4,8,3.9,8.3,3.8,8.6H3
	c-0.6,0-1,0.5-1,1.1v0.8c0,0.6,0.5,1.1,1,1.1h0.8c0.1,0.5,0.3,1.1,0.6,1.5l-0.6,0.6c-0.1,0.3-0.2,0.6-0.2,0.9s0.1,0.5,0.3,0.7
	l0.6,0.6C4.9,16.3,5.6,16.4,6,16l0.6-0.6c0.5,0.3,1,0.5,1.5,0.6v0.8c0,0.6,0.5,1,1.1,1H10c0.6,0,1.1-0.5,1.1-1V16
	c0.4-0.1,0.8-0.3,1.2-0.5l-0.5-0.4C11.5,15.3,11.2,15.4,10.8,15.5z"/>
<path class="st1" d="M16.7,14.2c-0.2,0-0.4,0-0.5,0.1L5.8,4.5C5.7,4.3,5.6,4.1,5.6,3.9c0-1-0.4-1.8-1-2.3C3.4,0.7,1.6,1,1.5,1.1
	c-0.2,0-0.3,0.2-0.2,0.3c0,0.1,0.1,0.1,0.1,0.2l1.3,1.1c0.1,0.1,0.1,0.3,0,0.4l0,0L2.1,3.9C2,4,1.8,4,1.7,3.9L0.5,3.1
	C0.3,3,0.2,3.1,0.1,3.2C0.1,3.3,0,3.3,0,3.4C0.3,6,1.6,6.2,1.8,6.2l1.6,0.3c0.2,0,0.4,0.1,0.5,0.3L14,16.5c0,0.1,0,0.2,0,0.3
	c0,1.4,1.1,2.6,2.5,2.6c0,0,0,0,0.1,0c0.7,0,1.3-0.3,1.8-0.7c1-1,1.1-2.6,0.1-3.7C18,14.5,17.4,14.2,16.7,14.2L16.7,14.2z M1.9,5.6
	L1.9,5.6c0,0-0.8-0.1-1.2-1.6l0.6,0.4c0.4,0.3,0.9,0.2,1.2-0.1l0.7-0.7c0.3-0.4,0.3-0.9-0.1-1.3l0,0L2.3,1.6c0.6,0,1.4,0.1,1.9,0.5
	s0.7,1,0.8,1.8c0,0.3,0.1,0.6,0.3,0.9L4.1,6.2C3.9,6,3.7,6,3.5,6L1.9,5.6z M18,18.2c-0.4,0.4-0.9,0.6-1.4,0.6c-1.1,0-2-0.9-1.9-2
	c0-0.1,0-0.2,0-0.4c0-0.1,0-0.2-0.1-0.3L4.5,6.5l1.2-1.3l10.1,9.6c0.1,0.1,0.2,0.1,0.3,0.1c1.1-0.3,2.1,0.3,2.4,1.4
	c0.1,0.2,0.1,0.4,0.1,0.6C18.6,17.4,18.4,17.9,18,18.2z"/>
<path class="st0" d="M16.7,15.5c-0.3,0-0.7,0.1-0.9,0.4c-0.5,0.5-0.5,1.3,0,1.8c0.2,0.3,0.5,0.4,0.9,0.4l0,0c0.3,0,0.7-0.1,0.9-0.4
	c0.5-0.5,0.5-1.3,0-1.8C17.3,15.7,17,15.5,16.7,15.5L16.7,15.5z M17.1,17.3c-0.1,0.1-0.3,0.2-0.5,0.2s-0.3-0.1-0.5-0.2
	c-0.3-0.3-0.3-0.7,0-1c0.1-0.1,0.3-0.2,0.5-0.2l0,0c0.4,0,0.7,0.3,0.7,0.7C17.3,17,17.2,17.2,17.1,17.3L17.1,17.3z"/>
<path class="st1" d="M12.8,1.7c0.1,0,0.2,0.1,0.3,0.1c0.1,0.1,0.3,0,0.4-0.2l0,0c0.1-0.1,0-0.3-0.2-0.4c-0.1,0-0.2-0.1-0.3-0.1
	c-0.1-0.1-0.3,0-0.4,0.2C12.6,1.5,12.6,1.7,12.8,1.7L12.8,1.7z"/>
<path class="st1" d="M14.7,2.7c0.1,0.1,0.2,0.1,0.2,0.2C15.1,3,15.2,3,15.4,2.8l0,0c0.1-0.1,0.1-0.3-0.1-0.4
	c-0.1-0.1-0.2-0.1-0.3-0.2c-0.1-0.1-0.3-0.1-0.4,0.1C14.5,2.4,14.6,2.6,14.7,2.7z"/>
<path class="st1" d="M10.7,1.2c0.1,0,0.2,0,0.3,0c0,0,0,0,0.1,0c0.2,0,0.3-0.1,0.3-0.3c0-0.1-0.1-0.3-0.3-0.3c-0.1,0-0.2,0-0.3,0
	s-0.3,0.1-0.3,0.3C10.4,1,10.5,1.2,10.7,1.2L10.7,1.2z"/>
<path class="st1" d="M18.9,9.9c-0.2,0-0.3,0.1-0.3,0.3l0,0c0,0.1,0,0.2,0,0.3c0,0.2,0.1,0.3,0.3,0.3l0,0c0.2,0,0.3-0.1,0.3-0.3
	c0-0.1,0-0.2,0-0.3l0,0C19.2,10,19.1,9.9,18.9,9.9z"/>
<path class="st1" d="M8.5,1.2L8.5,1.2c0.1,0,0.2,0,0.3,0C9,1.2,9.1,1,9.1,0.9c0-0.2-0.2-0.3-0.3-0.3s-0.2,0-0.3,0
	c-0.2,0-0.3,0.2-0.3,0.3C8.2,1.1,8.3,1.2,8.5,1.2L8.5,1.2z"/>
<path class="st1" d="M16.5,4.4c0.1,0.1,0.3,0.1,0.4,0l0,0C17,4.3,17,4.1,16.9,4s-0.1-0.2-0.2-0.2c-0.1-0.1-0.3-0.1-0.4,0l0,0
	c-0.1,0.1-0.1,0.3,0,0.4C16.4,4.2,16.5,4.3,16.5,4.4z"/>
<path class="st1" d="M18.4,8.3c0,0.2,0.2,0.3,0.3,0.2c0.2,0,0.3-0.2,0.2-0.3l0,0c0-0.1-0.1-0.2-0.1-0.3c0-0.2-0.2-0.3-0.4-0.2
	S18.3,7.8,18.3,8l0,0C18.4,8.1,18.4,8.2,18.4,8.3z"/>
<path class="st1" d="M18.5,13c0.2,0.1,0.3-0.1,0.4-0.2l0,0c0-0.1,0.1-0.2,0.1-0.3c0-0.2-0.1-0.3-0.2-0.4c-0.2,0-0.3,0.1-0.4,0.2l0,0
	c0,0.1-0.1,0.2-0.1,0.3C18.2,12.8,18.3,13,18.5,13z"/>
<path class="st1" d="M17.7,6.2c0.1,0.1,0.3,0.2,0.4,0.1s0.2-0.3,0.1-0.4l0,0c-0.1-0.1-0.1-0.2-0.1-0.3c-0.1-0.1-0.3-0.2-0.4-0.1
	c-0.1,0.1-0.2,0.3-0.1,0.5l0,0C17.6,6,17.7,6.1,17.7,6.2z"/>
<path class="st1" d="M6.3,1.8L6.3,1.8c0.2,0,0.3-0.1,0.4-0.1c0.2-0.1,0.2-0.2,0.2-0.4c0-0.2-0.2-0.3-0.4-0.2l0,0
	c-0.1,0-0.2,0.1-0.3,0.1C6.1,1.2,6,1.4,6.1,1.6C6.1,1.7,6.2,1.8,6.3,1.8L6.3,1.8z"/>
<path class="st1" d="M8.5,19.2c-0.1,0-0.2,0-0.3,0c-0.2,0-0.3,0.1-0.3,0.3c0,0.2,0.1,0.3,0.3,0.3c0.1,0,0.2,0,0.3,0l0,0
	c0.2,0,0.3-0.1,0.3-0.3C8.8,19.3,8.7,19.2,8.5,19.2L8.5,19.2z"/>
<path class="st1" d="M0.6,10.2c0-0.1,0-0.2,0-0.3c0-0.2-0.1-0.3-0.3-0.3S0,9.7,0,9.9l0,0c0,0.1,0,0.2,0,0.3h0.3H0
	c0,0.2,0.1,0.3,0.3,0.3l0,0C0.5,10.5,0.6,10.4,0.6,10.2z"/>
<path class="st1" d="M12.8,18.6c-0.1,0-0.2,0.1-0.3,0.1c-0.2,0.1-0.2,0.2-0.2,0.4c0.1,0.2,0.2,0.2,0.4,0.2l0,0
	c0.1,0,0.2-0.1,0.3-0.1c0.1-0.1,0.2-0.2,0.2-0.4C13.2,18.7,13,18.6,12.8,18.6z"/>
<path class="st1" d="M10.7,19.2c-0.1,0-0.2,0-0.3,0c-0.2,0-0.3,0.2-0.3,0.3s0.1,0.3,0.3,0.3l0,0c0.1,0,0.2,0,0.3,0
	c0.2,0,0.3-0.2,0.3-0.3C11,19.3,10.9,19.2,10.7,19.2L10.7,19.2z"/>
<path class="st1" d="M4.5,17.6c-0.1-0.1-0.2-0.1-0.2-0.2c-0.1-0.1-0.3-0.1-0.4,0.1c-0.1,0.1-0.1,0.3,0.1,0.4l0,0
	C4.1,18,4.2,18,4.3,18.1c0,0.1,0.2,0.1,0.3-0.1l0,0C4.7,17.9,4.7,17.7,4.5,17.6z"/>
<path class="st1" d="M6.4,18.6c-0.1,0-0.2-0.1-0.3-0.1c-0.1-0.1-0.3,0-0.4,0.2c-0.1,0.1,0,0.3,0.2,0.4c0.1,0,0.2,0.1,0.3,0.1
	c0.2,0.1,0.4,0,0.4-0.2C6.7,18.9,6.6,18.7,6.4,18.6L6.4,18.6z"/>
<path class="st1" d="M2.7,16c-0.1-0.1-0.3-0.1-0.4,0c-0.1,0.1-0.1,0.3,0,0.4s0.1,0.2,0.2,0.2c0.1,0.1,0.3,0.1,0.4,0l0,0
	c0.1-0.1,0.1-0.3,0-0.4S2.8,16,2.7,16z"/>
<path class="st1" d="M0.8,12.1c0-0.2-0.2-0.3-0.3-0.2c-0.1,0-0.3,0.2-0.3,0.4l0,0c0,0.1,0.1,0.2,0.1,0.3c0,0.2,0.2,0.3,0.4,0.2
	c0.2,0,0.3-0.2,0.2-0.4l0,0C0.9,12.3,0.8,12.2,0.8,12.1z"/>
<path class="st1" d="M0.7,7.4c-0.1-0.1-0.3,0-0.3,0.2l0,0c0,0.1-0.1,0.2-0.1,0.3c0,0.2,0.1,0.3,0.2,0.4c0.2,0,0.3-0.1,0.4-0.2l0,0
	C0.9,8,1,7.9,1,7.8C1,7.6,0.9,7.4,0.7,7.4z"/>
<path class="st1" d="M1.5,14.2C1.4,14,1.3,14,1.1,14C1,14.1,0.9,14.3,1,14.4l0,0c0.1,0.1,0.1,0.2,0.1,0.3c0.1,0.1,0.3,0.2,0.4,0.1
	s0.2-0.3,0.1-0.4l0,0C1.6,14.3,1.6,14.2,1.5,14.2z"/>
</svg>
