<?xml version="1.0" encoding="utf-8"?>
<!-- Generator: Adobe Illustrator 25.2.1, SVG Export Plug-In . SVG Version: 6.00 Build 0)  -->
<svg version="1.1" id="Layer_1" xmlns="http://www.w3.org/2000/svg" xmlns:xlink="http://www.w3.org/1999/xlink" x="0px" y="0px"
	 viewBox="0 0 16.8 20" style="enable-background:new 0 0 16.8 20;" xml:space="preserve">
<style type="text/css">
	.st0{fill:#010101;}
	.st1{fill:#B0B0B1;}
</style>
<g>
	<g>
		<g>
			<g>
				<path class="st0" d="M11.1,14.9L11.1,14.9H5.6c-0.1,0-0.1,0-0.1-0.1l-0.1-0.1v-0.1c0-0.4-0.4-0.8-0.8-0.8
					c-0.2,0-0.3,0.1-0.5,0.2c0,0-0.1,0-0.1,0c-0.1,0-0.1-0.1-0.1-0.1L1.1,9c0-0.1,0-0.1,0-0.2c0,0,0-0.1,0.1-0.1
					c0.4,0,0.7-0.4,0.7-0.8c0-0.3-0.2-0.6-0.6-0.8C1.2,7.1,1.2,7,1.2,7c0-0.1,0-0.1,0-0.2l0.2-0.4c0-0.1,0.1-0.1,0.2-0.1h0.1
					c0.1,0,0.1,0.1,0.1,0.1c0,0.1,0,0.1,0,0.1L1.6,6.9c0.4,0.2,0.6,0.6,0.6,1c0,0.3-0.1,0.5-0.2,0.7C1.9,8.8,1.7,8.9,1.5,9l2.6,4.5
					c0.2-0.1,0.4-0.1,0.5-0.1l0,0c0.3,0,0.6,0.1,0.8,0.3c0.2,0.2,0.3,0.5,0.4,0.8h5.1c0-0.3,0.1-0.6,0.4-0.8
					c0.2-0.2,0.5-0.3,0.8-0.3l0,0c0.2,0,0.4,0.1,0.5,0.1l0,0c0-0.1,0.1-0.1,0.2-0.1h0.1c0.1,0.1,0.1,0.2,0.1,0.3l-0.1,0.2
					c0,0.1-0.1,0.1-0.1,0.1h-0.1c-0.1-0.1-0.3-0.2-0.5-0.2c-0.4,0-0.8,0.4-0.8,0.8v0.1c0,0.1,0,0.1-0.1,0.1
					C11.2,14.9,11.1,14.9,11.1,14.9z M13.3,12.8L13.3,12.8c-0.2-0.1-0.2-0.2-0.1-0.3c0-0.1,0.1-0.1,0.2-0.1h0.1
					c0.1,0,0.1,0.1,0.1,0.1v0.1C13.5,12.8,13.4,12.8,13.3,12.8z M13.9,11.8C13.9,11.8,13.8,11.8,13.9,11.8L13.9,11.8L13.9,11.8
					L13.9,11.8c-0.1-0.1-0.2-0.1-0.2-0.1v-0.1L15.2,9c-0.5-0.2-0.8-0.6-0.8-1.1c0-0.2,0.1-0.4,0.2-0.6S14.9,7,15,6.9l-2.4-4.2
					c-0.2,0.1-0.4,0.1-0.5,0.1c-0.3,0-0.6-0.1-0.8-0.3S10.9,2,10.9,1.7H5.8c0,0.3-0.1,0.6-0.4,0.8C5.2,2.7,4.9,2.8,4.6,2.8
					c-0.1,0-0.3,0-0.5-0.1l-1.2,2c0,0.1-0.1,0.1-0.2,0.1H2.6c0-0.1,0-0.2,0-0.3l1.3-2.2C3.9,2.2,4,2.2,4,2.2c0.1,0,0.1,0,0.1,0
					c0.1,0.1,0.3,0.2,0.5,0.2C5,2.4,5.4,2,5.4,1.6V1.5c0-0.1,0-0.1,0.1-0.1l0.1-0.1l0,0h5.5c0.1,0,0.1,0,0.1,0.1l0.1,0.1v0.1
					c0,0.4,0.4,0.8,0.8,0.8c0.2,0,0.3-0.1,0.5-0.2c0.1,0,0.1-0.1,0.1,0c0.1,0,0.1,0.1,0.1,0.1l2.6,4.6c0,0.1,0,0.1,0,0.2
					s-0.1,0.1-0.1,0.1C15,7.3,14.8,7.6,14.8,8s0.3,0.8,0.7,0.8c0.1,0,0.1,0.1,0.1,0.1c0,0.1,0,0.1,0,0.2l-1.5,2.7l0,0
					C14,11.8,14,11.8,13.9,11.8z M2.2,5.8L2.2,5.8C2,5.7,2,5.6,2.1,5.5c0-0.1,0.1-0.1,0.2-0.1h0.1c0.1,0.1,0.1,0.2,0.1,0.3
					C2.4,5.8,2.3,5.8,2.2,5.8z"/>
			</g>
			<g>
				<path class="st0" d="M4.6,2.9L4.6,2.9c-0.2,0-0.5-0.1-0.7-0.3C3.8,2.5,3.7,2.4,3.6,2.2C3.5,2.1,3.5,1.9,3.5,1.7
					c0-0.3,0.1-0.6,0.3-0.8C4,0.7,4.3,0.6,4.6,0.6s0.6,0.1,0.8,0.3C5.6,1,5.7,1.3,5.8,1.5c0,0.1,0,0.1,0,0.2c0,0.3-0.1,0.6-0.3,0.8
					C5.3,2.7,4.9,2.9,4.6,2.9z M4.6,0.9c-0.4,0-0.8,0.4-0.8,0.8c0,0.3,0.1,0.5,0.3,0.6c0.1,0.1,0.3,0.2,0.5,0.2
					c0.4,0,0.8-0.4,0.8-0.8V1.6C5.4,1.2,5,0.9,4.6,0.9L4.6,0.9z"/>
			</g>
			<g>
				<path class="st0" d="M12.1,2.9L12.1,2.9L12.1,2.9c-0.3,0-0.6-0.1-0.8-0.3S11,2.1,11,1.8c0-0.1,0-0.1,0-0.1c0.1-0.6,0.6-1,1.2-1
					c0.3,0,0.6,0.1,0.8,0.3s0.3,0.5,0.3,0.8c0,0.2,0,0.4-0.1,0.5S13,2.6,12.9,2.7C12.6,2.8,12.3,2.9,12.1,2.9z M12.1,0.9
					c-0.4,0-0.7,0.3-0.8,0.7v0.1c0,0.4,0.4,0.8,0.8,0.8c0.2,0,0.3-0.1,0.5-0.2c0.2-0.1,0.3-0.4,0.3-0.6C12.8,1.3,12.5,0.9,12.1,0.9
					L12.1,0.9z"/>
			</g>
			<g>
				<path class="st0" d="M12.1,15.7L12.1,15.7c-0.3,0-0.6-0.1-0.8-0.3s-0.3-0.5-0.4-0.7c0-0.1,0-0.1,0-0.2c0-0.3,0.1-0.6,0.3-0.8
					s0.5-0.3,0.8-0.3s0.5,0.1,0.7,0.2c0.1,0.1,0.3,0.3,0.3,0.4c0.1,0.2,0.1,0.3,0.1,0.5c0,0.3-0.1,0.6-0.3,0.8
					C12.7,15.6,12.4,15.7,12.1,15.7z M12.1,13.8c-0.4,0-0.8,0.4-0.8,0.8v0.1c0.1,0.4,0.4,0.7,0.8,0.7l0,0c0.4,0,0.8-0.4,0.8-0.8
					c0-0.3-0.1-0.5-0.3-0.6C12.4,13.8,12.2,13.8,12.1,13.8L12.1,13.8z"/>
			</g>
			<g>
				<path class="st0" d="M4.6,15.7L4.6,15.7c-0.3,0-0.6-0.1-0.8-0.3c-0.2-0.2-0.3-0.5-0.3-0.8c0-0.2,0-0.4,0.1-0.5s0.2-0.3,0.3-0.4
					c0.2-0.2,0.5-0.3,0.7-0.3l0,0c0.3,0,0.6,0.1,0.8,0.3c0.2,0.2,0.3,0.5,0.3,0.8c0,0.1,0,0.1,0,0.1C5.7,15.3,5.2,15.7,4.6,15.7z
					 M4.6,13.8c-0.2,0-0.3,0.1-0.5,0.2c-0.2,0.1-0.3,0.4-0.3,0.6c0,0.4,0.4,0.8,0.8,0.8l0,0c0.4,0,0.7-0.3,0.8-0.7v-0.1
					C5.4,14.1,5.1,13.8,4.6,13.8L4.6,13.8z"/>
			</g>
			<g>
				<path class="st0" d="M1.1,9.1L1.1,9.1C0.8,9.1,0.6,9,0.3,8.8C0.1,8.6,0,8.3,0,8s0.1-0.6,0.3-0.8c0.3-0.3,0.5-0.4,0.8-0.4
					c0.1,0,0.2,0,0.3,0.1c0.3,0,0.5,0.2,0.7,0.4C2.2,7.5,2.3,7.7,2.3,8S2.2,8.6,2,8.8S1.5,9.1,1.3,9.1C1.2,9.1,1.2,9.1,1.1,9.1z
					 M1.1,7.1c-0.4,0-0.8,0.4-0.8,0.8s0.4,0.8,0.8,0.8h0.1c0.4,0,0.7-0.4,0.7-0.8c0-0.3-0.2-0.6-0.6-0.8C1.3,7.2,1.2,7.1,1.1,7.1
					L1.1,7.1z"/>
			</g>
			<g>
				<path class="st0" d="M15.6,9.1L15.6,9.1C15.6,9.1,15.5,9.1,15.6,9.1c-0.4,0-0.6-0.1-0.8-0.4c-0.2-0.2-0.3-0.5-0.3-0.8
					s0.1-0.5,0.2-0.7s0.3-0.3,0.6-0.4c0.1,0,0.2-0.1,0.4-0.1l0,0l0,0c0.3,0,0.6,0.1,0.8,0.3c0.2,0.2,0.3,0.5,0.3,0.8
					s-0.1,0.6-0.3,0.8C16.2,9,15.9,9.1,15.6,9.1z M15.6,7.1c-0.1,0-0.2,0-0.3,0c-0.3,0.1-0.5,0.4-0.5,0.8s0.3,0.8,0.7,0.8h0.1
					c0.4,0,0.8-0.4,0.8-0.8C16.4,7.5,16,7.1,15.6,7.1L15.6,7.1z"/>
			</g>
			<g>
				<path class="st1" d="M8.3,14.6c-0.1,0-0.2-0.1-0.2-0.2V1.9c0-0.1,0.1-0.2,0.2-0.2c0.1,0,0.2,0.1,0.2,0.2v12.5
					C8.5,14.5,8.5,14.6,8.3,14.6z"/>
			</g>
			<g>
				<path class="st1" d="M2.9,11.8L2.9,11.8c-0.1,0-0.1,0-0.2-0.1c0-0.1,0-0.1,0-0.1c0-0.1,0-0.1,0.1-0.1l10.9-7h0.1
					c0,0,0.1,0,0.2,0.1c0,0.1,0,0.1,0,0.1s0,0.1-0.1,0.1L3,11.8C2.9,11.8,2.9,11.8,2.9,11.8z"/>
			</g>
			<g>
				<path class="st1" d="M13.6,12.2h-0.1L3,4.4C2.9,4.3,2.9,4.2,3,4.1h0.1h0.1l10.4,7.7l0.1,0.1c0,0.1,0,0.1,0,0.1
					C13.7,12.2,13.6,12.2,13.6,12.2z"/>
			</g>
			<g>
				<path class="st1" d="M16.6,18.5H9.4c-0.1,0-0.2-0.1-0.2-0.2s0.1-0.2,0.2-0.2h7.2c0.1,0,0.2,0.1,0.2,0.2S16.7,18.5,16.6,18.5z"/>
			</g>
			<g>
				<path class="st1" d="M8.3,12.7c-0.6,0-1.2-0.1-1.8-0.4c-0.5-0.2-1-0.6-1.5-1c-0.4-0.4-0.8-0.9-1-1.5C3.9,9.3,3.8,8.7,3.8,8.1
					c0-1,0.3-1.9,0.8-2.6c0.3-0.4,0.6-0.7,0.9-1S6.3,4,6.7,3.8h0.1c0.1,0,0.1,0.1,0.2,0.1C7,4,7,4.1,6.9,4.2
					C5.2,4.8,4.1,6.4,4.1,8.1c0,1.1,0.4,2.2,1.2,3s1.9,1.2,3,1.2s2.2-0.5,3-1.2c0.8-0.8,1.2-1.9,1.2-3C12.5,6,11,4.3,9,4
					C8.9,4,8.8,3.9,8.8,3.8l0,0c0-0.1,0.1-0.2,0.2-0.2l0,0c1.1,0.2,2.1,0.7,2.8,1.5c0.3,0.4,0.6,0.9,0.8,1.4s0.3,1.1,0.3,1.6
					c0,0.6-0.1,1.2-0.4,1.8c-0.2,0.5-0.6,1-1,1.5c-0.4,0.4-0.9,0.8-1.5,1C9.6,12.6,9,12.7,8.3,12.7z M7.9,3.9
					c-0.1,0-0.2-0.1-0.2-0.2c0-0.1,0.1-0.2,0.2-0.2s0.2,0.1,0.2,0.2C8.1,3.8,8,3.9,7.9,3.9L7.9,3.9z"/>
			</g>
			<g>
				<path class="st1" d="M7.4,18.5H0.1c-0.1,0-0.2-0.1-0.2-0.2s0.1-0.2,0.2-0.2h7.2c0.1,0,0.2,0.1,0.2,0.2S7.5,18.5,7.4,18.5z"/>
			</g>
			<g>
				<path class="st0" d="M8.3,19.4L8.3,19.4c-0.3,0-0.6-0.1-0.8-0.3c-0.2-0.2-0.3-0.5-0.3-0.8c0-0.2,0-0.4,0.1-0.5s0.2-0.3,0.3-0.4
					c0.2-0.2,0.5-0.3,0.7-0.3l0,0c0.3,0,0.6,0.1,0.8,0.3c0.2,0.2,0.3,0.5,0.3,0.8c0,0.1,0,0.1,0,0.1C9.4,19,8.9,19.4,8.3,19.4z
					 M8.3,17.5c-0.2,0-0.3,0.1-0.5,0.2s-0.3,0.4-0.3,0.6c0,0.4,0.4,0.8,0.8,0.8l0,0c0.4,0,0.7-0.3,0.8-0.7v-0.1
					C9.1,17.8,8.8,17.5,8.3,17.5L8.3,17.5z"/>
			</g>
		</g>
	</g>
</g>
</svg>
