<?xml version="1.0" encoding="utf-8"?>
<!-- Generator: Adobe Illustrator 25.2.1, SVG Export Plug-In . SVG Version: 6.00 Build 0)  -->
<svg version="1.1" id="Layer_1" xmlns="http://www.w3.org/2000/svg" xmlns:xlink="http://www.w3.org/1999/xlink" x="0px" y="0px"
	 viewBox="0 0 18.2 20" style="enable-background:new 0 0 18.2 20;" xml:space="preserve">
<style type="text/css">
	.st0{fill:#B0B1B1;}
	.st1{fill:#010101;}
</style>
<g>
	<path class="st0" d="M5.1,8.1c0.3-0.2,0.5-0.3,0.8-0.5s0.5-0.3,0.7-0.4c0.5-0.3,1-0.5,1.5-0.8c1-0.5,1.9-0.9,2.8-1.3
		c0.9-0.4,1.8-0.7,2.7-0.9C14,4.1,14.5,4,14.9,3.9c0.2,0,0.4-0.1,0.6-0.1c0.2,0,0.4-0.1,0.6-0.1c-0.3,0.2-0.5,0.3-0.8,0.5
		c-0.3,0.2-0.5,0.3-0.7,0.4c-0.5,0.3-1,0.5-1.5,0.8c-1,0.5-1.9,0.9-2.8,1.3C9.4,7.1,8.5,7.4,7.6,7.6C7.2,7.8,6.8,7.9,6.3,7.9
		C6.1,8,5.9,8,5.7,8C5.5,8.1,5.3,8.1,5.1,8.1z"/>
	<path class="st1" d="M1.7,16.7c0.3-0.2,0.5-0.3,0.8-0.5s0.5-0.3,0.7-0.4c0.5-0.3,1-0.5,1.5-0.8c1-0.5,1.9-0.9,2.8-1.3
		c0.9-0.4,1.8-0.7,2.7-0.9c0.4-0.1,0.9-0.2,1.3-0.3c0.2,0,0.4-0.1,0.6-0.1c0.2,0,0.4-0.1,0.6-0.1c-0.3,0.2-0.5,0.3-0.8,0.5
		s-0.5,0.3-0.7,0.4c-0.5,0.3-1,0.5-1.5,0.8c-1,0.5-1.9,0.9-2.8,1.3c-0.8,0.4-1.7,0.7-2.6,0.9c-0.4,0.1-0.9,0.2-1.3,0.3
		c-0.2,0-0.4,0.1-0.6,0.1C2.1,16.7,2,16.7,1.7,16.7z"/>
	<path class="st1" d="M0,13.5c0.4-0.2,0.8-0.5,1.2-0.7s0.8-0.4,1.2-0.6c0.4-0.2,0.8-0.4,1.2-0.6s0.8-0.4,1.2-0.6
		c1.6-0.7,3.1-1.4,4.6-2s3-1.1,4.5-1.6c0.4-0.1,0.7-0.2,1.1-0.3c0.1,0,0.3-0.1,0.5-0.1L16,6.8c0.4-0.1,0.7-0.2,1.1-0.3
		c0.3-0.1,0.7-0.2,1.1-0.2C17.8,6.5,17.4,6.8,17,7c-0.4,0.2-0.8,0.4-1.2,0.6l-0.6,0.2C15,7.9,14.8,8,14.6,8.1
		c-0.4,0.2-0.8,0.4-1.2,0.6c-1.6,0.7-3.1,1.4-4.6,2s-3,1.2-4.5,1.6c-0.4,0.1-0.7,0.2-1.1,0.3S2.5,12.9,2.1,13S1.4,13.2,1,13.3
		C0.7,13.4,0.3,13.4,0,13.5z"/>
</g>
</svg>
