<?xml version="1.0" encoding="utf-8"?>
<!-- Generator: Adobe Illustrator 25.2.1, SVG Export Plug-In . SVG Version: 6.00 Build 0)  -->
<svg version="1.1" id="Layer_1" xmlns="http://www.w3.org/2000/svg" xmlns:xlink="http://www.w3.org/1999/xlink" x="0px" y="0px"
	 viewBox="0 0 18.6 20" style="enable-background:new 0 0 18.6 20;" xml:space="preserve">
<style type="text/css">
	.st0{fill:#B0B1B2;}
	.st1{fill:#010101;}
</style>
<g>
	<path class="st0" d="M8.6,5.9C8.6,6,8.7,6,8.8,6l0,0C9,6,9.2,5.8,9.2,5.6c0-0.1,0-0.1,0-0.1c0-0.2,0-0.2,0.2-0.4
		C9.5,5,9.7,4.8,9.9,4.6c0.4-0.7,0.3-1.3-0.3-2.5C9.5,2,9.3,1.9,9.2,1.9c-0.3,0-0.4,0.2-0.4,0.3c0,0.5-0.2,0.7-0.4,0.9
		c-0.2,0.2-0.5,0.5-0.5,1C7.8,5.2,8.5,5.9,8.6,5.9z M8.2,4.2c0-0.4,0.2-0.6,0.5-0.8C9,3.1,9.2,2.9,9.2,2.2l0,0l0,0
		c0.6,1.1,0.6,1.6,0.3,2.2C9.4,4.6,9.2,4.7,9.1,4.9C8.9,5,8.7,5.2,8.8,5.6v0.1l0,0l0,0l0,0C8.7,5.6,8.1,5.1,8.2,4.2z"/>
	<path class="st1" d="M18.5,13.5c0-0.1-0.1-0.1-0.2-0.1h-5.8c0.3-0.8,0.5-1.6,0.4-2.4c-0.1-0.8-0.5-1.5-0.8-2.2
		c-0.6-1.2-1.2-2.3-0.3-3.3c0.1-0.1,0.1-0.2,0-0.3c-0.1-0.1-0.2-0.1-0.3,0c-1.8,1.6-2.3,3.1-1.9,5.2c0.2,0.8,0,1,0,1l0,0
		c0,0-0.1,0-0.2-0.1c-0.1-0.2-0.3-0.5-0.3-1C9.3,9,8.3,8.5,7.7,8.1C7.6,8.1,7.4,8,7.4,7.9s-0.2,0-0.3,0C7,8,7,8.1,7.1,8.2
		c0,0,0.9,1.1,0.3,2.2c-0.4,0.8-0.7,1.9-0.4,3H6.9H4.5c-0.1,0-0.1,0-0.1,0.1l-4.3,4.2C0,17.8,0,17.8,0,17.9S0.1,18,0.2,18h14.6
		c0.1,0,0.1,0,0.1-0.1l3.7-4.2C18.6,13.7,18.6,13.6,18.5,13.5z M7.7,10.7C8.1,9.9,8,9.2,7.8,8.6c0.6,0.3,1.1,0.7,1,1.6
		c-0.1,0.5,0.1,1,0.4,1.3c0.3,0.3,0.6,0.3,0.8,0.1c0.2-0.3,0.2-0.7,0.1-1.4C9.8,8.6,10,7.4,11,6.2c-0.1,0.9,0.3,1.8,0.8,2.6
		c0.3,0.7,0.7,1.4,0.8,2.1c0.1,1.2-0.3,2.5-1,3.3c-0.6,0.7-1.5,1-2.4,0.8c-0.8-0.2-1.4-0.6-1.7-1.3C7,12.8,7.2,11.5,7.7,10.7z
		 M14.6,17.7h-14l3.9-3.8h2.3c0.1,0,0.1,0,0.2-0.1c0,0.1,0.1,0.1,0.1,0.2c0.3,0.8,1,1.3,1.9,1.5c0.3,0.1,0.5,0.1,0.7,0.1
		c0.8,0,1.5-0.3,2.1-1c0.2-0.2,0.4-0.5,0.6-0.8c0,0.1,0.1,0.1,0.2,0.1H18L14.6,17.7z"/>
</g>
</svg>
