<?xml version="1.0" encoding="utf-8"?>
<!-- Generator: Adobe Illustrator 23.0.2, SVG Export Plug-In . SVG Version: 6.00 Build 0)  -->
<svg version="1.1" id="Layer_1" xmlns="http://www.w3.org/2000/svg" xmlns:xlink="http://www.w3.org/1999/xlink" x="0px" y="0px"
	 viewBox="0 0 20 20" style="enable-background:new 0 0 20 20;" xml:space="preserve">
<style type="text/css">
	.st0{fill:#090909;}
	.st1{fill:#C7C6C5;}
	.st2{fill:#FFFFFF;}
	.st3{fill:#020202;}
	.st4{fill:#BABABA;}
	.st5{fill:#010101;}
	.st6{fill:#B0B1B1;}
	.st7{fill:#B0B0B1;}
	.st8{fill:none;}
	.st9{fill:#B0B1B2;}
	.st10{fill:#070707;}
	.st11{fill:#B3B3B3;}
	.st12{fill:none;stroke:#010101;stroke-width:0.5;stroke-miterlimit:10;}
	.st13{fill:none;stroke:#FFFFFF;stroke-width:0.5;stroke-miterlimit:10;}
	.st14{fill:#353535;}
	.st15{fill:#F2F2F3;}
	.st16{fill:#EDEDED;}
</style>
<g>
	<path class="st15" d="M17,17.6c0,0,0,0.1,0,0.1c0,0.1,0,0.1-0.1,0.1c0,0-0.1,0-0.1,0c-0.2-0.1-0.5-0.1-0.7-0.2
		c-0.3-0.1-0.5-0.1-0.8-0.2c-0.1,0-0.2-0.1-0.2-0.1c-0.3-0.4-0.7-0.8-1-1.2c-0.3-0.4-0.7-0.9-1-1.3c-0.3-0.4-0.7-0.8-1-1.2
		c-0.2-0.3-0.4-0.5-0.6-0.8c0,0,0,0,0,0c0,0,0-0.1,0-0.1c0,0,0-0.1,0-0.1c0.3-0.7,0.7-1.3,1-2c0.2-0.4,0.4-0.8,0.6-1.2
		c0.1-0.2,0.1-0.2,0.3-0.3C13.5,9,13.5,9,13.6,9.1c0.3,0.6,0.5,1.2,0.8,1.8c0.3,0.6,0.5,1.2,0.8,1.8c0.3,0.6,0.5,1.2,0.8,1.7
		c0.3,0.6,0.5,1.2,0.8,1.7c0.1,0.2,0.2,0.4,0.3,0.6c0.1,0.1,0.1,0.3,0.1,0.4C17,17.3,17,17.5,17,17.6z M14.3,15.4L14.3,15.4
		C14.3,15.4,14.4,15.5,14.3,15.4c0.2,0.3,0.4,0.4,0.6,0.6c0.3,0.3,0.6,0.6,0.9,0.9c0.2,0.2,0.4,0.4,0.5,0.6c0.1,0.1,0.1,0.1,0.3,0.2
		c0.1,0,0.2,0,0.2,0c0,0,0,0,0-0.1c0,0,0-0.1-0.1-0.1c-0.3-0.5-0.6-1-0.9-1.6c0-0.1-0.1-0.1-0.2-0.2c0,0,0,0-0.1,0
		c-0.3-0.1-0.6-0.2-0.8-0.2C14.6,15.5,14.5,15.4,14.3,15.4z M15.1,14.6L15.1,14.6c0-0.1-0.1-0.1-0.1-0.2c-0.3-0.6-0.6-1.1-1-1.7
		c-0.1-0.1-0.1-0.2-0.2-0.3c0-0.1-0.1-0.1-0.1-0.1c-0.1,0-0.3,0-0.4,0.1c-0.1,0-0.2,0-0.3,0c-0.2,0-0.4,0.1-0.5,0.1c0,0,0,0-0.1,0
		c0.1,0.1,0.2,0.1,0.3,0.2c0.1,0.1,0.2,0.1,0.2,0.2c0,0,0,0-0.1,0c-0.1,0-0.1-0.1-0.2-0.1c-0.1-0.1-0.2-0.2-0.3-0.2c0,0-0.1,0-0.2,0
		c-0.2,0-0.3,0.1-0.5,0.1c0,0-0.1,0-0.1,0c0,0,0,0,0,0c0,0.1,0.1,0.1,0.1,0.2c0.2,0.3,0.5,0.5,0.7,0.8c0.1,0.1,0.2,0.2,0.3,0.4
		c0.2,0.2,0.3,0.3,0.5,0.5c0.2,0.2,0.5,0.5,0.7,0.7c0,0,0.1,0.1,0.1,0.1c0.5,0.1,0.9,0.3,1.4,0.4c0,0,0,0,0.1,0c0,0,0-0.1,0-0.1
		c-0.1-0.3-0.3-0.5-0.4-0.8C15.2,14.8,15.2,14.7,15.1,14.6c-0.5-0.3-1-0.7-1.5-1.1c0,0-0.1-0.1-0.1-0.1c0,0,0,0,0,0
		c0,0,0.1,0,0.1,0.1c0.5,0.4,0.9,0.7,1.4,1.1C15,14.5,15.1,14.6,15.1,14.6z M16.9,17.5C16.9,17.5,16.9,17.5,16.9,17.5
		c0-0.2,0-0.3,0-0.4c0-0.1,0-0.2-0.1-0.3c-0.2-0.4-0.3-0.8-0.5-1.2c-0.2-0.6-0.5-1.1-0.7-1.7c-0.3-0.8-0.7-1.6-1-2.4
		c-0.2-0.5-0.4-1-0.7-1.5c-0.1-0.2-0.2-0.4-0.3-0.6c0,0,0,0,0,0c0,0.1,0,0.2,0,0.4c0.1,0.8,0.2,1.6,0.3,2.4c0,0.1,0,0.2,0.1,0.2
		c0.1,0.2,0.2,0.4,0.3,0.7c0.7,1.3,1.5,2.6,2.2,3.9C16.7,17.1,16.8,17.3,16.9,17.5C16.9,17.5,16.9,17.5,16.9,17.5z M13.5,9.1
		c-0.1,0-0.2,0.1-0.2,0.2c0,0.1-0.1,0.2-0.2,0.3c-0.2,0.3-0.3,0.6-0.5,1c0,0.1-0.1,0.1,0,0.2c0.1,0.5,0.2,1,0.3,1.5c0,0,0,0.1,0,0.1
		c0,0,0,0,0.1,0c0,0,0,0,0.1,0c0.3,0,0.5-0.1,0.8-0.1c0.1,0,0.1,0,0.1-0.2c0,0,0,0,0,0c0-0.2,0-0.3,0-0.5c0-0.3-0.1-0.7-0.1-1
		c-0.1-0.4-0.1-0.9-0.2-1.3C13.5,9.2,13.5,9.1,13.5,9.1z M16.3,17.6c0-0.1,0-0.1-0.1-0.1c-0.2-0.3-0.5-0.5-0.7-0.7
		c-0.2-0.2-0.4-0.4-0.6-0.6c-0.2-0.2-0.4-0.4-0.6-0.6c-0.3-0.3-0.6-0.6-0.9-0.9c-0.2-0.2-0.4-0.4-0.6-0.6c-0.3-0.3-0.6-0.6-0.9-0.9
		c-0.1-0.1-0.2-0.2-0.3-0.3c0,0,0,0-0.1,0c0,0,0,0,0,0c0,0,0.1,0.1,0.1,0.1c0.1,0.2,0.2,0.3,0.4,0.5c0.3,0.4,0.7,0.9,1,1.3
		c0.3,0.4,0.6,0.7,0.9,1.1c0.1,0.2,0.3,0.3,0.4,0.5c0.3,0.3,0.5,0.7,0.8,1c0.1,0.1,0.1,0.1,0.2,0.1c0.2,0.1,0.4,0.1,0.6,0.2
		C16.1,17.5,16.2,17.5,16.3,17.6z M12.4,10.8C12.4,10.8,12.4,10.9,12.4,10.8c-0.3,0.5-0.4,0.8-0.6,1.2c-0.1,0.2-0.2,0.3-0.2,0.5
		c0,0,0,0.1,0,0.1c0,0,0.1,0,0.1,0c0.3-0.1,0.6-0.1,0.9-0.2c0,0,0,0,0.1,0c0.1,0,0.1,0,0.1-0.1c0,0,0,0,0,0
		C12.6,11.8,12.6,11.4,12.4,10.8C12.5,10.9,12.5,10.8,12.4,10.8z"/>
	<path class="st15" d="M15.1,14.6C15.1,14.6,15.1,14.6,15.1,14.6C15.1,14.6,15.1,14.6,15.1,14.6z"/>
	<path class="st15" d="M14.3,15.4L14.3,15.4C14.3,15.4,14.3,15.4,14.3,15.4z"/>
</g>
<g>
	<path class="st15" d="M6.7,14C6.8,14,6.8,14,6.7,14c0.5,0.6,1,1.2,1.5,1.8C8.4,16,8.4,16,8.4,16.2c0,0.3,0,0.6,0.1,0.9
		c0,0.2,0,0.3,0,0.5c0,0,0,0,0,0.1c0,0,0,0.1,0,0.1c0,0-0.1,0-0.1,0.1c-0.5,0.3-1,0.6-1.4,0.9c0,0,0,0-0.1,0c-0.1,0-0.1,0.1-0.2,0
		c-0.4-0.1-0.8-0.2-1.3-0.3c-0.1,0-0.2,0-0.4-0.1c0,0-0.1,0-0.1,0c0,0-0.1,0-0.1-0.1c0-0.1,0-0.2-0.1-0.4c-0.1-0.4-0.1-0.8-0.2-1.2
		c0-0.1,0-0.1,0-0.2C4.8,16.3,5,16,5.2,15.8c0.4-0.5,0.8-0.9,1.1-1.4C6.4,14.3,6.5,14.2,6.7,14C6.7,14,6.7,14,6.7,14z M7,14.4
		L7,14.4c0,0,0,0.1,0.1,0.1c0.2,0.3,0.4,0.7,0.6,1c0.2,0.4,0.4,0.7,0.6,1.1c0,0,0.1,0.1,0.1,0.1c0,0,0,0,0,0c0,0,0,0,0,0
		c0,0,0-0.1,0-0.1c0-0.1,0-0.1,0-0.2c0-0.1,0-0.2,0-0.3c0-0.1,0-0.1-0.1-0.1c0,0,0,0-0.1-0.1c-0.4-0.4-0.7-0.9-1.1-1.3
		C7.1,14.5,7,14.4,7,14.4z M6.7,18.3C6.7,18.3,6.7,18.3,6.7,18.3c0-0.1,0-0.1,0-0.2c0-0.1,0-0.2-0.1-0.3c-0.1-0.2-0.2-0.5-0.4-0.7
		c0-0.1-0.1-0.1-0.2-0.1c-0.2-0.1-0.5-0.1-0.7-0.2c-0.1,0-0.1,0-0.2,0.1c-0.1,0.2-0.3,0.3-0.4,0.5c0,0,0,0.1,0,0.2
		c0,0.2,0.1,0.4,0.1,0.6c0,0.1,0.1,0.1,0.2,0.2c0,0,0,0,0,0c0.4,0.1,0.9,0.2,1.3,0.3c0.1,0,0.1,0,0.2,0c0.1,0,0.1,0,0.1-0.1
		C6.7,18.5,6.7,18.4,6.7,18.3z M8.3,16.8C8.3,16.8,8.2,16.8,8.3,16.8c-0.2-0.3-0.3-0.6-0.4-0.8c-0.2-0.4-0.5-0.8-0.7-1.2
		c-0.1-0.2-0.2-0.3-0.3-0.5c0,0,0-0.1-0.1,0c0,0.1,0,0.1,0,0.2c0,0.4,0,0.8,0,1.2c0,0.4,0,0.8,0,1.2c0,0.1,0,0.1,0,0.2
		c0,0.1,0,0.1,0.1,0.1c0.1,0,0.1,0,0.2,0c0.3,0,0.6-0.1,0.9-0.2C8,16.9,8.2,16.9,8.3,16.8z M6.6,17.1C6.7,17,6.7,17,6.6,17.1
		c0-0.2,0.1-0.3,0.1-0.4c0-0.7,0-1.4,0-2.2c0,0,0-0.1,0-0.1c0,0,0,0,0,0.1c-0.2,0.6-0.4,1.1-0.5,1.7C6,16.4,6,16.6,5.9,16.7
		c0,0,0,0.1,0,0.1c0,0,0,0.1,0,0.1c0,0,0,0,0.1,0C6.2,17,6.4,17,6.6,17.1C6.6,17.1,6.6,17.1,6.6,17.1z M6,16.4
		C6,16.2,6.4,15,6.6,14.3c0,0,0-0.1,0-0.1c-0.1,0-0.1,0.1-0.1,0.1c-0.2,0.3-0.4,0.5-0.6,0.8c-0.2,0.2-0.3,0.4-0.5,0.6
		c0,0.1,0,0.1,0,0.1C5.6,15.9,5.7,16.2,6,16.4C5.9,16.4,5.9,16.4,6,16.4z M8,17.9c0-0.1,0-0.1-0.1-0.1c-0.1-0.1-0.2-0.3-0.3-0.4
		c-0.1-0.1-0.1-0.2-0.2-0.2c-0.1-0.1-0.1-0.1-0.2-0.1c-0.1,0-0.2,0-0.2,0c0,0-0.1,0-0.1,0c0,0-0.1,0-0.1,0.1c0,0,0,0.1,0,0.1
		c0,0.1,0,0.3,0,0.4c0,0,0,0.1,0,0.1c0,0,0,0.1,0,0.1c0,0,0,0,0.1,0C7,18,7.2,18.1,7.4,18.1c0,0,0.1,0,0.1,0c0.1,0,0.1,0,0.2,0
		C7.7,18.1,7.8,18,8,17.9C7.9,17.9,7.9,17.9,8,17.9z M4.7,16.6C4.7,16.6,4.7,16.6,4.7,16.6c0.4,0.1,0.7,0.2,1,0.3c0,0,0.1,0,0.1,0
		c0,0,0,0,0-0.1c0-0.1,0-0.1,0.1-0.2c0-0.1,0-0.1,0-0.2c-0.2-0.2-0.3-0.4-0.5-0.6c0,0,0,0-0.1,0c-0.1,0.1-0.3,0.3-0.6,0.7
		C4.7,16.5,4.7,16.5,4.7,16.6z M8,17.9c0.1-0.1,0.2-0.1,0.3-0.2c0,0,0-0.1,0-0.1c0-0.2,0-0.3,0-0.5c0,0,0-0.1,0-0.1c0,0-0.1,0-0.1,0
		c-0.4,0-0.7,0.1-0.8,0.1c0,0,0,0.1,0,0.1C7.6,17.4,7.8,17.6,8,17.9z M6.8,18C6.8,18,6.8,18.1,6.8,18c0,0.2,0,0.4,0,0.5c0,0,0,0,0,0
		c0,0,0.1,0,0.1,0c0.2-0.1,0.4-0.2,0.5-0.3c0,0,0,0,0,0c0,0,0,0,0,0C7.2,18.1,7,18.1,6.8,18C6.8,18,6.8,18,6.8,18z M4.6,16.7
		c0,0,0,0.1,0,0.1c0,0.2,0.1,0.3,0.1,0.5c0,0,0,0,0,0c0,0,0,0,0,0c0,0,0,0,0,0C4.9,17.2,5,17,5.2,16.9c0,0,0,0,0-0.1
		C5,16.7,4.8,16.7,4.6,16.7z M6.3,17.1C6.3,17.1,6.3,17.2,6.3,17.1c0.1,0.3,0.2,0.5,0.4,0.7c0,0,0,0,0,0c0-0.2,0-0.4,0-0.5
		c0,0,0,0,0-0.1C6.5,17.1,6.4,17.1,6.3,17.1C6.3,17.1,6.3,17.1,6.3,17.1z"/>
	<path class="st15" d="M7,14.4C7,14.4,7,14.4,7,14.4C7,14.4,7,14.4,7,14.4z"/>
</g>
<g>
	<path class="st15" d="M9.2,9.8c0.2-0.1,0.4-0.1,0.5-0.2c0,0,0,0,0.1,0c0.1,0,0.1,0,0.1,0.1c0,0.5,0.1,1.1,0.1,1.6c0,0,0,0.1,0,0.1
		c0,0.1,0,0.1-0.1,0.2c0,0-0.1,0.1-0.1,0.1c-0.2,0.2-0.4,0.4-0.6,0.7c-0.1,0.1-0.3,0.3-0.4,0.4C8.8,12.9,8.7,13,8.7,13
		c-0.1,0.1-0.1,0.1-0.2,0.2c-0.1,0-0.2,0.1-0.3,0.1c-0.1,0-0.1,0-0.1,0c-0.1,0-0.1-0.1-0.2-0.1c-0.1-0.1-0.3-0.2-0.4-0.3
		c-0.1-0.1-0.1-0.1-0.1-0.2c0-0.2,0.1-0.3,0.1-0.5c0.2-0.4,0.3-0.8,0.5-1.3c0.1-0.2,0.1-0.3,0.2-0.5c0-0.1,0.1-0.1,0.1-0.1
		c0,0,0,0,0,0C8.6,10.1,8.9,9.9,9.2,9.8z M7.5,12.4C7.5,12.4,7.5,12.4,7.5,12.4C7.5,12.3,7.5,12.3,7.5,12.4c0-0.1,0.1-0.1,0.1-0.2
		c0.1-0.3,0.3-0.6,0.4-1C8,11.2,8,11.1,8.1,11c0-0.1,0-0.2,0-0.2c0,0,0,0,0-0.1l0,0c0,0,0,0,0,0.1C8,10.8,8,10.8,8,10.9
		c0,0.1-0.1,0.3-0.1,0.4c-0.1,0.3-0.2,0.6-0.4,0.9C7.5,12.2,7.5,12.3,7.5,12.4C7.5,12.3,7.5,12.3,7.5,12.4
		C7.5,12.4,7.5,12.4,7.5,12.4C7.5,12.4,7.5,12.4,7.5,12.4z M9.9,9.9L9.9,9.9c0,0,0,0.1,0,0.1c-0.1,0.2-0.1,0.4-0.2,0.7
		c0,0.1,0,0.2-0.1,0.2c0,0,0,0.1,0,0.1c0,0.1,0,0.2,0.1,0.3c0.1,0.2,0.1,0.2,0.2,0.1c0,0,0.1,0,0.1-0.1c0,0,0,0,0-0.1
		c0-0.4-0.1-0.8-0.1-1.2C9.9,10,9.9,10,9.9,9.9z M9.8,9.8C9.8,9.8,9.7,9.8,9.8,9.8c-0.3,0.2-0.5,0.3-0.6,0.4
		c-0.3,0.2-0.6,0.5-0.9,0.7c0,0,0,0,0,0.1c0.1,0,1,0.5,1.1,0.6c0,0,0,0,0,0c0,0,0-0.1,0.1-0.1c0-0.2,0.1-0.4,0.1-0.6
		c0.1-0.3,0.2-0.6,0.2-1C9.8,9.9,9.8,9.8,9.8,9.8z M8.1,13.2c0.1-0.1,0.1-0.1,0.2-0.3c0-0.1,0-0.2,0-0.4c0-0.1,0-0.1,0-0.2
		c0-0.1,0-0.1-0.1-0.2C8.1,12,8,11.9,7.9,11.7c0,0,0,0-0.1,0c0,0,0,0,0,0.1c0,0.1-0.1,0.2-0.1,0.3c-0.1,0.2-0.1,0.3-0.2,0.5
		c0,0,0,0.1,0,0.1C7.6,12.9,7.8,13,8.1,13.2C8,13.2,8.1,13.2,8.1,13.2z M8.8,11.4C8.7,11.4,8.7,11.5,8.8,11.4
		c-0.2,0.3-0.2,0.5-0.3,0.7c0,0.1,0,0.1,0,0.2c0,0.2,0,0.4-0.1,0.6c0,0,0,0,0,0c0,0,0.1-0.1,0.1-0.1c0.3-0.4,0.6-0.7,0.9-1.1
		c0,0,0,0,0-0.1C9.2,11.6,8.9,11.4,8.8,11.4z M8.7,11.3C8.7,11.3,8.6,11.3,8.7,11.3c-0.2-0.1-0.3-0.2-0.4-0.3c0,0,0,0-0.1,0
		c0,0-0.1,0-0.1,0c0,0,0,0,0,0C8,11.3,8,11.4,7.9,11.5c0,0.1,0,0.1,0,0.1C8,11.8,8.2,12,8.3,12.1c0,0,0,0,0.1,0
		C8.5,11.9,8.6,11.7,8.7,11.3C8.7,11.4,8.7,11.4,8.7,11.3z M9.9,11.6C9.8,11.5,9.8,11.6,9.9,11.6c-0.2,0-0.2,0.1-0.3,0.1
		c-0.1,0-0.1,0.1-0.2,0.1C9.2,12,9,12.3,8.8,12.5c-0.1,0.2-0.3,0.4-0.4,0.5c0,0,0,0,0,0.1c0,0,0,0,0,0c0.1,0,0.2-0.1,0.3-0.2
		c0,0,0,0,0.1-0.1c0.2-0.2,0.4-0.4,0.6-0.6c0.1-0.1,0.2-0.2,0.4-0.4C9.7,11.8,9.8,11.7,9.9,11.6C9.9,11.6,9.9,11.6,9.9,11.6z
		 M9.6,9.8C9.6,9.8,9.6,9.8,9.6,9.8c0,0-0.1,0-0.1,0C9.2,9.9,8.9,10,8.7,10.1c-0.1,0-0.2,0.1-0.4,0.1c-0.1,0-0.1,0.1-0.1,0.2
		c0,0.1,0,0.3,0,0.4c0,0,0,0,0,0.1c0,0,0,0,0.1,0c0.2-0.2,0.4-0.3,0.6-0.5c0.2-0.2,0.4-0.3,0.6-0.4C9.5,9.9,9.5,9.9,9.6,9.8z
		 M9.6,11.2c0,0,0,0.1,0,0.1c0,0,0,0.1,0,0.1c0,0,0,0.1,0,0.1c0.2,0,0.2,0,0.1-0.2C9.6,11.3,9.6,11.3,9.6,11.2
		C9.6,11.2,9.6,11.2,9.6,11.2z"/>
	<path class="st15" d="M8.1,10.7C8.1,10.7,8.1,10.7,8.1,10.7L8.1,10.7C8.1,10.7,8.1,10.7,8.1,10.7C8.1,10.7,8.1,10.7,8.1,10.7z"/>
	<path class="st15" d="M8.1,10.7C8.1,10.7,8.1,10.7,8.1,10.7C8.1,10.7,8.1,10.7,8.1,10.7z"/>
	<path class="st15" d="M7.5,12.3C7.5,12.3,7.5,12.3,7.5,12.3L7.5,12.3C7.5,12.3,7.5,12.3,7.5,12.3L7.5,12.3z"/>
	<path class="st15" d="M7.5,12.4L7.5,12.4C7.5,12.4,7.5,12.4,7.5,12.4z"/>
	<path class="st15" d="M9.9,9.9C9.9,9.9,9.9,9.9,9.9,9.9C9.9,9.9,9.9,9.9,9.9,9.9z"/>
	<path class="st15" d="M7.5,12.3C7.5,12.4,7.5,12.4,7.5,12.3C7.5,12.4,7.5,12.4,7.5,12.3C7.5,12.4,7.5,12.4,7.5,12.3L7.5,12.3z"/>
</g>
<g>
	<path class="st15" d="M3.3,11.7C3.3,11.7,3.4,11.7,3.3,11.7c0.4,0.1,0.7,0.1,1,0.2c0.3,0.1,0.7,0.2,1,0.2c0.1,0,0.3,0.1,0.4,0.1
		c0,0,0.1,0,0.1,0c0,0,0.1,0,0.1,0.1c0,0.1,0.1,0.1,0.1,0.2c0,0,0,0.1,0,0.1c-0.1,0.2-0.2,0.4-0.4,0.5c-0.1,0.1-0.1,0.2-0.2,0.3
		c0,0.1-0.1,0.1-0.2,0.1c-0.2,0.1-0.5,0.1-0.7,0.2c-0.6,0.1-1.2,0.3-1.8,0.4c-0.1,0-0.2,0-0.3-0.1C2.3,14,2.1,13.8,2,13.7
		c0,0,0,0-0.1-0.1c0,0,0,0,0-0.1c0,0,0-0.1,0-0.1c0.1-0.3,0.3-0.6,0.5-0.9c0-0.1,0.1-0.1,0.1-0.2c0.1-0.1,0.3-0.2,0.4-0.3
		C3.1,12,3.1,12,3.2,11.9C3.2,11.8,3.2,11.8,3.3,11.7C3.2,11.7,3.3,11.7,3.3,11.7z M2.7,12.4C2.7,12.4,2.7,12.4,2.7,12.4
		c0.2-0.1,0.4-0.2,0.6-0.2c0,0,0,0,0,0c0,0-0.1,0-0.1-0.1c0,0-0.1,0-0.1,0c0,0-0.1,0-0.1,0.1C2.9,12.2,2.8,12.3,2.7,12.4L2.7,12.4z
		 M2.1,13.5C2.1,13.5,2.1,13.5,2.1,13.5c0.3,0,0.5,0,0.7,0c0.3,0,0.5,0,0.8,0c0.2,0,0.2,0,0.1-0.2c-0.1-0.3-0.2-0.7-0.2-1
		c0,0,0-0.1,0-0.1c0,0,0-0.1-0.1,0c-0.1,0-0.1,0.1-0.2,0.1c-0.2,0.1-0.4,0.2-0.6,0.2c0,0-0.1,0-0.1,0.1C2.4,12.9,2.2,13.2,2.1,13.5
		C2.1,13.5,2.1,13.5,2.1,13.5z M5.7,12.4C5.7,12.4,5.7,12.4,5.7,12.4c-0.4-0.1-0.8-0.2-1.1-0.3C4.4,12,4.2,12,4,11.9
		c-0.2,0-0.2,0-0.3,0.1c-0.1,0.1-0.1,0.1,0,0.2c0.2,0.2,0.5,0.3,0.7,0.5c0.3,0.2,0.2,0.2,0.5,0.2C5,13,5.1,13,5.3,13
		c0,0,0.1,0,0.1-0.1c0,0,0,0,0,0C5.5,12.8,5.6,12.6,5.7,12.4C5.7,12.5,5.7,12.4,5.7,12.4z M2.8,13.6c-0.2,0-0.4,0-0.6,0
		c0,0-0.1,0-0.1,0c0,0-0.1,0,0,0.1c0,0,0,0,0.1,0.1c0.1,0.1,0.1,0.1,0.2,0.2c0,0,0.1,0.1,0.1,0.1c0.1,0.1,0.1,0.1,0.2,0.1
		c0,0,0.1,0,0.1,0C3,14,3.2,14,3.5,13.9c0.5-0.1,1.1-0.3,1.6-0.4c0,0,0.1,0,0.1-0.1c0-0.1-0.1,0-0.1,0c-0.2,0-0.3,0-0.5,0
		c-0.2,0-0.5,0-0.7,0.1c-0.2,0-0.4,0.1-0.5,0C3.2,13.6,3,13.6,2.8,13.6z M4.5,13C4.5,12.9,4.5,12.9,4.5,13c-0.3-0.2-0.5-0.4-0.8-0.6
		c-0.1,0-0.1-0.1-0.2-0.1c0,0,0,0-0.1,0c0,0,0,0,0,0.1c0.1,0.3,0.2,0.7,0.2,1c0,0,0,0.1,0,0.1C4,13.4,4.4,13.1,4.5,13z M5.1,13.4
		C5.1,13.3,5,13.3,5.1,13.4c-0.2-0.2-0.3-0.2-0.4-0.3c-0.1,0-0.1,0-0.2,0c-0.1,0.1-0.2,0.1-0.3,0.2c-0.1,0-0.1,0.1-0.2,0.2
		c0,0,0,0,0,0.1C4.4,13.4,4.7,13.4,5.1,13.4z M5.8,12.5C5.8,12.5,5.8,12.5,5.8,12.5c-0.1,0.2-0.2,0.3-0.3,0.5c0,0.1-0.1,0.1-0.1,0.2
		c0,0.1-0.1,0.1-0.1,0.2c0,0,0,0.1,0,0.1c0,0,0,0,0.1,0c0.2-0.2,0.3-0.4,0.5-0.6C5.9,12.7,5.9,12.6,5.8,12.5
		C5.8,12.5,5.8,12.5,5.8,12.5z M4.8,13c0.1,0.1,0.2,0.1,0.2,0.2c0.1,0.1,0.2,0.1,0.2-0.1c0,0,0,0,0,0c-0.1,0-0.2,0-0.3-0.1
		C4.9,13,4.9,13,4.8,13C4.8,13,4.8,13,4.8,13z M3.7,11.9c-0.1,0-0.2,0-0.3-0.1c0,0,0,0,0,0c0,0.1,0.1,0.1,0.1,0.2
		C3.6,12,3.6,12,3.7,11.9z M3.3,11.8c-0.1,0-0.1,0.1-0.1,0.2c0.1,0,0.1,0.1,0.2,0.1C3.4,12,3.3,11.9,3.3,11.8z"/>
	<path class="st15" d="M2.7,12.4C2.7,12.4,2.7,12.4,2.7,12.4C2.7,12.4,2.7,12.4,2.7,12.4z"/>
</g>
<g>
	<path class="st15" d="M10.6,16.6C10.5,16.6,10.5,16.6,10.6,16.6c-0.4-0.5-0.7-0.9-1.1-1.3c-0.1-0.1-0.2-0.2-0.3-0.3
		c-0.1-0.1-0.1-0.1,0-0.2c0.1-0.2,0.3-0.4,0.4-0.5c0.2-0.2,0.3-0.4,0.5-0.7c0.1-0.1,0.1-0.1,0.2,0c0.3,0.2,0.5,0.5,0.8,0.7
		c0.1,0.1,0.1,0.1,0.1,0.2c0,0.1,0,0.2-0.1,0.2c-0.1,0.4-0.2,0.8-0.3,1.3C10.7,16.2,10.7,16.3,10.6,16.6
		C10.6,16.5,10.6,16.6,10.6,16.6z M9.4,14.9c0,0.1,0.1,0.1,0.1,0.2c0.3,0.4,0.6,0.8,0.9,1.2c0,0,0,0,0.1,0c0,0,0-0.1,0-0.1
		c0-0.3,0-0.7,0-1c0-0.1,0-0.1-0.1-0.1c0,0,0,0-0.1,0c-0.2,0-0.3,0-0.5,0C9.7,15,9.5,15,9.4,14.9z M9.4,14.8
		C9.4,14.9,9.4,14.9,9.4,14.8c0.3,0.1,0.5,0.1,0.7,0.1c0,0,0.1,0,0.1-0.1c0.1-0.1,0.1-0.2,0.2-0.2c0,0,0-0.1,0-0.2
		c0-0.2-0.1-0.5-0.1-0.7c0,0,0-0.1,0-0.1c0,0,0,0,0,0C9.9,14.1,9.6,14.4,9.4,14.8C9.4,14.8,9.4,14.8,9.4,14.8
		C9.4,14.8,9.4,14.8,9.4,14.8z M10.6,16.2C10.6,16.2,10.6,16.2,10.6,16.2c0.1-0.1,0.1-0.2,0.1-0.3c0-0.1,0.1-0.3,0.1-0.4
		c0.1-0.3,0.2-0.6,0.2-0.9c0,0,0,0,0-0.1c-0.1,0.1-0.3,0.2-0.4,0.4c-0.1,0-0.1,0.1-0.1,0.2c0,0.3,0,0.5,0,0.8
		C10.6,16,10.6,16.1,10.6,16.2z M10.5,14.9C10.5,14.8,10.5,14.8,10.5,14.9c0.2-0.1,0.3-0.3,0.5-0.4c0,0,0,0,0-0.1
		c0-0.1-0.1-0.1-0.1-0.2c-0.2-0.2-0.3-0.3-0.5-0.5c0,0,0,0-0.1,0C10.3,13.8,10.4,14.7,10.5,14.9C10.5,14.8,10.5,14.8,10.5,14.9z
		 M10.4,14.7c-0.1,0-0.1,0.1-0.1,0.2c0,0,0,0.1,0,0.1c0,0,0.1,0,0.1,0c0,0,0,0,0.1,0c0,0,0,0,0-0.1C10.4,14.8,10.4,14.7,10.4,14.7z"
		/>
</g>
<g>
	<path class="st15" d="M4.4,9.7C4.5,9.7,4.5,9.7,4.4,9.7c0.5,0.3,0.8,0.6,1.2,0.8c0,0,0,0,0,0c0.1,0,0.1,0.1,0.1,0.1
		c0,0.1,0.1,0.2,0.1,0.3c0,0.1,0,0.1-0.1,0.1c-0.1,0-0.3,0.1-0.4,0c-0.3,0-0.5-0.1-0.8-0.1c-0.1,0-0.2,0-0.3,0c-0.1,0-0.1,0-0.2-0.1
		C4.1,10.7,4,10.5,4,10.3c0,0,0-0.1,0-0.1C4,10.1,4.1,10,4.2,9.9C4.3,9.9,4.3,9.8,4.4,9.7C4.4,9.7,4.4,9.7,4.4,9.7z M5.5,11L5.5,11
		C5.5,11,5.5,11,5.5,11C5.2,11,5,10.9,4.8,10.9c-0.1,0-0.1,0-0.2,0.1c0.1,0,0.1,0,0.1,0C4.8,11,5,11,5.1,11C5.3,11,5.4,11,5.5,11z
		 M4.5,9.9c0,0,0,0.1,0,0.1c0.1,0.2,0.1,0.4,0.2,0.6c0,0,0,0,0,0.1c0,0,0,0.1,0.1,0.1c0,0,0.1,0,0.1,0c0.3,0.1,0.5,0.1,0.8,0.2
		c0,0,0.1,0,0.1,0c0,0,0,0,0-0.1c0-0.1,0-0.1-0.1-0.2c0-0.1,0-0.1-0.1-0.1C5.3,10.4,4.9,10.1,4.5,9.9C4.6,9.9,4.5,9.9,4.5,9.9z
		 M4.4,9.8C4.3,9.9,4.1,10.2,4,10.2c0,0,0,0.1,0,0.1c0,0.1,0.1,0.2,0.1,0.3c0,0.1,0.1,0.1,0.1,0.2c0,0,0.1,0.1,0.1,0
		c0,0,0.1,0,0.1,0c0.1,0,0.1,0,0.1-0.2C4.6,10.4,4.5,10.1,4.4,9.8C4.4,9.9,4.4,9.8,4.4,9.8z"/>
	<path class="st15" d="M5.5,11.1C5.5,11.1,5.5,11,5.5,11.1L5.5,11.1z"/>
</g>
<g>
	<path class="st15" d="M16.3,12.5c-0.1,0-0.1-0.1-0.1-0.1c-0.1-0.3-0.2-0.6-0.3-0.8c-0.1-0.2-0.1-0.4-0.2-0.7c0-0.1,0-0.1,0-0.2
		c0.1-0.1,0.2-0.3,0.3-0.4c0,0,0,0,0,0c0-0.1,0.1-0.1,0.1,0c0,0,0,0,0,0c0.1,0.1,0.3,0.1,0.4,0.2c0,0,0,0,0.1,0c0,0,0,0,0,0.1
		c0,0,0,0.1,0,0.1c-0.1,0.6-0.3,1.2-0.4,1.8C16.4,12.5,16.4,12.5,16.3,12.5z M16.3,12.1c0-0.1,0-0.2,0-0.3c0-0.2,0-0.3,0-0.5
		c0-0.3,0-0.6-0.1-0.8c0,0,0-0.1,0-0.1c-0.1,0.1-0.2,0.2-0.2,0.4c0,0,0,0.1,0,0.1c0,0,0,0,0,0.1c0.1,0.3,0.2,0.6,0.3,0.9
		C16.2,12,16.2,12.1,16.3,12.1L16.3,12.1z M16.7,10.6c-0.1,0-0.2-0.1-0.2-0.1c-0.1,0-0.1-0.1-0.2-0.1c0,0,0,0.1,0,0.1
		c0,0.5,0.1,1.1,0.1,1.6c0,0,0,0,0,0C16.5,11.8,16.7,10.7,16.7,10.6z"/>
</g>
<g>
	<path class="st15" d="M11.6,16.6c0-0.1,0-0.1,0.1-0.2c0.2-0.2,0.3-0.5,0.5-0.7c0,0,0.1-0.1,0.1-0.1c0,0,0.1-0.1,0.1,0
		c0.1,0.1,0.2,0.2,0.3,0.3c0,0,0,0.1,0,0.1c0,0,0,0.1,0,0.1c0,0.1,0,0.2-0.1,0.2c-0.2,0.1-0.3,0.3-0.5,0.4c-0.1,0-0.1,0.1-0.2,0
		C11.8,16.7,11.7,16.7,11.6,16.6C11.6,16.6,11.6,16.6,11.6,16.6z M11.8,16.4c0.2-0.1,0.6-0.5,0.7-0.5c-0.1-0.1-0.1-0.2-0.2-0.2
		C12.1,15.9,11.9,16.2,11.8,16.4z M11.8,16.6C11.8,16.6,11.8,16.6,11.8,16.6C11.8,16.6,11.8,16.6,11.8,16.6c0.2,0.1,0.2,0,0.3,0
		c0.1-0.1,0.3-0.2,0.4-0.3c0,0,0,0,0.1-0.1c0,0,0-0.1,0-0.2C12.4,16.1,11.9,16.5,11.8,16.6z"/>
</g>
<path class="st15" d="M7.5,15.8C7.5,15.8,7.5,15.8,7.5,15.8C7.5,15.8,7.5,15.8,7.5,15.8z"/>
<g>
	<path class="st16" d="M3.1,7C1.8,7,1.4,6.1,1.7,4.9C2,3.7,2.9,2.7,4.2,2.7s1.7,1,1.4,2.2C5.3,6.1,4.4,7,3.1,7z M4.1,7.7
		c0.4,0.2,0.7,0,0.9-0.2l0,0.1L4.4,8C3.9,8.4,3.5,8.3,2.7,7.8L2.2,7.6c-0.3-0.2-0.8,0-0.9,0.1l0-0.1c1.1-0.7,2-0.3,2-0.3L4.1,7.7z
		 M4.2,2.8c-0.7,0-1.4,0.5-1.8,2.1C2,6.5,2.4,6.9,3.1,6.9c0.7,0,1.4-0.4,1.8-2.1C5.4,3.3,4.9,2.8,4.2,2.8z"/>
	<path class="st16" d="M8.3,6.9L7.6,7c-0.2,0-0.1-0.1-0.1-0.1l0.1-0.5C7.5,6.7,7,7,6.6,7C6.2,7,5.8,6.9,6,6.1l0.4-1.3
		c0.1-0.4,0.1-0.4-0.2-0.4l0-0.1L7,4.1l-0.5,2C6.4,6.6,6.6,6.7,6.9,6.7c0.3,0,0.6-0.2,0.7-0.5l0.4-1.5c0.1-0.4,0.1-0.4-0.2-0.4
		l0-0.1l0.8-0.1L8.2,6.5C8.1,6.8,8.1,6.8,8.3,6.9L8.3,6.9z"/>
	<path class="st16" d="M11.3,6.6L11.3,6.6C11.3,6.8,11,7,10.7,7c0,0-0.5,0-0.4-0.5C10.2,6.8,9.8,7,9.4,7c0,0-0.7,0-0.5-0.6
		c0.2-0.6,0.7-0.7,1.8-1l0.1-0.3c0.2-0.6-0.1-1-0.6-0.7C9.9,4.4,9.8,4.6,9.8,4.6c0.1,0,0.1,0,0.2,0.1c0.1,0.1,0,0.3-0.2,0.4
		C9.7,5.2,9.5,5.1,9.5,5c0-0.1,0-0.2,0-0.3c0.1-0.1,0.2-0.3,0.6-0.4c0.3-0.1,0.6-0.1,0.6-0.1c0.7,0,0.7,0.5,0.5,1.2l-0.3,1
		c0,0-0.1,0.4,0.2,0.4C11.1,6.7,11.2,6.7,11.3,6.6z M9.4,6.3c0,0.2,0,0.5,0.3,0.5c0.3,0,0.5-0.2,0.6-0.4c0,0,0.2-0.9,0.2-0.9
		C9.9,5.7,9.5,5.9,9.4,6.3z"/>
	<path class="st16" d="M14.1,4.3c0.1,0.1,0,0.3-0.2,0.5c-0.2,0.1-0.4,0.1-0.5,0c0-0.1,0-0.2,0-0.2c0-0.1-0.4,0-0.7,0.4l-0.4,1.5
		c-0.1,0.3-0.1,0.4,0.1,0.5l0,0.1h-1l0-0.1c0.2-0.1,0.3-0.2,0.4-0.5l0.4-1.7c0.1-0.2,0-0.3-0.2-0.4l0-0.1L13,4.1l-0.2,0.6
		c0.3-0.4,0.7-0.6,1-0.6C13.9,4.2,14.1,4.2,14.1,4.3z"/>
	<path class="st16" d="M15.5,6.5C15.3,6.8,15,7,14.6,7c-0.4,0-0.7-0.2-0.5-0.9l0.5-1.8h-0.3l0-0.1h0.3l0.2-0.9l0.5-0.1l-0.3,0.9h0.7
		l0,0.1h-0.7l-0.5,1.8c-0.1,0.5,0,0.6,0.3,0.6C15.2,6.7,15.3,6.6,15.5,6.5L15.5,6.5z"/>
	<path class="st16" d="M16.3,6.9c0.9,0,1.3-0.3,1.6-0.8h0.1L17.6,7h-2l2.3-2.7c-0.8,0-1.3,0.1-1.6,0.7h-0.1l0.2-0.8h2L16.3,6.9z"/>
</g>
</svg>
