<?xml version="1.0" encoding="utf-8"?>
<!-- Generator: Adobe Illustrator 25.4.0, SVG Export Plug-In . SVG Version: 6.00 Build 0)  -->
<svg version="1.1" id="Layer_1" xmlns="http://www.w3.org/2000/svg" xmlns:xlink="http://www.w3.org/1999/xlink" x="0px" y="0px"
	 viewBox="0 0 800 400" style="enable-background:new 0 0 800 400;" xml:space="preserve">
<style type="text/css">
	.st0{clip-path:url(#SVGID_00000115508172503006636030000005798801827228225432_);}
</style>
<g>
	<defs>
		<rect id="SVGID_1_" width="800" height="400"/>
	</defs>
	<clipPath id="SVGID_00000020365532912396375020000002309675603039965629_">
		<use xlink:href="#SVGID_1_"  style="overflow:visible;"/>
	</clipPath>
	<g style="clip-path:url(#SVGID_00000020365532912396375020000002309675603039965629_);">
		
			<image style="overflow:visible;" width="1200" height="1000" xlink:href="../Elements/edges 6.png"  transform="matrix(0.142 0 0 0.142 594.7911 247.648)">
		</image>
		
			<image style="overflow:visible;" width="1200" height="1000" xlink:href="../Elements/edges 1.png"  transform="matrix(0.1461 0 0 0.1461 18.7104 22.2355)">
		</image>
		
			<image style="overflow:visible;" width="1200" height="1000" xlink:href="../Elements/edges 4.png"  transform="matrix(0.1461 0 0 0.1461 26.5615 237.6849)">
		</image>
		
			<image style="overflow:visible;" width="1200" height="1000" xlink:href="../Elements/edges 2.png"  transform="matrix(0.1662 0 0 0.1662 299.0258 29.2594)">
		</image>
		
			<image style="overflow:visible;" width="1200" height="1000" xlink:href="../Elements/edges 5.png"  transform="matrix(0.1399 0 0 0.1399 318.6536 257.5835)">
		</image>
		
			<image style="overflow:visible;" width="1200" height="1000" xlink:href="../Elements/edges 3.png"  transform="matrix(0.1283 0 0 0.1283 602.9587 38.9956)">
		</image>
		<g>
			<path d="M44.17,40.4V29.73h6.99v1.18H45.5v3.44h5.55v1.18H45.5v3.68h5.67v1.18H44.17z"/>
			<path d="M58.06,40.4v-0.88c-0.64,0.7-1.52,1.07-2.56,1.07c-1.31,0-2.71-0.88-2.71-2.56c0-1.73,1.39-2.54,2.71-2.54
				c1.06,0,1.94,0.34,2.56,1.06v-1.39c0-1.04-0.83-1.63-1.95-1.63c-0.93,0-1.68,0.34-2.37,1.07l-0.56-0.83
				c0.83-0.86,1.82-1.28,3.09-1.28c1.63,0,2.99,0.74,2.99,2.61v5.31H58.06z M58.06,38.77v-1.46c-0.46-0.64-1.28-0.96-2.13-0.96
				c-1.12,0-1.9,0.7-1.9,1.7c0,0.98,0.78,1.68,1.9,1.68C56.78,39.73,57.59,39.41,58.06,38.77z"/>
			<path d="M60.98,39.38l0.62-0.86c0.51,0.59,1.49,1.1,2.54,1.1c1.18,0,1.83-0.56,1.83-1.33c0-0.85-0.94-1.07-1.98-1.33
				c-1.31-0.3-2.8-0.66-2.8-2.26c0-1.2,1.04-2.23,2.88-2.23c1.31,0,2.24,0.5,2.86,1.12l-0.56,0.83c-0.46-0.56-1.31-0.98-2.3-0.98
				c-1.06,0-1.71,0.53-1.71,1.22c0,0.74,0.88,0.94,1.89,1.18c1.34,0.3,2.9,0.69,2.9,2.4c0,1.3-1.04,2.34-3.04,2.34
				C62.84,40.59,61.77,40.21,60.98,39.38z"/>
			<path d="M68.65,36.53c0-2.24,1.6-4.05,3.81-4.05c2.34,0,3.71,1.82,3.71,4.15v0.3h-6.26c0.1,1.46,1.12,2.67,2.79,2.67
				c0.88,0,1.78-0.35,2.39-0.98l0.58,0.78c-0.77,0.77-1.81,1.18-3.07,1.18C70.3,40.59,68.65,38.95,68.65,36.53z M72.44,33.47
				c-1.65,0-2.46,1.39-2.53,2.58h5.07C74.97,34.9,74.2,33.47,72.44,33.47z"/>
			<path d="M83.71,40.4v-1.15c-0.58,0.78-1.52,1.34-2.61,1.34c-2.02,0-3.44-1.54-3.44-4.05c0-2.47,1.41-4.07,3.44-4.07
				c1.04,0,1.98,0.51,2.61,1.36v-4.11h1.2V40.4H83.71z M83.71,38.31V34.8c-0.43-0.67-1.36-1.25-2.32-1.25
				c-1.55,0-2.48,1.28-2.48,2.99c0,1.71,0.93,2.98,2.48,2.98C82.35,39.52,83.27,38.98,83.71,38.31z"/>
			<path d="M91.48,40.4V29.73h6.99v1.18h-5.67v3.44h5.55v1.18h-5.55v3.68h5.67v1.18H91.48z"/>
			<path d="M106.14,40.4v-1.15c-0.58,0.78-1.52,1.34-2.61,1.34c-2.02,0-3.44-1.54-3.44-4.05c0-2.47,1.41-4.07,3.44-4.07
				c1.04,0,1.98,0.51,2.61,1.36v-4.11h1.2V40.4H106.14z M106.14,38.31V34.8c-0.43-0.67-1.36-1.25-2.32-1.25
				c-1.55,0-2.48,1.28-2.48,2.99c0,1.71,0.93,2.98,2.48,2.98C104.78,39.52,105.71,38.98,106.14,38.31z"/>
			<path d="M109.72,42.39l0.61-0.9c0.64,0.77,1.41,1.06,2.51,1.06c1.28,0,2.48-0.62,2.48-2.32v-1.1c-0.56,0.78-1.5,1.38-2.59,1.38
				c-2.02,0-3.44-1.5-3.44-4c0-2.48,1.41-4.02,3.44-4.02c1.04,0,1.97,0.51,2.59,1.36v-1.17h1.2v7.51c0,2.56-1.79,3.36-3.68,3.36
				C111.53,43.54,110.63,43.28,109.72,42.39z M115.32,38.18V34.8c-0.42-0.67-1.34-1.25-2.3-1.25c-1.55,0-2.48,1.23-2.48,2.94
				c0,1.7,0.93,2.95,2.48,2.95C113.98,39.44,114.91,38.85,115.32,38.18z"/>
			<path d="M118.47,36.53c0-2.24,1.6-4.05,3.81-4.05c2.34,0,3.71,1.82,3.71,4.15v0.3h-6.26c0.1,1.46,1.12,2.67,2.79,2.67
				c0.88,0,1.78-0.35,2.39-0.98l0.58,0.78c-0.77,0.77-1.81,1.18-3.07,1.18C120.12,40.59,118.47,38.95,118.47,36.53z M122.26,33.47
				c-1.65,0-2.46,1.39-2.53,2.58h5.07C124.79,34.9,124.02,33.47,122.26,33.47z"/>
			<path d="M51.74,60.4v-4.9H45.5v4.9h-1.33V49.73h1.33v4.59h6.24v-4.59h1.33V60.4H51.74z"/>
			<path d="M55.06,56.53c0-2.24,1.6-4.05,3.81-4.05c2.34,0,3.71,1.82,3.71,4.15v0.3h-6.26c0.1,1.46,1.12,2.67,2.79,2.67
				c0.88,0,1.78-0.35,2.39-0.98l0.58,0.78c-0.77,0.77-1.81,1.18-3.07,1.18C56.71,60.59,55.06,58.95,55.06,56.53z M58.86,53.47
				c-1.65,0-2.46,1.39-2.53,2.58h5.07C61.39,54.9,60.62,53.47,58.86,53.47z"/>
			<path d="M64.31,50.77c0-0.45,0.37-0.82,0.8-0.82c0.45,0,0.82,0.37,0.82,0.82s-0.37,0.8-0.82,0.8
				C64.68,51.57,64.31,51.22,64.31,50.77z M64.52,60.4v-7.73h1.2v7.73H64.52z"/>
			<path d="M68.1,62.39l0.61-0.9c0.64,0.77,1.41,1.06,2.51,1.06c1.28,0,2.48-0.62,2.48-2.32v-1.1c-0.56,0.78-1.5,1.38-2.59,1.38
				c-2.02,0-3.44-1.5-3.44-4c0-2.48,1.41-4.02,3.44-4.02c1.04,0,1.97,0.51,2.59,1.36v-1.17h1.2v7.51c0,2.56-1.79,3.36-3.68,3.36
				C69.91,63.54,69.02,63.28,68.1,62.39z M73.71,58.18V54.8c-0.42-0.67-1.34-1.25-2.3-1.25c-1.55,0-2.48,1.23-2.48,2.94
				c0,1.7,0.93,2.95,2.48,2.95C72.36,59.44,73.29,58.85,73.71,58.18z"/>
			<path d="M82.54,60.4v-5.09c0-1.36-0.7-1.76-1.74-1.76c-0.93,0-1.82,0.58-2.29,1.2v5.65h-1.2V49.73h1.2v4.07
				c0.54-0.64,1.6-1.31,2.77-1.31c1.62,0,2.47,0.78,2.47,2.47v5.46H82.54z"/>
			<path d="M86.38,58.79v-5.06h-1.28v-1.06h1.28v-2.11h1.2v2.11h1.57v1.06h-1.57v4.8c0,0.58,0.26,0.99,0.78,0.99
				c0.34,0,0.66-0.14,0.82-0.32l0.35,0.9c-0.3,0.29-0.74,0.5-1.44,0.5C86.95,60.59,86.38,59.94,86.38,58.79z"/>
			<path d="M96.62,60.4v-8.92L94.9,53.3l-0.8-0.82l2.67-2.75h1.17V60.4H96.62z"/>
			<path d="M105.16,56.13v-5.15l-1.06,1.1l-0.56-0.59l1.73-1.76h0.85v6.4H105.16z M105.93,60.4h-0.88l6.82-10.68h0.9L105.93,60.4z
				 M114.12,58.8v1.6h-0.94v-1.6h-3.14v-0.7l2.75-4.1h1.33v4.02h0.93v0.78H114.12z M113.18,54.85L111,58.02h2.18V54.85z"/>
			<path d="M116.93,53.81c0,0-0.43-3.28-0.43-3.51c0-0.4,0.32-0.74,0.72-0.74c0.42,0,0.74,0.34,0.74,0.74
				c0,0.22-0.43,3.51-0.43,3.51H116.93z M119.26,53.81c0,0-0.43-3.28-0.43-3.51c0-0.4,0.32-0.74,0.74-0.74
				c0.4,0,0.72,0.34,0.72,0.74c0,0.22-0.43,3.51-0.43,3.51H119.26z"/>
		</g>
		<g>
			<path d="M335.24,38.9l0.78-1.01c0.7,0.78,1.86,1.52,3.36,1.52c1.9,0,2.51-1.02,2.51-1.84c0-1.28-1.3-1.63-2.71-2.02
				c-1.71-0.45-3.62-0.93-3.62-3.02c0-1.76,1.57-2.96,3.67-2.96c1.63,0,2.9,0.54,3.79,1.49l-0.8,0.98c-0.8-0.88-1.92-1.28-3.09-1.28
				c-1.28,0-2.19,0.69-2.19,1.7c0,1.07,1.23,1.39,2.59,1.76c1.74,0.46,3.73,1.01,3.73,3.25c0,1.55-1.06,3.14-3.94,3.14
				C337.48,40.59,336.12,39.89,335.24,38.9z"/>
			<path d="M345.45,38.79v-5.06h-1.28v-1.06h1.28v-2.11h1.2v2.11h1.57v1.06h-1.57v4.8c0,0.58,0.26,0.99,0.78,0.99
				c0.34,0,0.66-0.14,0.82-0.32l0.35,0.9c-0.3,0.29-0.74,0.5-1.44,0.5C346.03,40.59,345.45,39.94,345.45,38.79z"/>
			<path d="M349.91,40.4v-7.73h1.2v1.25c0.62-0.82,1.52-1.41,2.58-1.41v1.23c-0.14-0.03-0.29-0.05-0.48-0.05
				c-0.74,0-1.75,0.61-2.1,1.23v5.47H349.91z"/>
			<path d="M360.03,40.4v-0.88c-0.64,0.7-1.52,1.07-2.56,1.07c-1.31,0-2.71-0.88-2.71-2.56c0-1.73,1.39-2.54,2.71-2.54
				c1.06,0,1.94,0.34,2.56,1.06v-1.39c0-1.04-0.83-1.63-1.95-1.63c-0.93,0-1.68,0.34-2.37,1.07l-0.56-0.83
				c0.83-0.86,1.82-1.28,3.09-1.28c1.63,0,2.99,0.74,2.99,2.61v5.31H360.03z M360.03,38.77v-1.46c-0.46-0.64-1.28-0.96-2.13-0.96
				c-1.12,0-1.9,0.7-1.9,1.7c0,0.98,0.78,1.68,1.9,1.68C358.75,39.73,359.56,39.41,360.03,38.77z"/>
			<path d="M363.42,30.77c0-0.45,0.37-0.82,0.8-0.82c0.45,0,0.82,0.37,0.82,0.82s-0.37,0.8-0.82,0.8
				C363.79,31.57,363.42,31.22,363.42,30.77z M363.63,40.4v-7.73h1.2v7.73H363.63z"/>
			<path d="M367.21,42.39l0.61-0.9c0.64,0.77,1.41,1.06,2.51,1.06c1.28,0,2.48-0.62,2.48-2.32v-1.1c-0.56,0.78-1.5,1.38-2.59,1.38
				c-2.02,0-3.44-1.5-3.44-4c0-2.48,1.41-4.02,3.44-4.02c1.04,0,1.97,0.51,2.59,1.36v-1.17h1.2v7.51c0,2.56-1.79,3.36-3.68,3.36
				C369.02,43.54,368.12,43.28,367.21,42.39z M372.81,38.18V34.8c-0.42-0.67-1.34-1.25-2.3-1.25c-1.55,0-2.48,1.23-2.48,2.94
				c0,1.7,0.93,2.95,2.48,2.95C371.47,39.44,372.4,38.85,372.81,38.18z"/>
			<path d="M381.64,40.4v-5.09c0-1.36-0.7-1.76-1.75-1.76c-0.93,0-1.82,0.58-2.29,1.2v5.65h-1.2V29.73h1.2v4.07
				c0.54-0.64,1.6-1.31,2.77-1.31c1.62,0,2.46,0.78,2.46,2.47v5.46H381.64z"/>
			<path d="M385.48,38.79v-5.06h-1.28v-1.06h1.28v-2.11h1.2v2.11h1.57v1.06h-1.57v4.8c0,0.58,0.26,0.99,0.78,0.99
				c0.34,0,0.66-0.14,0.82-0.32l0.35,0.9c-0.3,0.29-0.74,0.5-1.44,0.5C386.06,40.59,385.48,39.94,385.48,38.79z"/>
			<path d="M402.28,40.4l-2.35-8.61l-2.35,8.61h-1.44l-3.04-10.68h1.47l2.37,8.9l2.45-8.9h1.1l2.45,8.9l2.35-8.9h1.47l-3.04,10.68
				H402.28z"/>
			<path d="M407.99,30.77c0-0.45,0.37-0.82,0.8-0.82c0.45,0,0.82,0.37,0.82,0.82s-0.37,0.8-0.82,0.8
				C408.36,31.57,407.99,31.22,407.99,30.77z M408.2,40.4v-7.73h1.2v7.73H408.2z"/>
			<path d="M412.04,38.79v-5.06h-1.28v-1.06h1.28v-2.11h1.2v2.11h1.57v1.06h-1.57v4.8c0,0.58,0.26,0.99,0.78,0.99
				c0.34,0,0.66-0.14,0.82-0.32l0.35,0.9c-0.3,0.29-0.74,0.5-1.44,0.5C412.62,40.59,412.04,39.94,412.04,38.79z"/>
			<path d="M421.74,40.4v-5.09c0-1.36-0.7-1.76-1.74-1.76c-0.93,0-1.83,0.58-2.29,1.2v5.65h-1.2V29.73h1.2v4.07
				c0.54-0.64,1.6-1.31,2.77-1.31c1.62,0,2.47,0.78,2.47,2.47v5.46H421.74z"/>
			<path d="M437.13,40.4l-0.94-2.37h-5.31l-0.94,2.37h-1.52l4.29-10.68h1.65l4.31,10.68H437.13z M433.53,31.1l-2.27,5.75h4.53
				L433.53,31.1z"/>
			<path d="M441.19,39.23v4.11h-1.2V32.67h1.2v1.15c0.56-0.78,1.52-1.34,2.61-1.34c2.03,0,3.44,1.54,3.44,4.05
				c0,2.5-1.41,4.07-3.44,4.07C442.75,40.59,441.82,40.1,441.19,39.23z M445.98,36.53c0-1.71-0.93-2.98-2.48-2.98
				c-0.94,0-1.89,0.56-2.31,1.23v3.49c0.42,0.67,1.36,1.25,2.31,1.25C445.05,39.52,445.98,38.24,445.98,36.53z"/>
			<path d="M449.14,40.4v-7.73h1.2v1.25c0.62-0.82,1.52-1.41,2.58-1.41v1.23c-0.14-0.03-0.29-0.05-0.48-0.05
				c-0.74,0-1.75,0.61-2.1,1.23v5.47H449.14z"/>
			<path d="M453.98,36.53c0-2.24,1.47-4.05,3.83-4.05c2.35,0,3.83,1.81,3.83,4.05s-1.47,4.07-3.83,4.07
				C455.45,40.59,453.98,38.77,453.98,36.53z M460.36,36.53c0-1.57-0.91-2.98-2.56-2.98c-1.65,0-2.58,1.41-2.58,2.98
				c0,1.58,0.93,2.99,2.58,2.99C459.45,39.52,460.36,38.11,460.36,36.53z"/>
			<path d="M468.79,40.4v-5.06c0-1.36-0.69-1.79-1.73-1.79c-0.94,0-1.84,0.58-2.29,1.2v5.65h-1.2v-7.73h1.2v1.12
				c0.54-0.64,1.6-1.31,2.75-1.31c1.62,0,2.46,0.82,2.46,2.5v5.43H468.79z"/>
			<path d="M343.45,60.4v-4.9h-6.24v4.9h-1.33V49.73h1.33v4.59h6.24v-4.59h1.33V60.4H343.45z"/>
			<path d="M346.78,56.53c0-2.24,1.6-4.05,3.81-4.05c2.34,0,3.71,1.82,3.71,4.15v0.3h-6.26c0.1,1.46,1.12,2.67,2.79,2.67
				c0.88,0,1.78-0.35,2.39-0.98l0.58,0.78c-0.77,0.77-1.81,1.18-3.07,1.18C348.43,60.59,346.78,58.95,346.78,56.53z M350.57,53.47
				c-1.65,0-2.46,1.39-2.53,2.58h5.07C353.1,54.9,352.33,53.47,350.57,53.47z"/>
			<path d="M356.03,50.77c0-0.45,0.37-0.82,0.8-0.82c0.45,0,0.82,0.37,0.82,0.82s-0.37,0.8-0.82,0.8
				C356.39,51.57,356.03,51.22,356.03,50.77z M356.23,60.4v-7.73h1.2v7.73H356.23z"/>
			<path d="M359.82,62.39l0.61-0.9c0.64,0.77,1.41,1.06,2.51,1.06c1.28,0,2.48-0.62,2.48-2.32v-1.1c-0.56,0.78-1.5,1.38-2.59,1.38
				c-2.02,0-3.44-1.5-3.44-4c0-2.48,1.41-4.02,3.44-4.02c1.04,0,1.97,0.51,2.59,1.36v-1.17h1.2v7.51c0,2.56-1.79,3.36-3.68,3.36
				C361.63,63.54,360.73,63.28,359.82,62.39z M365.42,58.18V54.8c-0.42-0.67-1.34-1.25-2.3-1.25c-1.55,0-2.48,1.23-2.48,2.94
				c0,1.7,0.93,2.95,2.48,2.95C364.08,59.44,365,58.85,365.42,58.18z"/>
			<path d="M374.25,60.4v-5.09c0-1.36-0.7-1.76-1.75-1.76c-0.93,0-1.82,0.58-2.29,1.2v5.65h-1.2V49.73h1.2v4.07
				c0.54-0.64,1.6-1.31,2.77-1.31c1.62,0,2.46,0.78,2.46,2.47v5.46H374.25z"/>
			<path d="M378.09,58.79v-5.06h-1.28v-1.06h1.28v-2.11h1.2v2.11h1.57v1.06h-1.57v4.8c0,0.58,0.26,0.99,0.78,0.99
				c0.34,0,0.66-0.14,0.82-0.32l0.35,0.9c-0.3,0.29-0.74,0.5-1.44,0.5C378.67,60.59,378.09,59.94,378.09,58.79z"/>
			<path d="M386.34,60.4v-1.06c3.84-3.02,5.92-4.8,5.92-6.64c0-1.36-1.12-1.95-2.22-1.95c-1.28,0-2.27,0.54-2.9,1.34l-0.82-0.85
				c0.82-1.07,2.21-1.68,3.71-1.68c1.78,0,3.59,1.01,3.59,3.14c0,2.18-2.21,4.16-5.19,6.51h5.23v1.18H386.34z"/>
			<path d="M401.1,60.4l-2.32-3.17l-2.32,3.17h-1.38l2.96-3.97l-2.8-3.76h1.39l2.15,2.94l2.14-2.94h1.39l-2.8,3.76l2.98,3.97H401.1z
				"/>
			<path d="M405.51,60.4v-8.92l-1.71,1.81l-0.8-0.82l2.67-2.75h1.17V60.4H405.51z"/>
			<path d="M414.06,56.13v-5.15l-1.06,1.1l-0.56-0.59l1.73-1.76h0.85v6.4H414.06z M414.83,60.4h-0.88l6.82-10.68h0.9L414.83,60.4z
				 M423.02,58.8v1.6h-0.94v-1.6h-3.14v-0.7l2.75-4.1h1.33v4.02h0.93v0.78H423.02z M422.08,54.85l-2.18,3.17h2.18V54.85z"/>
			<path d="M425.83,53.81c0,0-0.43-3.28-0.43-3.51c0-0.4,0.32-0.74,0.72-0.74c0.42,0,0.74,0.34,0.74,0.74
				c0,0.22-0.43,3.51-0.43,3.51H425.83z M428.15,53.81c0,0-0.43-3.28-0.43-3.51c0-0.4,0.32-0.74,0.74-0.74
				c0.4,0,0.72,0.34,0.72,0.74c0,0.22-0.43,3.51-0.43,3.51H428.15z"/>
		</g>
		<g>
			<path d="M617.6,40.4V29.73h4.75c1.86,0,2.99,1.12,2.99,2.72c0,1.34-0.9,2.24-1.87,2.45c1.14,0.18,2.08,1.34,2.08,2.62
				c0,1.71-1.14,2.88-3.09,2.88H617.6z M623.97,32.64c0-0.96-0.64-1.73-1.84-1.73h-3.2v3.44h3.2
				C623.33,34.35,623.97,33.62,623.97,32.64z M624.17,37.38c0-0.98-0.67-1.84-1.99-1.84h-3.26v3.68h3.26
				C623.44,39.22,624.17,38.51,624.17,37.38z"/>
			<path d="M627.16,36.53c0-2.24,1.6-4.05,3.81-4.05c2.34,0,3.71,1.82,3.71,4.15v0.3h-6.26c0.1,1.46,1.12,2.67,2.79,2.67
				c0.88,0,1.78-0.35,2.39-0.98l0.58,0.78c-0.77,0.77-1.81,1.18-3.07,1.18C628.81,40.59,627.16,38.95,627.16,36.53z M630.96,33.47
				c-1.65,0-2.46,1.39-2.53,2.58h5.07C633.49,34.9,632.72,33.47,630.96,33.47z"/>
			<path d="M638.68,40.4l-3.22-7.73h1.3l2.58,6.34l2.56-6.34h1.31L640,40.4H638.68z"/>
			<path d="M644.01,36.53c0-2.24,1.6-4.05,3.81-4.05c2.34,0,3.71,1.82,3.71,4.15v0.3h-6.26c0.1,1.46,1.12,2.67,2.79,2.67
				c0.88,0,1.78-0.35,2.39-0.98l0.58,0.78c-0.77,0.77-1.81,1.18-3.07,1.18C645.66,40.59,644.01,38.95,644.01,36.53z M647.8,33.47
				c-1.65,0-2.46,1.39-2.53,2.58h5.07C650.33,34.9,649.57,33.47,647.8,33.47z"/>
			<path d="M653.47,40.4V29.73h1.2V40.4H653.47z"/>
			<path d="M625.17,60.4v-4.9h-6.24v4.9h-1.33V49.73h1.33v4.59h6.24v-4.59h1.33V60.4H625.17z"/>
			<path d="M628.49,56.53c0-2.24,1.6-4.05,3.81-4.05c2.34,0,3.71,1.82,3.71,4.15v0.3h-6.26c0.1,1.46,1.12,2.67,2.79,2.67
				c0.88,0,1.78-0.35,2.39-0.98l0.58,0.78c-0.77,0.77-1.81,1.18-3.07,1.18C630.14,60.59,628.49,58.95,628.49,56.53z M632.29,53.47
				c-1.65,0-2.46,1.39-2.53,2.58h5.07C634.81,54.9,634.05,53.47,632.29,53.47z"/>
			<path d="M637.74,50.77c0-0.45,0.37-0.82,0.8-0.82c0.45,0,0.82,0.37,0.82,0.82s-0.37,0.8-0.82,0.8
				C638.11,51.57,637.74,51.22,637.74,50.77z M637.95,60.4v-7.73h1.2v7.73H637.95z"/>
			<path d="M641.53,62.39l0.61-0.9c0.64,0.77,1.41,1.06,2.51,1.06c1.28,0,2.48-0.62,2.48-2.32v-1.1c-0.56,0.78-1.5,1.38-2.59,1.38
				c-2.02,0-3.44-1.5-3.44-4c0-2.48,1.41-4.02,3.44-4.02c1.04,0,1.97,0.51,2.59,1.36v-1.17h1.2v7.51c0,2.56-1.79,3.36-3.68,3.36
				C643.34,63.54,642.44,63.28,641.53,62.39z M647.13,58.18V54.8c-0.42-0.67-1.34-1.25-2.3-1.25c-1.55,0-2.48,1.23-2.48,2.94
				c0,1.7,0.93,2.95,2.48,2.95C645.79,59.44,646.72,58.85,647.13,58.18z"/>
			<path d="M655.97,60.4v-5.09c0-1.36-0.7-1.76-1.75-1.76c-0.93,0-1.82,0.58-2.29,1.2v5.65h-1.2V49.73h1.2v4.07
				c0.54-0.64,1.6-1.31,2.77-1.31c1.62,0,2.46,0.78,2.46,2.47v5.46H655.97z"/>
			<path d="M659.8,58.79v-5.06h-1.28v-1.06h1.28v-2.11h1.2v2.11h1.57v1.06H661v4.8c0,0.58,0.26,0.99,0.78,0.99
				c0.34,0,0.66-0.14,0.82-0.32l0.35,0.9c-0.3,0.29-0.74,0.5-1.44,0.5C660.38,60.59,659.8,59.94,659.8,58.79z"/>
			<path d="M670.04,60.4v-8.92l-1.71,1.81l-0.8-0.82l2.67-2.75h1.17V60.4H670.04z"/>
			<path d="M678.59,56.13v-5.15l-1.06,1.1l-0.56-0.59l1.73-1.76h0.85v6.4H678.59z M679.35,60.4h-0.88l6.82-10.68h0.9L679.35,60.4z
				 M687.55,58.8v1.6h-0.94v-1.6h-3.14v-0.7l2.75-4.1h1.33v4.02h0.93v0.78H687.55z M686.61,54.85l-2.18,3.17h2.18V54.85z"/>
			<path d="M690.36,53.81c0,0-0.43-3.28-0.43-3.51c0-0.4,0.32-0.74,0.72-0.74c0.42,0,0.74,0.34,0.74,0.74
				c0,0.22-0.43,3.51-0.43,3.51H690.36z M692.68,53.81c0,0-0.43-3.28-0.43-3.51c0-0.4,0.32-0.74,0.74-0.74
				c0.4,0,0.72,0.34,0.72,0.74c0,0.22-0.43,3.51-0.43,3.51H692.68z"/>
		</g>
		<g>
			<path d="M44.17,252.26v-10.68h6.99v1.18H45.5v3.44h5.55v1.18H45.5v4.87H44.17z"/>
			<path d="M58.14,252.26v-1.09c-0.59,0.67-1.6,1.28-2.75,1.28c-1.62,0-2.46-0.78-2.46-2.46v-5.46h1.2v5.09
				c0,1.36,0.69,1.76,1.73,1.76c0.94,0,1.84-0.54,2.29-1.17v-5.68h1.2v7.73H58.14z"/>
			<path d="M61.74,252.26v-10.68h1.2v10.68H61.74z"/>
			<path d="M65.34,252.26v-10.68h1.2v10.68H65.34z"/>
			<path d="M73.11,252.26v-10.68h4.75c1.86,0,2.99,1.12,2.99,2.72c0,1.34-0.9,2.24-1.87,2.45c1.14,0.18,2.08,1.34,2.08,2.62
				c0,1.71-1.14,2.88-3.09,2.88H73.11z M79.48,244.5c0-0.96-0.64-1.73-1.84-1.73h-3.2v3.44h3.2
				C78.84,246.21,79.48,245.48,79.48,244.5z M79.69,249.24c0-0.98-0.67-1.84-1.98-1.84h-3.27v3.68h3.27
				C78.95,251.08,79.69,250.38,79.69,249.24z"/>
			<path d="M88.35,252.26v-1.09c-0.59,0.67-1.6,1.28-2.75,1.28c-1.62,0-2.46-0.78-2.46-2.46v-5.46h1.2v5.09
				c0,1.36,0.69,1.76,1.73,1.76c0.94,0,1.84-0.54,2.29-1.17v-5.68h1.2v7.73H88.35z"/>
			<path d="M91.94,252.26v-10.68h1.2v10.68H91.94z"/>
			<path d="M95.54,252.26v-10.68h1.2v10.68H95.54z"/>
			<path d="M110.87,252.26l-6.23-8.52v8.52h-1.33v-10.68h1.36l6.15,8.34v-8.34h1.33v10.68H110.87z"/>
			<path d="M114.15,248.39c0-2.24,1.47-4.05,3.83-4.05c2.35,0,3.83,1.81,3.83,4.05c0,2.24-1.47,4.07-3.83,4.07
				C115.62,252.46,114.15,250.63,114.15,248.39z M120.54,248.39c0-1.57-0.91-2.98-2.56-2.98c-1.65,0-2.58,1.41-2.58,2.98
				c0,1.58,0.93,2.99,2.58,2.99C119.62,251.38,120.54,249.98,120.54,248.39z"/>
			<path d="M123.08,251.24l0.62-0.86c0.51,0.59,1.49,1.1,2.54,1.1c1.18,0,1.83-0.56,1.83-1.33c0-0.85-0.94-1.07-1.98-1.33
				c-1.31-0.3-2.8-0.66-2.8-2.26c0-1.2,1.04-2.23,2.88-2.23c1.31,0,2.24,0.5,2.86,1.12l-0.56,0.83c-0.46-0.56-1.31-0.98-2.3-0.98
				c-1.06,0-1.71,0.53-1.71,1.22c0,0.74,0.88,0.94,1.89,1.18c1.34,0.3,2.9,0.69,2.9,2.4c0,1.3-1.04,2.34-3.04,2.34
				C124.94,252.46,123.86,252.07,123.08,251.24z"/>
			<path d="M130.74,248.39c0-2.24,1.6-4.05,3.81-4.05c2.34,0,3.71,1.83,3.71,4.15v0.3h-6.26c0.1,1.46,1.12,2.67,2.79,2.67
				c0.88,0,1.78-0.35,2.39-0.98l0.58,0.79c-0.77,0.77-1.81,1.18-3.07,1.18C132.39,252.46,130.74,250.81,130.74,248.39z
				 M134.54,245.33c-1.65,0-2.46,1.39-2.53,2.58h5.07C137.06,246.76,136.3,245.33,134.54,245.33z"/>
			<path d="M51.74,272.26v-4.9H45.5v4.9h-1.33v-10.68h1.33v4.59h6.24v-4.59h1.33v10.68H51.74z"/>
			<path d="M55.06,268.39c0-2.24,1.6-4.05,3.81-4.05c2.34,0,3.71,1.83,3.71,4.15v0.3h-6.26c0.1,1.46,1.12,2.67,2.79,2.67
				c0.88,0,1.78-0.35,2.39-0.98l0.58,0.79c-0.77,0.77-1.81,1.18-3.07,1.18C56.71,272.46,55.06,270.81,55.06,268.39z M58.86,265.33
				c-1.65,0-2.46,1.39-2.53,2.58h5.07C61.39,266.76,60.62,265.33,58.86,265.33z"/>
			<path d="M64.31,262.63c0-0.45,0.37-0.82,0.8-0.82c0.45,0,0.82,0.37,0.82,0.82s-0.37,0.8-0.82,0.8
				C64.68,263.43,64.31,263.08,64.31,262.63z M64.52,272.26v-7.73h1.2v7.73H64.52z"/>
			<path d="M68.1,274.25l0.61-0.9c0.64,0.77,1.41,1.06,2.51,1.06c1.28,0,2.48-0.62,2.48-2.32v-1.1c-0.56,0.78-1.5,1.38-2.59,1.38
				c-2.02,0-3.44-1.5-3.44-4c0-2.48,1.41-4.02,3.44-4.02c1.04,0,1.97,0.51,2.59,1.36v-1.17h1.2v7.51c0,2.56-1.79,3.36-3.68,3.36
				C69.91,275.4,69.02,275.15,68.1,274.25z M73.71,270.04v-3.38c-0.42-0.67-1.34-1.25-2.3-1.25c-1.55,0-2.48,1.23-2.48,2.94
				c0,1.7,0.93,2.95,2.48,2.95C72.36,271.3,73.29,270.71,73.71,270.04z"/>
			<path d="M82.54,272.26v-5.09c0-1.36-0.7-1.76-1.74-1.76c-0.93,0-1.82,0.58-2.29,1.2v5.65h-1.2v-10.68h1.2v4.07
				c0.54-0.64,1.6-1.31,2.77-1.31c1.62,0,2.47,0.79,2.47,2.47v5.46H82.54z"/>
			<path d="M86.38,270.65v-5.06h-1.28v-1.06h1.28v-2.11h1.2v2.11h1.57v1.06h-1.57v4.8c0,0.58,0.26,0.99,0.78,0.99
				c0.34,0,0.66-0.14,0.82-0.32l0.35,0.9c-0.3,0.29-0.74,0.5-1.44,0.5C86.95,272.46,86.38,271.8,86.38,270.65z"/>
			<path d="M96.62,272.26v-8.92l-1.71,1.81l-0.8-0.82l2.67-2.75h1.17v10.68H96.62z"/>
			<path d="M105.16,267.99v-5.15l-1.06,1.1l-0.56-0.59l1.73-1.76h0.85v6.4H105.16z M105.93,272.26h-0.88l6.82-10.68h0.9
				L105.93,272.26z M114.12,270.66v1.6h-0.94v-1.6h-3.14v-0.7l2.75-4.1h1.33v4.02h0.93v0.78H114.12z M113.18,266.71l-2.18,3.17h2.18
				V266.71z"/>
			<path d="M116.93,265.67c0,0-0.43-3.28-0.43-3.51c0-0.4,0.32-0.74,0.72-0.74c0.42,0,0.74,0.34,0.74,0.74
				c0,0.22-0.43,3.51-0.43,3.51H116.93z M119.26,265.67c0,0-0.43-3.28-0.43-3.51c0-0.4,0.32-0.74,0.74-0.74
				c0.4,0,0.72,0.34,0.72,0.74c0,0.22-0.43,3.51-0.43,3.51H119.26z"/>
		</g>
		<g>
			<path d="M335.88,252.26v-10.68h4.75c1.86,0,2.99,1.12,2.99,2.72c0,1.34-0.9,2.24-1.87,2.45c1.14,0.18,2.08,1.34,2.08,2.62
				c0,1.71-1.14,2.88-3.09,2.88H335.88z M342.25,244.5c0-0.96-0.64-1.73-1.84-1.73h-3.2v3.44h3.2
				C341.61,246.21,342.25,245.48,342.25,244.5z M342.46,249.24c0-0.98-0.67-1.84-1.99-1.84h-3.26v3.68h3.26
				C341.72,251.08,342.46,250.38,342.46,249.24z"/>
			<path d="M345.45,248.39c0-2.24,1.6-4.05,3.81-4.05c2.34,0,3.71,1.83,3.71,4.15v0.3h-6.26c0.1,1.46,1.12,2.67,2.79,2.67
				c0.88,0,1.78-0.35,2.39-0.98l0.58,0.79c-0.77,0.77-1.81,1.18-3.07,1.18C347.1,252.46,345.45,250.81,345.45,248.39z
				 M349.24,245.33c-1.65,0-2.46,1.39-2.53,2.58h5.07C351.77,246.76,351,245.33,349.24,245.33z"/>
			<path d="M356.97,252.26l-3.22-7.73h1.3l2.58,6.34l2.56-6.34h1.31l-3.22,7.73H356.97z"/>
			<path d="M362.3,248.39c0-2.24,1.6-4.05,3.81-4.05c2.34,0,3.71,1.83,3.71,4.15v0.3h-6.26c0.1,1.46,1.12,2.67,2.79,2.67
				c0.88,0,1.78-0.35,2.39-0.98l0.58,0.79c-0.77,0.77-1.81,1.18-3.07,1.18C363.95,252.46,362.3,250.81,362.3,248.39z M366.09,245.33
				c-1.65,0-2.46,1.39-2.53,2.58h5.07C368.62,246.76,367.85,245.33,366.09,245.33z"/>
			<path d="M371.75,252.26v-10.68h1.2v10.68H371.75z"/>
			<path d="M387.69,252.26l-2.35-8.61l-2.35,8.61h-1.44l-3.04-10.68h1.47l2.37,8.9l2.45-8.9h1.1l2.45,8.9l2.35-8.9h1.47l-3.04,10.68
				H387.69z"/>
			<path d="M393.4,242.63c0-0.45,0.37-0.82,0.8-0.82c0.45,0,0.82,0.37,0.82,0.82s-0.37,0.8-0.82,0.8
				C393.77,243.43,393.4,243.08,393.4,242.63z M393.61,252.26v-7.73h1.2v7.73H393.61z"/>
			<path d="M397.45,250.65v-5.06h-1.28v-1.06h1.28v-2.11h1.2v2.11h1.57v1.06h-1.57v4.8c0,0.58,0.26,0.99,0.78,0.99
				c0.34,0,0.66-0.14,0.82-0.32l0.35,0.9c-0.3,0.29-0.74,0.5-1.44,0.5C398.03,252.46,397.45,251.8,397.45,250.65z"/>
			<path d="M407.15,252.26v-5.09c0-1.36-0.7-1.76-1.75-1.76c-0.93,0-1.82,0.58-2.29,1.2v5.65h-1.2v-10.68h1.2v4.07
				c0.54-0.64,1.6-1.31,2.77-1.31c1.62,0,2.46,0.79,2.46,2.47v5.46H407.15z"/>
			<path d="M422.54,252.26l-0.94-2.37h-5.31l-0.94,2.37h-1.52l4.29-10.68h1.65l4.31,10.68H422.54z M418.94,242.96l-2.27,5.75h4.53
				L418.94,242.96z"/>
			<path d="M426.6,251.1v4.11h-1.2v-10.68h1.2v1.15c0.56-0.78,1.52-1.34,2.61-1.34c2.03,0,3.44,1.54,3.44,4.05
				c0,2.5-1.41,4.07-3.44,4.07C428.15,252.46,427.23,251.96,426.6,251.1z M431.39,248.39c0-1.71-0.93-2.98-2.48-2.98
				c-0.94,0-1.89,0.56-2.31,1.23v3.49c0.42,0.67,1.36,1.25,2.31,1.25C430.46,251.38,431.39,250.1,431.39,248.39z"/>
			<path d="M434.55,252.26v-7.73h1.2v1.25c0.62-0.82,1.52-1.41,2.58-1.41v1.23c-0.14-0.03-0.29-0.05-0.48-0.05
				c-0.74,0-1.75,0.61-2.1,1.23v5.47H434.55z"/>
			<path d="M439.38,248.39c0-2.24,1.47-4.05,3.83-4.05c2.35,0,3.83,1.81,3.83,4.05c0,2.24-1.47,4.07-3.83,4.07
				C440.86,252.46,439.38,250.63,439.38,248.39z M445.77,248.39c0-1.57-0.91-2.98-2.56-2.98c-1.65,0-2.58,1.41-2.58,2.98
				c0,1.58,0.93,2.99,2.58,2.99C444.86,251.38,445.77,249.98,445.77,248.39z"/>
			<path d="M454.2,252.26v-5.06c0-1.36-0.69-1.79-1.73-1.79c-0.94,0-1.84,0.58-2.29,1.2v5.65h-1.2v-7.73h1.2v1.12
				c0.54-0.64,1.6-1.31,2.75-1.31c1.62,0,2.46,0.82,2.46,2.5v5.43H454.2z"/>
			<path d="M343.45,272.26v-4.9h-6.24v4.9h-1.33v-10.68h1.33v4.59h6.24v-4.59h1.33v10.68H343.45z"/>
			<path d="M346.78,268.39c0-2.24,1.6-4.05,3.81-4.05c2.34,0,3.71,1.83,3.71,4.15v0.3h-6.26c0.1,1.46,1.12,2.67,2.79,2.67
				c0.88,0,1.78-0.35,2.39-0.98l0.58,0.79c-0.77,0.77-1.81,1.18-3.07,1.18C348.43,272.46,346.78,270.81,346.78,268.39z
				 M350.57,265.33c-1.65,0-2.46,1.39-2.53,2.58h5.07C353.1,266.76,352.33,265.33,350.57,265.33z"/>
			<path d="M356.03,262.63c0-0.45,0.37-0.82,0.8-0.82c0.45,0,0.82,0.37,0.82,0.82s-0.37,0.8-0.82,0.8
				C356.39,263.43,356.03,263.08,356.03,262.63z M356.23,272.26v-7.73h1.2v7.73H356.23z"/>
			<path d="M359.82,274.25l0.61-0.9c0.64,0.77,1.41,1.06,2.51,1.06c1.28,0,2.48-0.62,2.48-2.32v-1.1c-0.56,0.78-1.5,1.38-2.59,1.38
				c-2.02,0-3.44-1.5-3.44-4c0-2.48,1.41-4.02,3.44-4.02c1.04,0,1.97,0.51,2.59,1.36v-1.17h1.2v7.51c0,2.56-1.79,3.36-3.68,3.36
				C361.63,275.4,360.73,275.15,359.82,274.25z M365.42,270.04v-3.38c-0.42-0.67-1.34-1.25-2.3-1.25c-1.55,0-2.48,1.23-2.48,2.94
				c0,1.7,0.93,2.95,2.48,2.95C364.08,271.3,365,270.71,365.42,270.04z"/>
			<path d="M374.25,272.26v-5.09c0-1.36-0.7-1.76-1.75-1.76c-0.93,0-1.82,0.58-2.29,1.2v5.65h-1.2v-10.68h1.2v4.07
				c0.54-0.64,1.6-1.31,2.77-1.31c1.62,0,2.46,0.79,2.46,2.47v5.46H374.25z"/>
			<path d="M378.09,270.65v-5.06h-1.28v-1.06h1.28v-2.11h1.2v2.11h1.57v1.06h-1.57v4.8c0,0.58,0.26,0.99,0.78,0.99
				c0.34,0,0.66-0.14,0.82-0.32l0.35,0.9c-0.3,0.29-0.74,0.5-1.44,0.5C378.67,272.46,378.09,271.8,378.09,270.65z"/>
			<path d="M386.34,272.26v-1.06c3.84-3.03,5.92-4.8,5.92-6.64c0-1.36-1.12-1.95-2.22-1.95c-1.28,0-2.27,0.54-2.9,1.34l-0.82-0.85
				c0.82-1.07,2.21-1.68,3.71-1.68c1.78,0,3.59,1.01,3.59,3.14c0,2.18-2.21,4.16-5.19,6.51h5.23v1.18H386.34z"/>
			<path d="M401.1,272.26l-2.32-3.17l-2.32,3.17h-1.38l2.96-3.97l-2.8-3.76h1.39l2.15,2.95l2.14-2.95h1.39l-2.8,3.76l2.98,3.97
				H401.1z"/>
			<path d="M405.51,272.26v-8.92l-1.71,1.81l-0.8-0.82l2.67-2.75h1.17v10.68H405.51z"/>
			<path d="M414.06,267.99v-5.15l-1.06,1.1l-0.56-0.59l1.73-1.76h0.85v6.4H414.06z M414.83,272.26h-0.88l6.82-10.68h0.9
				L414.83,272.26z M423.02,270.66v1.6h-0.94v-1.6h-3.14v-0.7l2.75-4.1h1.33v4.02h0.93v0.78H423.02z M422.08,266.71l-2.18,3.17h2.18
				V266.71z"/>
			<path d="M425.83,265.67c0,0-0.43-3.28-0.43-3.51c0-0.4,0.32-0.74,0.72-0.74c0.42,0,0.74,0.34,0.74,0.74
				c0,0.22-0.43,3.51-0.43,3.51H425.83z M428.15,265.67c0,0-0.43-3.28-0.43-3.51c0-0.4,0.32-0.74,0.74-0.74
				c0.4,0,0.72,0.34,0.72,0.74c0,0.22-0.43,3.51-0.43,3.51H428.15z"/>
		</g>
		<g>
			<path d="M623.77,252.26l-2.72-4.24h-2.13v4.24h-1.33v-10.68h4.29c1.95,0,3.35,1.25,3.35,3.22c0,1.92-1.31,2.98-2.77,3.11
				l2.88,4.35H623.77z M623.85,244.81c0-1.2-0.86-2.03-2.13-2.03h-2.8v4.08h2.8C622.99,246.85,623.85,246.01,623.85,244.81z"/>
			<path d="M631.79,252.26v-0.88c-0.64,0.7-1.52,1.07-2.56,1.07c-1.31,0-2.71-0.88-2.71-2.56c0-1.73,1.39-2.54,2.71-2.54
				c1.06,0,1.94,0.34,2.56,1.06v-1.39c0-1.04-0.83-1.63-1.95-1.63c-0.93,0-1.68,0.34-2.37,1.07l-0.56-0.83
				c0.83-0.86,1.82-1.28,3.09-1.28c1.63,0,2.99,0.74,2.99,2.61v5.31H631.79z M631.79,250.63v-1.46c-0.46-0.64-1.28-0.96-2.13-0.96
				c-1.12,0-1.9,0.7-1.9,1.7c0,0.98,0.78,1.68,1.9,1.68C630.51,251.59,631.33,251.27,631.79,250.63z"/>
			<path d="M640.99,252.26v-1.15c-0.58,0.78-1.52,1.34-2.61,1.34c-2.02,0-3.44-1.54-3.44-4.05c0-2.47,1.41-4.07,3.44-4.07
				c1.04,0,1.99,0.51,2.61,1.36v-4.11h1.2v10.68H640.99z M640.99,250.17v-3.51c-0.43-0.67-1.36-1.25-2.32-1.25
				c-1.55,0-2.48,1.28-2.48,2.99c0,1.71,0.93,2.98,2.48,2.98C639.63,251.38,640.56,250.84,640.99,250.17z"/>
			<path d="M644.38,242.63c0-0.45,0.37-0.82,0.8-0.82c0.45,0,0.82,0.37,0.82,0.82s-0.37,0.8-0.82,0.8
				C644.75,243.43,644.38,243.08,644.38,242.63z M644.59,252.26v-7.73h1.2v7.73H644.59z"/>
			<path d="M653.41,252.26v-1.09c-0.59,0.67-1.6,1.28-2.75,1.28c-1.62,0-2.46-0.78-2.46-2.46v-5.46h1.2v5.09
				c0,1.36,0.69,1.76,1.73,1.76c0.94,0,1.84-0.54,2.29-1.17v-5.68h1.2v7.73H653.41z"/>
			<path d="M656.33,251.24l0.62-0.86c0.51,0.59,1.49,1.1,2.54,1.1c1.18,0,1.83-0.56,1.83-1.33c0-0.85-0.94-1.07-1.98-1.33
				c-1.31-0.3-2.8-0.66-2.8-2.26c0-1.2,1.04-2.23,2.88-2.23c1.31,0,2.24,0.5,2.86,1.12l-0.56,0.83c-0.46-0.56-1.31-0.98-2.3-0.98
				c-1.06,0-1.71,0.53-1.71,1.22c0,0.74,0.88,0.94,1.89,1.18c1.34,0.3,2.9,0.69,2.9,2.4c0,1.3-1.04,2.34-3.04,2.34
				C658.19,252.46,657.12,252.07,656.33,251.24z"/>
			<path d="M676.78,252.26l-2.35-8.61l-2.35,8.61h-1.44l-3.04-10.68h1.47l2.37,8.9l2.45-8.9h1.1l2.45,8.9l2.35-8.9h1.47l-3.04,10.68
				H676.78z"/>
			<path d="M682.49,242.63c0-0.45,0.37-0.82,0.8-0.82c0.45,0,0.82,0.37,0.82,0.82s-0.37,0.8-0.82,0.8
				C682.86,243.43,682.49,243.08,682.49,242.63z M682.7,252.26v-7.73h1.2v7.73H682.7z"/>
			<path d="M686.54,250.65v-5.06h-1.28v-1.06h1.28v-2.11h1.2v2.11h1.57v1.06h-1.57v4.8c0,0.58,0.26,0.99,0.78,0.99
				c0.34,0,0.66-0.14,0.82-0.32l0.35,0.9c-0.3,0.29-0.74,0.5-1.44,0.5C687.12,252.46,686.54,251.8,686.54,250.65z"/>
			<path d="M696.24,252.26v-5.09c0-1.36-0.7-1.76-1.75-1.76c-0.93,0-1.82,0.58-2.29,1.2v5.65H691v-10.68h1.2v4.07
				c0.54-0.64,1.6-1.31,2.77-1.31c1.62,0,2.46,0.79,2.46,2.47v5.46H696.24z"/>
			<path d="M711.63,252.26l-0.94-2.37h-5.31l-0.94,2.37h-1.52l4.29-10.68h1.65l4.31,10.68H711.63z M708.03,242.96l-2.27,5.75h4.53
				L708.03,242.96z"/>
			<path d="M715.69,251.1v4.11h-1.2v-10.68h1.2v1.15c0.56-0.78,1.52-1.34,2.61-1.34c2.03,0,3.44,1.54,3.44,4.05
				c0,2.5-1.41,4.07-3.44,4.07C717.24,252.46,716.32,251.96,715.69,251.1z M720.48,248.39c0-1.71-0.93-2.98-2.48-2.98
				c-0.94,0-1.89,0.56-2.31,1.23v3.49c0.42,0.67,1.36,1.25,2.31,1.25C719.55,251.38,720.48,250.1,720.48,248.39z"/>
			<path d="M723.64,252.26v-7.73h1.2v1.25c0.62-0.82,1.52-1.41,2.58-1.41v1.23c-0.14-0.03-0.29-0.05-0.48-0.05
				c-0.74,0-1.75,0.61-2.1,1.23v5.47H723.64z"/>
			<path d="M728.47,248.39c0-2.24,1.47-4.05,3.83-4.05c2.35,0,3.83,1.81,3.83,4.05c0,2.24-1.47,4.07-3.83,4.07
				C729.95,252.46,728.47,250.63,728.47,248.39z M734.86,248.39c0-1.57-0.91-2.98-2.56-2.98c-1.65,0-2.58,1.41-2.58,2.98
				c0,1.58,0.93,2.99,2.58,2.99C733.95,251.38,734.86,249.98,734.86,248.39z"/>
			<path d="M743.29,252.26v-5.06c0-1.36-0.69-1.79-1.73-1.79c-0.94,0-1.84,0.58-2.29,1.2v5.65h-1.2v-7.73h1.2v1.12
				c0.54-0.64,1.6-1.31,2.75-1.31c1.62,0,2.46,0.82,2.46,2.5v5.43H743.29z"/>
			<path d="M625.17,272.26v-4.9h-6.24v4.9h-1.33v-10.68h1.33v4.59h6.24v-4.59h1.33v10.68H625.17z"/>
			<path d="M628.49,268.39c0-2.24,1.6-4.05,3.81-4.05c2.34,0,3.71,1.83,3.71,4.15v0.3h-6.26c0.1,1.46,1.12,2.67,2.79,2.67
				c0.88,0,1.78-0.35,2.39-0.98l0.58,0.79c-0.77,0.77-1.81,1.18-3.07,1.18C630.14,272.46,628.49,270.81,628.49,268.39z
				 M632.29,265.33c-1.65,0-2.46,1.39-2.53,2.58h5.07C634.81,266.76,634.05,265.33,632.29,265.33z"/>
			<path d="M637.74,262.63c0-0.45,0.37-0.82,0.8-0.82c0.45,0,0.82,0.37,0.82,0.82s-0.37,0.8-0.82,0.8
				C638.11,263.43,637.74,263.08,637.74,262.63z M637.95,272.26v-7.73h1.2v7.73H637.95z"/>
			<path d="M641.53,274.25l0.61-0.9c0.64,0.77,1.41,1.06,2.51,1.06c1.28,0,2.48-0.62,2.48-2.32v-1.1c-0.56,0.78-1.5,1.38-2.59,1.38
				c-2.02,0-3.44-1.5-3.44-4c0-2.48,1.41-4.02,3.44-4.02c1.04,0,1.97,0.51,2.59,1.36v-1.17h1.2v7.51c0,2.56-1.79,3.36-3.68,3.36
				C643.34,275.4,642.44,275.15,641.53,274.25z M647.13,270.04v-3.38c-0.42-0.67-1.34-1.25-2.3-1.25c-1.55,0-2.48,1.23-2.48,2.94
				c0,1.7,0.93,2.95,2.48,2.95C645.79,271.3,646.72,270.71,647.13,270.04z"/>
			<path d="M655.97,272.26v-5.09c0-1.36-0.7-1.76-1.75-1.76c-0.93,0-1.82,0.58-2.29,1.2v5.65h-1.2v-10.68h1.2v4.07
				c0.54-0.64,1.6-1.31,2.77-1.31c1.62,0,2.46,0.79,2.46,2.47v5.46H655.97z"/>
			<path d="M659.8,270.65v-5.06h-1.28v-1.06h1.28v-2.11h1.2v2.11h1.57v1.06H661v4.8c0,0.58,0.26,0.99,0.78,0.99
				c0.34,0,0.66-0.14,0.82-0.32l0.35,0.9c-0.3,0.29-0.74,0.5-1.44,0.5C660.38,272.46,659.8,271.8,659.8,270.65z"/>
			<path d="M668.06,272.26v-1.06c3.84-3.03,5.92-4.8,5.92-6.64c0-1.36-1.12-1.95-2.22-1.95c-1.28,0-2.27,0.54-2.9,1.34l-0.82-0.85
				c0.82-1.07,2.21-1.68,3.71-1.68c1.78,0,3.59,1.01,3.59,3.14c0,2.18-2.21,4.16-5.19,6.51h5.23v1.18H668.06z"/>
			<path d="M682.81,272.26l-2.32-3.17l-2.32,3.17h-1.38l2.96-3.97l-2.8-3.76h1.39l2.15,2.95l2.14-2.95h1.39l-2.8,3.76l2.98,3.97
				H682.81z"/>
			<path d="M687.23,272.26v-8.92l-1.71,1.81l-0.8-0.82l2.67-2.75h1.17v10.68H687.23z"/>
			<path d="M695.77,267.99v-5.15l-1.06,1.1l-0.56-0.59l1.73-1.76h0.85v6.4H695.77z M696.54,272.26h-0.88l6.82-10.68h0.9
				L696.54,272.26z M704.73,270.66v1.6h-0.94v-1.6h-3.14v-0.7l2.75-4.1h1.33v4.02h0.93v0.78H704.73z M703.79,266.71l-2.18,3.17h2.18
				V266.71z"/>
			<path d="M707.55,265.67c0,0-0.43-3.28-0.43-3.51c0-0.4,0.32-0.74,0.72-0.74c0.42,0,0.74,0.34,0.74,0.74
				c0,0.22-0.43,3.51-0.43,3.51H707.55z M709.87,265.67c0,0-0.43-3.28-0.43-3.51c0-0.4,0.32-0.74,0.74-0.74
				c0.4,0,0.72,0.34,0.72,0.74c0,0.22-0.43,3.51-0.43,3.51H709.87z"/>
		</g>
	</g>
</g>
<g>
</g>
<g>
</g>
<g>
</g>
<g>
</g>
<g>
</g>
<g>
</g>
</svg>
