<svg xmlns="http://www.w3.org/2000/svg" width="168.146" height="194.797" viewBox="0 0 168.146 194.797"><defs><style>.a{fill-rule:evenodd;}</style></defs><path class="a" d="M571.6,489.242a5.2,5.2,0,0,1,.7.493c.746.72,1.444,1.492,2.212,2.189a68.8,68.8,0,0,1,6.888,7.254c1.273,1.545,2.516,3.116,3.788,4.661a2.852,2.852,0,0,1,.686,2.046c-.029.518-.021,1.038-.017,1.557.022,2.3.1,4.592.281,6.887.278,3.623.629,7.236.942,10.855.211,2.437.309,4.884.461,7.325.028.44.075.879.121,1.411.26-.1.539-.129.6-.259.494-.993.948-2.007,1.41-3.016.185-.4.34-.819.538-1.213a1.189,1.189,0,0,1,1.09-.652,6.22,6.22,0,0,1,1.324.108c2.11.405,4.212.858,6.325,1.243a6.263,6.263,0,0,1,2.431,1.035c.61.413,1.236.8,1.871,1.178a.405.405,0,0,0,.367-.122,2.078,2.078,0,0,0,.293-.59,6.666,6.666,0,0,0,.249-2.2c-.007-1.335-.012-2.669-.007-4a40.9,40.9,0,0,1,.266-5.1,38.319,38.319,0,0,0,.324-4.434,8.233,8.233,0,0,1,2.287-5.615c.044-.048.138-.048.209-.071l-.038-.039a1.879,1.879,0,0,1-.161,1.077,6.752,6.752,0,0,0-.617,2.153c.2.29.393.605.617.9,1.891,2.473,3.76,4.964,5.691,7.406,1.7,2.156,3.15,4.486,4.7,6.749.064.093-.007.277-.016.419a2.289,2.289,0,0,1-.528-.357c-.425-.514-.818-1.053-1.223-1.583q-4.193-5.473-8.391-10.945a7.669,7.669,0,0,0-.911-.956.383.383,0,0,0-.37.059,3.7,3.7,0,0,0-.519,1.679c-.111.956-.247,1.908-.367,2.863a43.409,43.409,0,0,0-.565,7.97,4.249,4.249,0,0,1,.018.666,15.25,15.25,0,0,0,.441,4.185,1.265,1.265,0,0,0,.616.878c.376.234.757.465,1.124.716a.936.936,0,0,1,.441.73c.017.3.029.592.025.889a41.411,41.411,0,0,0,.317,5.769,25.782,25.782,0,0,1,.141,3.108c.013,1.631-.025,3.263-.031,4.894-.026,6.3-.08,12.6-.06,18.906.019,5.635.179,11.268.568,16.893.052.739.149,1.474.217,2.212.171,1.844.412,3.686.492,5.536.135,3.111.179,6.225.239,9.338a23.471,23.471,0,0,0,.5,4.412,9.619,9.619,0,0,1,.222,2.861A5.445,5.445,0,0,0,610.1,612a8.014,8.014,0,0,0,2.745,3.7,4.717,4.717,0,0,0,2.451.953,21.136,21.136,0,0,0,3.554-.039.755.755,0,0,0,.677-.747q.033-2,.042-4c.026-6.007-.041-12.012-.289-18.013-.138-3.34-.049-6.671.125-10,.107-2.073.224-4.146.333-6.218.038-.74.068-1.482.1-2.222.209-4.667.489-9.33.612-14,.231-8.821.163-17.645.14-26.467a4.029,4.029,0,0,0-.911-2.659c-.652-.807-1.246-1.66-1.865-2.493a1.825,1.825,0,0,1-.464-.986,1.638,1.638,0,0,1,.585.219c.536.51,1.03,1.064,1.56,1.581a.468.468,0,0,0,.4.042c.114-.042.263-.192.264-.3.014-.738-.046-1.478-.01-2.214a26.686,26.686,0,0,0-.226-4.437c-.084-.736-.134-1.477-.187-2.216-.2-2.811-.355-5.626-.6-8.433-.408-4.728-.864-9.452-1.316-14.175a16.461,16.461,0,0,0-.33-1.735c-.035-.169-.417-.246-.557-.112a9.666,9.666,0,0,0-.784.78,29.483,29.483,0,0,0-2.743,4.048,62.04,62.04,0,0,1-4.176,6.031c-.172.228-.349.485-.687.5l.052.038a2.1,2.1,0,0,1,.081-.646,8.682,8.682,0,0,1,.655-1.161q3.323-5,6.66-9.993a3.672,3.672,0,0,1,1.411-1.385.833.833,0,0,1,.989.237,2.645,2.645,0,0,1,.336.569,8.717,8.717,0,0,1,.412,1.5,61.1,61.1,0,0,0,2.418,9.236c1.009,3.333,2.068,6.65,3.122,9.969a14.253,14.253,0,0,0,.729,1.856,9.347,9.347,0,0,1,.931,4.084c0,1.557.017,3.115-.037,4.671-.09,2.6-.01,5.187.154,7.78a33.34,33.34,0,0,1,.037,3.555c-.107,2.443-.3,4.884-.417,7.327-.084,1.7-.152,3.408-.154,5.112-.011,7.044.013,14.088.007,21.131,0,3.192.157,6.374.393,9.554a1.484,1.484,0,0,0,.111.426c.018.045.1.079.163.091s.17.023.2-.014a2.279,2.279,0,0,0,.4-.528c.492-1.078,1.016-2.146,1.432-3.254,1.018-2.7,2.069-5.4,2.936-8.153a4.591,4.591,0,0,1,2.82-3.168c1.511-.607,2.969-1.346,4.458-2.008a12.92,12.92,0,0,1,2.971-.91.784.784,0,0,1,.954.661c.01.147.033.3.029.443a25.251,25.251,0,0,0,1.2,7.879c.1.355.16.728.29,1.072a2.451,2.451,0,0,1-.209,2.145,39.8,39.8,0,0,0-3.639,9.289,9.882,9.882,0,0,1-.357,1.053c-2.24,5.732-3.888,11.664-5.924,17.465a32.518,32.518,0,0,0-1.289,5.171,2.746,2.746,0,0,0,.178,1.518,5.02,5.02,0,0,0,.294.6c1.051,1.875,2.095,3.754,3.165,5.618.293.51.664.975.968,1.414a1.719,1.719,0,0,1-.274,1.108c-1.494,3.065-3.008,6.119-4.468,9.2a8.049,8.049,0,0,1-2.323,2.934c-2.218,1.746-4.207,3.75-6.337,5.594a11.241,11.241,0,0,0-2.237,2.46c-.079.125-.183.235-.266.357a3.14,3.14,0,0,1-3.082,1.372c-1.258-.1-2.516-.2-3.768-.345a24.737,24.737,0,0,0-6.654.089,21.32,21.32,0,0,0-3.454.813,67.418,67.418,0,0,1-9.962,2.267,22.2,22.2,0,0,1-3.105.209,54.952,54.952,0,0,1-7.992-.368,70.483,70.483,0,0,0-7.313-.618,9.2,9.2,0,0,0-3.076.339,13.811,13.811,0,0,1-2.172.466,3.768,3.768,0,0,1-3.132-.809c-.853-.721-1.8-1.3-2.72-1.925-.853-.588-1.658-1.25-2.461-1.906-1.436-1.172-2.857-2.364-4.283-3.549a36.7,36.7,0,0,0-4.759-3.275c-2.707-1.608-2.423-1.506-3.27-4.184a65.632,65.632,0,0,1-2.054-6.8,7.28,7.28,0,0,0-.442-1.256,22.112,22.112,0,0,1-.8-2.535,27.172,27.172,0,0,0-1.355-3.756,50.99,50.99,0,0,0-4.727-8.8,2.023,2.023,0,0,1-.328-.577.891.891,0,0,1,.012-.627,13.182,13.182,0,0,1,1.032-1.442q1.9-2.327,3.827-4.629a35.479,35.479,0,0,0,4.263-6.756,3.857,3.857,0,0,0,.453-1.921c-.009-.3,0-.595-.033-.888q-.317-2.757-.655-5.51c-.026-.221-.08-.438-.1-.659-.2-1.914-.374-3.832-.583-5.745-.2-1.84-.458-3.675-.651-5.516-.223-2.138-.476-4.276-.581-6.42s-.489-4.268-.674-6.41-.488-4.269-.776-6.4c-.477-3.525-.96-7.049-1.488-10.566-.308-2.05-.709-4.086-1.061-6.13-.064-.365-.1-.735-.135-1.1a2.582,2.582,0,0,1,.359-1.7,11.124,11.124,0,0,0,1.623-4.8c.138-1.175.4-2.336.615-3.5a15.046,15.046,0,0,1,1.558-4.617,7.032,7.032,0,0,0,.674-4.738c-.31-1.9-.527-3.818-.876-5.712a7.583,7.583,0,0,1,.7-4.749,9.517,9.517,0,0,1,.822-1.314c.071-.1.249-.127.378-.187l-.044-.04a4.065,4.065,0,0,1-.021.871c-.12.5-.315.985-.465,1.48-.188.626-.069.889.552,1.253a38.353,38.353,0,0,0,5.392,2.6c4.133,1.623,8.21,3.374,12.271,5.163a59.085,59.085,0,0,0,7.289,2.672c.213.063.423.136.639.185.143.033.294.026.44.046a.432.432,0,0,0,.5-.525q-1.457-4.659-3.188-9.223c-1.28-3.39-2.61-6.762-3.593-10.258a30.825,30.825,0,0,0-1.429-3.963q-2.347-5.391-4.679-10.791a6.7,6.7,0,0,0-.507-.985,2.016,2.016,0,0,0-.468-.39,2.265,2.265,0,0,0-.867,1.033,91.416,91.416,0,0,0-4.674,8.319c-1.633,3.322-3.441,6.55-5.306,9.746-.336.575-.7,1.133-1.075,1.684-.068.1-.243.127-.368.188l.049.034a2.221,2.221,0,0,1,.092-.649c.659-1.4,1.3-2.812,2.023-4.182,2.744-5.228,5.5-10.448,8.474-15.552.371-.638.74-1.278,1.136-1.9a4.074,4.074,0,0,1,.573-.668,1.2,1.2,0,0,1,1.435-.018,2.422,2.422,0,0,1,.305.32,40.53,40.53,0,0,0,4.268,4.791,20.193,20.193,0,0,1,3.266,4.174,5.235,5.235,0,0,1,.3.815c-.428.01-.651-.306-.888-.579q-2.257-2.6-4.5-5.212c-.581-.673-1.172-1.336-1.76-2-.147-.165-.306-.321-.462-.479-.2-.2-.542-.256-.554-.091a1.012,1.012,0,0,0-.017.405c1.061,2.6,2.085,5.223,3.216,7.8,1.164,2.644,2.234,5.32,3.173,8.052q3.249,9.444,6.536,18.875c.169.486.39.954.6,1.424.091.206.63.242.79.063s.3-.328.432-.506a24.954,24.954,0,0,0,2.19-3.6l3.262-6.559a6.009,6.009,0,0,0,.291-.6,3.2,3.2,0,0,0-.4-3.16c-.309-.415-.647-.809-.975-1.21-2.248-2.758-4.638-5.388-7.1-7.957-1.228-1.283-2.384-2.635-3.573-3.956A.987.987,0,0,1,571.6,489.242Zm-3.809,152.549c-.05.041-.119.074-.144.126s.014.107.025.163c.025-.088.051-.177.076-.266-2.213-3.678-4.453-7.339-6.9-10.871-.546-.79-1.131-1.558-1.751-2.292a7.626,7.626,0,0,0-2.2-1.845.754.754,0,0,0-.984.2q-1.447,1.965-2.869,3.949c-.076.1-.053.281-.088.492.2.157.418.349.655.512q2.013,1.384,4.032,2.758a24.126,24.126,0,0,1,3.282,2.645,34.791,34.791,0,0,0,5.856,4.382.815.815,0,0,0,.4.167A3.309,3.309,0,0,0,567.794,641.791Zm30.069-23.5a26.864,26.864,0,0,1,4.71,2.457c1.235.821,2.485,1.62,3.735,2.419.437.279.885.541,1.341.79a1.011,1.011,0,0,0,1.213-.24A8.276,8.276,0,0,0,610.345,621c.471-1.4.88-2.829,1.3-4.252a1.248,1.248,0,0,0-.269-1.243c-.246-.277-.457-.584-.7-.866a3.252,3.252,0,0,0-2.082-1.168,36.491,36.491,0,0,1-11.35-3.748c-2.121-1.073-4.335-1.922-6.523-2.833a5.121,5.121,0,0,0-1.072-.276.461.461,0,0,0-.386.133.419.419,0,0,0,.033.393,41.714,41.714,0,0,1,3.806,5.471,20.937,20.937,0,0,0,3.4,4.65.619.619,0,0,1,.088.2,4.173,4.173,0,0,1-.848-.13,4.793,4.793,0,0,0-1.681-.6,11.926,11.926,0,0,0-2.4,1.845c-1.009.96-1.964,1.979-2.937,2.976-.205.211-.4.428-.729.407a1.874,1.874,0,0,1,.2-.612,37.82,37.82,0,0,1,4.027-4.452c.328-.3.663-.593.984-.9a.98.98,0,0,0,.158-1.036,38.153,38.153,0,0,0-2.867-5.016,15.851,15.851,0,0,0-1.729-2.026,8.546,8.546,0,0,0-4.26-2.275,2.751,2.751,0,0,0-1.741.146c-.407.178-.812.36-1.211.557-.865.425-1.724.862-2.586,1.291q-5.976,2.968-11.949,5.939c-.526.263-1.02.591-1.524.9a.5.5,0,0,0-.045.6,4.291,4.291,0,0,0,.688.545c1.7.908,3.386,1.85,5.125,2.678a60.532,60.532,0,0,1,7.159,4.046c1.115.732,2.24,1.452,3.386,2.138a11.483,11.483,0,0,0,1.61.74,1.2,1.2,0,0,0,1.068-.137,4.269,4.269,0,0,0,.888-.653c.675-.688,1.313-1.411,1.972-2.115.2-.212.393-.448.732-.435a1.026,1.026,0,0,1-.264.808q-.935,1.38-1.846,2.777a.518.518,0,0,0,.337.688c.738.059,1.477.131,2.216.147,2.522.052,5.043.09,7.561.325a18.566,18.566,0,0,0,3.112.012c2.293-.174,4.568-.517,6.833-.918a4.333,4.333,0,0,0,1.036-.366c.073-.034.106-.27.072-.387a.69.69,0,0,0-.269-.34c-2.7-1.828-5.244-3.887-8.125-5.446a4.153,4.153,0,0,1-.729-.5C597.919,618.6,597.911,618.425,597.863,618.294Zm-46.217-22.058a1.3,1.3,0,0,1,.324.8q.315,1.972.655,3.942a.934.934,0,0,0,.542.737l2.633-1.627a8.381,8.381,0,0,1,1.029.877c.818.956,1.615,1.933,2.383,2.93.722.94,1.393,1.92,2.09,2.879.174.239.359.471.547.7.3.37.626.529.706.357a1.451,1.451,0,0,0,.176-.583,37.7,37.7,0,0,0-.614-5.743q-.806-4.933-1.765-9.841c-1.392-7.129-2.361-14.323-3.41-21.505-.353-2.419-.714-4.838-1.117-7.248-.658-3.946-1.348-7.885-2.032-11.825-.431-2.481-.888-4.958-1.308-7.442a4.594,4.594,0,0,0-1.592-2.84c-1.694-1.441-3.374-2.9-5.066-4.341a1.138,1.138,0,0,0-.994-.373c-.271.053-.431.5-.344,1.166.048.364.142.723.226,1.082a63.666,63.666,0,0,1,1.646,9.4c.208,2.658.545,5.306.828,7.958.165,1.546.339,3.092.5,4.639.253,2.355.518,4.711.745,7.069.207,2.138.3,4.29.576,6.419.2,1.547.256,3.1.42,4.647.211,1.986.531,3.961.709,5.949.193,2.14.542,4.256.836,6.38.255,1.833.636,3.651.713,5.5a1.33,1.33,0,0,1-.5-.954,5.845,5.845,0,0,0-.476-1.929.434.434,0,0,0-.289-.239.574.574,0,0,0-.378.188,4.244,4.244,0,0,0-.534.7,46.719,46.719,0,0,1-6.908,9.205,2.073,2.073,0,0,0-.445,2.628c.173.327.323.665.493.993q1.322,2.56,2.65,5.12c.17.328.342.656.522.979a1.775,1.775,0,0,0,1.856.938c.294-.025.589-.06.88-.107,2.916-.48,5.839-.919,8.742-1.464a6.178,6.178,0,0,1,4.48.731,2.945,2.945,0,0,0,1.694.528,2.149,2.149,0,0,0,.19-.606,5.606,5.606,0,0,0-1.2-3.277c-.813-1.146-1.635-2.284-2.455-3.425-.56-.781-1.094-1.584-1.693-2.334s-1.242-1.468-1.9-2.162c-.578-.6-.943-.622-1.531-.142-.688.56-1.352,1.15-2.044,1.7a.944.944,0,0,1-.58.213c-.268-.015-.284-.292-.286-.5a43.826,43.826,0,0,0-.328-4.643A5.989,5.989,0,0,1,551.646,596.236Zm32.058,7.719c-.084-1.938-.059-3.864-.179-5.787q-.38-6.1-.784-12.2c-.18-2.736-.357-5.474-.571-8.208s-.5-5.461-.7-8.2c-.154-2.146-.507-4.266-.743-6.4s-.477-4.273-.64-6.416c-.224-2.956-.343-5.921-.571-8.878-.16-2.069-.452-4.126-.64-6.192a68.274,68.274,0,0,1-.575-7.981,14.63,14.63,0,0,0-.179-2.434c-.449-3.155-.933-6.3-1.231-9.479a11.641,11.641,0,0,0-.267-1.53,2.443,2.443,0,0,0-1.341-1.685c-.594-.3-1.219-.536-1.837-.784-2.75-1.1-5.526-2.146-8.251-3.308-5.112-2.181-10.194-4.429-15.291-6.645-.406-.176-.823-.328-1.238-.485-.166-.063-.477.186-.462.362.02.221.037.443.068.661.34,2.422.717,4.84,1.015,7.267.379,3.089.681,6.188,1.047,9.28.192,1.619.445,3.23.686,4.842.351,2.345.69,4.694,1.08,7.032.524,3.143,1.08,6.28,1.648,9.415.343,1.894.813,3.77,1.086,5.674.454,3.154,1.01,6.289,1.576,9.425.408,2.259.709,4.538,1.032,6.812.406,2.861.641,5.745,1.153,8.592s.976,5.7,1.467,8.544c.542,3.139,1.1,6.276,1.63,9.418s1.02,6.29,1.537,9.434c.265,1.608.5,3.223.84,4.817a12.166,12.166,0,0,1,.537,3.938c-.027.238.436.534.651.449s.414-.155.612-.249c2.01-.95,4.015-1.911,6.028-2.856,1.811-.849,3.652-1.639,5.44-2.534,1.723-.861,3.4-1.808,5.084-2.749A11.979,11.979,0,0,0,583.7,603.956Zm23.126-39.779h-.13c-.015-4.223-.059-8.447-.037-12.67.013-2.371.147-4.74.2-7.11a7.09,7.09,0,0,0-.146-1.534c-.033-.161-.289-.33-.476-.39a1.573,1.573,0,0,0-.652.01c-2.5.339-4.991.689-7.487,1.027q-5.4.731-10.794,1.451a.86.86,0,0,0-.848.857,22.078,22.078,0,0,0,.1,2.212,72.425,72.425,0,0,1,.577,9.975c-.06,2,.081,4,.171,6,.081,1.85.212,3.7.324,5.546.045.739.04,1.486.148,2.216a63.469,63.469,0,0,1,.749,9.293c0,1.185.04,2.371.068,3.557.115,4.814.26,9.63.333,14.446.027,1.783.182,3.547.378,5.315a1.836,1.836,0,0,0,1.273,1.646c.346.132.692.263,1.04.39a75.861,75.861,0,0,1,8.16,3.507c.727.368,1.467.71,2.207,1.049a14.035,14.035,0,0,0,5.373,1.26c1.013.039,1.183-.217,1.445-1.024A4,4,0,0,0,609,609.9c-.034-1.332-.09-2.666-.194-3.994-.2-2.51-.484-5.015-.642-7.528-.232-3.7-.382-7.4-.573-11.1-.034-.666-.1-1.33-.138-2-.239-4.439-.6-8.873-.622-13.322C606.821,569.364,606.83,566.77,606.83,564.177Zm-22.475-20.332c.151-.452.274-.877.434-1.286.4-1.035.833-2.061,1.241-3.095a12.615,12.615,0,0,0,.819-5.881c-.251-2.73-.367-5.474-.531-8.212-.067-1.11-.067-2.225-.165-3.332-.342-3.84-.717-7.676-1.073-11.514-.082-.884-.142-1.77-.217-2.723-.256.033-.556-.015-.631.095-.379.547-.712,1.127-1.037,1.709-1.589,2.848-3.162,5.7-4.76,8.546a6.106,6.106,0,0,0-.768,3.639c.108,1.181.255,2.359.386,3.538.228,2.063.488,4.122.678,6.188.224,2.436.361,4.88.588,7.315.178,1.918.468,3.826.647,5.744a52.12,52.12,0,0,1,.591,6.2,63.839,63.839,0,0,0,.406,8.656c.211,1.916.371,3.837.56,5.754.146,1.475.279,2.951.458,4.422.331,2.722.677,5.443.8,8.184.027.593.084,1.184.125,1.776.245,3.624.517,7.246.726,10.872.188,3.257.292,6.519.464,9.777a23.392,23.392,0,0,0,.732,4.557,7.5,7.5,0,0,0,3.016.88c.135.024.393-.215.468-.386a2.507,2.507,0,0,0,.164-.862,59.478,59.478,0,0,0-.064-6.892c-.376-5.476-.694-10.953-.681-16.443a89.486,89.486,0,0,0-.628-11.317,86.219,86.219,0,0,1-.721-10.2c-.021-3.713-.331-7.406-.513-11.107a8.264,8.264,0,0,0-1.015-3.607C584.68,544.515,584.524,544.183,584.355,543.845Zm36.372,30.691c-.169,2.737-.328,5.475-.506,8.211a141.451,141.451,0,0,0,.01,14.225c.15,4.223.247,8.445.144,12.671-.03,1.259-.01,2.52,0,3.78a4.183,4.183,0,0,0,.1.879c.021.1.186.173.3.227a.223.223,0,0,0,.2-.07c.2-.312.4-.626.561-.956.992-1.989,1.987-3.976,2.959-5.975,1.513-3.109,1.531-3.116,1.273-6.606-.242-3.256-.251-6.516-.27-9.778-.021-3.557-.1-7.114-.175-10.671-.073-3.335-.25-6.668-.256-10-.014-6.672.052-13.342.1-20.013.007-.963.076-1.925.121-2.887.081-1.777.233-3.553.237-5.33.014-5.262-.03-10.524-.053-15.787a.664.664,0,0,0-.2-.576c-.148-.126-.418.042-.655.458-.658,1.161-1.3,2.328-1.964,3.486a6.9,6.9,0,0,0-.7,1.863,36.4,36.4,0,0,0-.77,7.062c-.169,4.444-.239,8.889-.158,13.339C621.158,559.571,621.268,567.059,620.727,574.537Zm13.856,4.83c-1.273,3.334-2.582,6.559-3.684,9.861-.375,1.122-.69,2.267-1,3.409-1.009,3.721-1.654,7.52-2.387,11.3a.889.889,0,0,0,.014.429.656.656,0,0,0,.249.345,1.487,1.487,0,0,0,.615.217c1.661.107,1.669.552,2.291,1.724.243.458.456.932.7,1.39a.772.772,0,0,0,.3.314c.1.048.329.036.353-.017a14.047,14.047,0,0,0,.58-1.435q3.589-10.98,7.163-21.964,1.169-3.591,2.323-7.187c.064-.2.166-.413-.01-.6a.565.565,0,0,0-.619-.1q-3.072.965-6.138,1.953A6.52,6.52,0,0,0,634.583,579.366ZM593.59,643.282a5.23,5.23,0,0,0,2.4.1c.728-.139,1.451-.3,2.171-.473q4.975-1.177,9.948-2.363a.53.53,0,0,0,.212-.061,1.956,1.956,0,0,0,.453-.444c.039-.064-.088-.28-.191-.367a30.125,30.125,0,0,0-8.19-5.276c-2.614-1.061-5.145-2.291-7.653-3.573-1.386-.708-2.769-1.421-4.168-2.106a13.386,13.386,0,0,0-1.448-.539.221.221,0,0,0-.2.03.8.8,0,0,0-.181.359.882.882,0,0,0,.091.428q3.157,6.87,6.327,13.73A3.3,3.3,0,0,0,593.59,643.282Zm30.9-20.225c-1.1-1.278-2.117-2.455-3.138-3.627a.74.74,0,0,0-.821-.132c-.957.564-1.9,1.16-2.87,1.695-2.207,1.213-4.428,2.4-6.65,3.59-1.8.964-2.042,1.4-1.762,3.341.01.073.031.146.042.218q.57,3.736,1.141,7.471c.146.951.309,1.9.459,2.852.049.306.154.621.448.7.149.041.407-.147.552-.294.364-.369.7-.769,1.032-1.165,3.781-4.474,7.378-9.1,10.981-13.714C624.087,623.763,624.221,623.5,624.494,623.057Zm-66.147,3.1a4.493,4.493,0,0,0,1.083,1.693,59.349,59.349,0,0,1,4.658,6.763,42.032,42.032,0,0,0,3.655,5.3c.6.746,1.281,1.433,1.941,2.132a2.921,2.921,0,0,0,.541.375.5.5,0,0,0,.578-.188,3.691,3.691,0,0,0,.348-.8c.537-2.534,1.04-5.074,1.588-7.606a2.411,2.411,0,0,0-.435-2.1c-1.274-1.635-2.542-3.278-3.874-4.865a25.733,25.733,0,0,0-2.069-2.009,2.688,2.688,0,0,0-2.684-.611c-1.076.271-2.159.523-3.224.834a11.677,11.677,0,0,0-1.64.668A2.168,2.168,0,0,0,558.347,626.159Zm32.238,1.091c-.492,0-.788,0-1.084,0-.148,0-.3.015-.443.022-.2.009-.49.276-.428.406s.115.3.222.352c3.659,1.777,7.265,3.669,11.031,5.217a32.607,32.607,0,0,1,8.252,4.722,7.481,7.481,0,0,0,.928.6.775.775,0,0,0,.414.121c.117-.008.3-.1.326-.188a1.639,1.639,0,0,0,.06-.651c-.13-1.1-.268-2.2-.424-3.3q-.454-3.185-.938-6.366a5.48,5.48,0,0,0-.325-1.056,1.118,1.118,0,0,0-1.037-.7,7.226,7.226,0,0,0-.881.074c-1.825.3-3.647.618-5.472.907a27.428,27.428,0,0,1-7.965.064C592.015,627.37,591.2,627.312,590.585,627.25Zm-4.1,16.508,0-.033c.812.037,1.623.087,2.436.1a4.66,4.66,0,0,0,.871-.114c.061-.01.152-.066.162-.115.029-.126.079-.327.018-.381-1.886-1.655-3.812-3.265-5.674-4.946-2.77-2.5-6.191-3.666-9.632-4.8a.774.774,0,0,0-.753.342c-.064.133-.128.266-.182.4a27.049,27.049,0,0,0-1.622,6.876,6.183,6.183,0,0,0,0,.885.819.819,0,0,0,.68.756c1.1.091,2.208.167,3.313.25Zm18.92-102.569a1.979,1.979,0,0,0-.123-.638q-2.573-4.271-5.177-8.527a.535.535,0,0,0-.913-.132q-2.61,2.4-5.215,4.813c-1.029.956-2.086,1.887-3.057,2.9-1.02,1.066-1.956,2.214-2.92,3.333a1.973,1.973,0,0,0-.344.561.679.679,0,0,0,.049.4c.016.045.132.089.2.081,1.027-.11,2.051-.237,3.077-.344,3.457-.359,6.895-.86,10.314-1.469A16.3,16.3,0,0,0,605.409,541.189Zm-23.175,85.028a2.511,2.511,0,0,0-.415-.549q-2.431-1.742-4.883-3.453a5.915,5.915,0,0,0-.95-.565,4.74,4.74,0,0,0-3.009-.391,24.8,24.8,0,0,0-5.657,1.873,3.32,3.32,0,0,0-.489.337,1.051,1.051,0,0,0,.348.829c1.926,2.241,3.845,4.488,5.791,6.71.978,1.119,1.686,1.178,2.874.341.06-.042.121-.086.179-.13q2.794-2.181,5.586-4.368A7.078,7.078,0,0,0,582.234,626.218ZM626.2,595.382h.014c0,.518-.017,1.036,0,1.553.059,1.477.132,2.953.2,4.43a.318.318,0,0,0,.239.308.47.47,0,0,0,.529-.281,15.39,15.39,0,0,0,.453-1.48c.2-.94.34-1.892.531-2.833a74.447,74.447,0,0,1,4.32-14.423c.289-.68.554-1.371.8-2.069a11.713,11.713,0,0,0,.666-5.022,22.941,22.941,0,0,0-1.028-4.527c-.014-.045-.276-.079-.359-.024a2.409,2.409,0,0,0-.745,1.328q-1.946,5.192-3.858,10.4c-.255.694-.477,1.4-.7,2.105a23.425,23.425,0,0,0-1.072,8.318C626.231,593.9,626.2,594.643,626.2,595.382ZM576.04,632.814a9.1,9.1,0,0,0,2.431,1.151A22.248,22.248,0,0,1,585.336,638c.453.384.876.8,1.342,1.169q2.1,1.641,4.23,3.243a.791.791,0,0,0,.426.059c.13,0,.269-.374.2-.574-.24-.7-.446-1.415-.744-2.09-1.223-2.78-2.458-5.555-3.725-8.316-.556-1.212-1.189-2.388-1.811-3.567a5.808,5.808,0,0,0-.65-.9,1.056,1.056,0,0,0-1.025-.251,2.66,2.66,0,0,0-.595.289q-3.354,2.571-6.685,5.17C576.153,632.351,576.124,632.616,576.04,632.814Zm54.48-2.671c.452-.086.624-.406.812-.719a96.643,96.643,0,0,0,4.771-9.5,2.037,2.037,0,0,0,.068-.211.776.776,0,0,0-.488-.874c-.364-.059-.73-.115-1.1-.137q-5.866-.351-11.731-.688c-.147-.009-.3,0-.442,0a.426.426,0,0,0-.387.612c.368.549.731,1.1,1.144,1.618a51.409,51.409,0,0,1,5.459,7.794A6.62,6.62,0,0,0,630.521,630.143Zm-58.435-10.158c-.063-.09-.091-.171-.148-.205-2.216-1.345-4.417-2.715-6.659-4.016-1.087-.631-2.242-1.147-3.378-1.689-.511-.244-.809-.1-1.023.475-.746,2.015-1.49,4.031-2.2,6.058-.317.909-.57,1.841-.809,2.774a3.848,3.848,0,0,0-.063,1.1c0,.1.208.275.3.261.731-.111,1.464-.225,2.181-.4a87.123,87.123,0,0,0,11.334-3.918C571.805,620.346,571.935,620.131,572.086,619.986Zm-15.726,4.955c.184-.448.375-.848.513-1.264q1.469-4.411,2.917-8.828c.478-1.456.339-1.656-1.218-1.671a38.607,38.607,0,0,0-10.284,1.356,2.6,2.6,0,0,0-.4.186.534.534,0,0,0-.212.569,3.472,3.472,0,0,0,.74,1.09c.766.8,1.532,1.6,2.258,2.433,1.21,1.394,2.384,2.818,3.583,4.223.48.561.969,1.115,1.483,1.645A1.918,1.918,0,0,0,556.36,624.941Zm73.369-17.758a.908.908,0,0,0-.842.243,9.751,9.751,0,0,0-1.97,2.666,14.891,14.891,0,0,1-3.016,3.81c-.542.5-1.035,1.057-1.535,1.6a3.857,3.857,0,0,0-.364.553.486.486,0,0,0,.216.556,8.836,8.836,0,0,0,1.043.362,36.145,36.145,0,0,0,4.164.635,26.09,26.09,0,0,0,6.42-.058c1.538-.205,1.628-.308.895-1.774-.231-.463-.485-.916-.753-1.358-.729-1.2-1.49-2.384-2.2-3.595S630.4,608.381,629.729,607.183ZM619.22,505.523c.093.871.192,1.751.281,2.633.2,1.984.464,3.966.589,5.955.269,4.278.527,8.556.534,12.846a25.765,25.765,0,0,0,.351,3.076.5.5,0,0,0,.092.2c.035.053.1.142.131.134.134-.037.328-.07.378-.166.878-1.7,1.712-3.434,2.612-5.128a7.231,7.231,0,0,0,.43-6c-.289-.838-.589-1.672-.88-2.508-1.311-3.768-2.47-7.583-3.614-11.4a6.949,6.949,0,0,0-.445-1c-.02-.041-.13-.055-.2-.05s-.141.05-.145.084C619.292,504.628,619.259,505.067,619.22,505.523Zm-67.67,33.5c-.022-.208-.036-.43-.068-.649q-1.112-7.459-2.231-14.916c-.121-.8-.293-1.6-.449-2.393-.01-.056-.088-.147-.123-.142-.139.019-.326.027-.4.117a5.755,5.755,0,0,0-1.141,2.608c-.32,1.443-.615,2.894-.865,4.35a15.966,15.966,0,0,1-1.66,5.259.891.891,0,0,0,.18,1.208,37.07,37.07,0,0,0,5.364,4.638,5.569,5.569,0,0,0,.974.511c.083.035.28-.063.341-.156A1.16,1.16,0,0,0,551.55,539.021Zm40.813-9.328c-.252.014-.4.017-.548.032a1.25,1.25,0,0,0-.935.525,4.674,4.674,0,0,0-.466.754c-1.148,2.485-2.3,4.968-3.421,7.467a24.354,24.354,0,0,0-1.382,4.209c-.021.086.126.227.219.32a.233.233,0,0,0,.212.022,1.493,1.493,0,0,0,.366-.249q5.621-5.372,11.236-10.752c.16-.153.3-.326.448-.493a.468.468,0,0,0-.181-.72c-1.442-.328-2.883-.663-4.33-.972A11.688,11.688,0,0,0,592.363,529.692ZM612.93,640.05c.931.16,1.8.323,2.672.453a12.3,12.3,0,0,0,1.327.107c1.588.064,1.961-.178,2.5-1.6.026-.069.06-.135.083-.206q1.816-5.468,3.626-10.939a2.186,2.186,0,0,0,.046-.648.268.268,0,0,0-.087-.2.223.223,0,0,0-.2,0,2.958,2.958,0,0,0-.7.506q-4.346,5.329-8.668,10.678a2.424,2.424,0,0,0-.59,1.175A5.108,5.108,0,0,0,612.93,640.05Zm7.683-1.659a2.435,2.435,0,0,0,0,.312c.011.072.026.185.069.2.115.044.3.1.36.052,1.161-1.029,2.318-2.065,3.455-3.12,1.572-1.458,3.13-2.932,4.689-4.4a.68.68,0,0,0,.13-.983c-.293-.426-.588-.852-.9-1.262a14.61,14.61,0,0,1-2.014-3.172,3.451,3.451,0,0,0-.511-.717c-.174-.223-.655-.223-.764,0-.29.6-.608,1.182-.844,1.8q-1.815,4.765-3.235,9.664C620.883,637.331,620.743,637.9,620.613,638.391Zm-65.186-12.263a5.382,5.382,0,0,0-.387-.717q-3.3-4.161-6.622-8.311a1.464,1.464,0,0,0-.335-.281.454.454,0,0,0-.211-.043.217.217,0,0,0-.239.269,17.526,17.526,0,0,0,.822,3.429c.584,1.825,1.153,3.657,1.8,5.461.495,1.385,1.1,2.732,1.655,4.093a.366.366,0,0,0,.549.1A48.606,48.606,0,0,0,555.427,626.129Zm87.8-51.714c-.014-.148-.019-.3-.041-.442-.336-2.2-.859-4.356-1.4-6.51a.463.463,0,0,0-.313-.257.477.477,0,0,0-.384.126,12.714,12.714,0,0,0-2.171,3.6c-.8,1.911-1.5,3.864-2.233,5.8a2.1,2.1,0,0,0-.03.217.433.433,0,0,0,.557.464c.216-.054.436-.093.643-.168q2.194-.789,4.384-1.591a2.041,2.041,0,0,0,.6-.267,1.416,1.416,0,0,0,.348-.537A1.384,1.384,0,0,0,643.222,574.414Zm-9.354-5.815a2.954,2.954,0,0,0-.084.474c.24,2.51.7,4.987,1.165,7.461a.251.251,0,0,0,.325.218.674.674,0,0,0,.377-.175,8.852,8.852,0,0,0,1.148-2.4,51.651,51.651,0,0,1,2.855-6.51,10.759,10.759,0,0,0,.532-1.219.635.635,0,0,0-.071-.4c-.067-.161-.21-.192-.378-.123C637.751,566.741,635.809,567.649,633.868,568.6Zm-19.538,48.843c-.565,0-1.008-.006-1.45,0a.719.719,0,0,0-.663.485,49.011,49.011,0,0,1-1.878,5.432.408.408,0,0,0-.036.216,1.479,1.479,0,0,0,.13.4c.018.033.15.043.2.015,1.377-.705,2.76-1.4,4.121-2.13a29.177,29.177,0,0,0,4.265-2.772,6.718,6.718,0,0,0,.632-.608c.045-.046.09-.149.068-.194-.057-.116-.14-.3-.229-.308C617.735,617.78,615.972,617.608,614.331,617.443Zm-8.1-78.662a10.211,10.211,0,0,0,.111-2.629,2.24,2.24,0,0,0-.9-1.718,9.956,9.956,0,0,0-3.216-1.446c-.044-.012-.124.065-.17.117a.372.372,0,0,0-.084.177.39.39,0,0,0,.018.219,22.032,22.032,0,0,0,3.437,5.155A.571.571,0,0,0,606.227,538.781Zm21.543,67.054a1.831,1.831,0,0,0-1.662.684,14.775,14.775,0,0,0-2.33,4.217,16.99,16.99,0,0,0-.473,1.682c-.014.054.042.177.085.187a.993.993,0,0,0,.366.005.379.379,0,0,0,.186-.113,26.56,26.56,0,0,0,4.5-6.19.262.262,0,0,0-.165-.341C628.073,605.9,627.86,605.857,627.77,605.834Z" transform="matrix(0.89, -0.457, 0.457, 0.889, -699.958, -131.701)"/></svg>