<svg xmlns="http://www.w3.org/2000/svg" width="112.999" height="30.999" viewBox="0 0 112.999 30.999"><defs><style>.a{fill:#fff;}</style></defs><path class="a" d="M1117.236,8519.581a1.787,1.787,0,0,1-.9.222,1.769,1.769,0,1,1,1.676-1.766,1.948,1.948,0,0,1-.272,1.05l.361.394-.488.52Zm-1.9-1.544a1,1,0,1,0,1-1.082A1.006,1.006,0,0,0,1115.333,8518.037Zm71.334,1.8a1.52,1.52,0,0,1-1.349-.7l.415-.466a1.212,1.212,0,0,0,.956.477c.37,0,.622-.158.622-.4.006-.284-.2-.412-.626-.451-.661-.068-1.251-.245-1.24-1.039a1.1,1.1,0,0,1,1.236-1.024,1.327,1.327,0,0,1,1.163.521l-.438.412a1,1,0,0,0-.721-.284c-.308,0-.558.141-.558.372,0,.306.272.365.674.4.616.06,1.2.313,1.2,1.092,0,.751-.641,1.078-1.315,1.085Zm-36,0a1.514,1.514,0,0,1-1.347-.7l.415-.466a1.2,1.2,0,0,0,.954.477c.37,0,.624-.158.624-.4,0-.284-.205-.412-.629-.451-.661-.068-1.249-.245-1.24-1.039a1.1,1.1,0,0,1,1.236-1.024,1.327,1.327,0,0,1,1.163.521l-.436.412a1,1,0,0,0-.723-.284c-.308,0-.558.141-.558.372,0,.306.272.365.674.4.616.06,1.2.313,1.2,1.092,0,.751-.641,1.078-1.315,1.085Zm24.585-1.773a1.651,1.651,0,0,1,1.668-1.783,1.551,1.551,0,0,1,1.146.52l-.436.469a.972.972,0,0,0-.71-.28.987.987,0,0,0-.981,1.082.954.954,0,0,0,.981,1.048,1.134,1.134,0,0,0,.768-.323l.432.521a1.679,1.679,0,0,1-2.867-1.253Zm-19.33,1.743a1.4,1.4,0,0,1-1.439-1.563v-1.882h.691v1.882c0,.6.312.913.821.89.473-.034.641-.385.641-.89v-1.882h.693v1.882c0,1-.517,1.533-1.339,1.563Zm-33.934,0a1.4,1.4,0,0,1-1.439-1.563v-1.882h.691v1.882c0,.6.312.913.821.89.473-.034.641-.385.641-.89v-1.882h.691v1.882c0,1-.515,1.533-1.336,1.563Zm-20.531,0a1.4,1.4,0,0,1-1.441-1.563v-1.882h.693v1.882c0,.6.312.913.819.89.473-.034.644-.385.644-.89v-1.882h.691v1.882c0,1-.517,1.533-1.339,1.563Zm6.823-.077v-2.344l-.964,1.309h-.124l-.932-1.316v2.352h-.695v-3.368h.8l.911,1.294.913-1.294h.789v3.368Zm-15.1,0v-2.344l-.964,1.309h-.124l-.932-1.316v2.352h-.695v-3.368h.8l.911,1.294.913-1.294h.789v3.368Zm87.4,0v-3.368h2.316v.687h-1.634v.65h1.539v.658h-1.539v.68h1.7v.693Zm-8.179,0-.227-.578h-1.6l-.229.578h-.748l1.4-3.368h.759l1.4,3.368Zm-1.565-1.242h1.076l-.537-1.364Zm-5.525,1.242v-3.364h2.273v.689h-1.578v.8h1.482v.67h-1.482v1.208Zm-3.286,0-.8-1.108h-.5v1.108h-.7v-3.368h1.482a1.1,1.1,0,0,1,1.155,1.136,1.009,1.009,0,0,1-.723,1.059l.858,1.116v.058Zm-1.3-1.743h.793a.451.451,0,0,0,.46-.471.481.481,0,0,0-.468-.511h-.785Zm-19.338,1.743v-.392l1.525-2.333h-1.45v-.644h2.388v.327l-1.5,2.337h1.533v.7Zm-3.907,0v-2.7h-.949v-.669h2.592v.669h-.949v2.7Zm-3.919,0-.8-1.108h-.5v1.108h-.7v-3.368h1.482a1.1,1.1,0,0,1,1.155,1.136,1.009,1.009,0,0,1-.723,1.059l.855,1.116v.058Zm-1.3-1.743h.793a.451.451,0,0,0,.46-.471.481.481,0,0,0-.468-.511h-.785Zm-3.832,1.743-.227-.578h-1.6l-.227.578h-.75l1.4-3.368h.759l1.4,3.368Zm-1.565-1.242h1.075l-.535-1.364Zm-30.241,1.242v-3.368h.691v3.368Zm-11.136,0v-3.368h2.316v.687h-1.634v.65h1.539v.658h-1.539v.68h1.7v.693Zm-3.286,0-.8-1.108h-.5v1.108h-.695v-3.368h1.48a1.1,1.1,0,0,1,1.155,1.136,1.009,1.009,0,0,1-.723,1.059l.857,1.116v.058Zm-1.3-1.743h.793a.451.451,0,0,0,.46-.471.481.481,0,0,0-.468-.511h-.785Zm-5.865,1.743v-3.368h1.473a1.207,1.207,0,0,1,0,2.414h-.776v.954Zm.7-1.643h.776a.472.472,0,0,0,.5-.5.478.478,0,0,0-.5-.509h-.776Zm25.315-7.557c1.384-.353,1.384-5.6,1.384-5.6v-7.366c0-.8-.205-1.221-1.133-1.738v-.4l3.941-.94v9.906c0,4.445-1.948,5.951-4.191,6.541Zm82.044-6.658a3.386,3.386,0,0,1-3.282,1.907s-2.6,0-2.6-2.4c0-2.563,1.9-2.8,5.865-3.834v-1.458c0-2.448-1.315-3.671-2.876-2.824-.725.376-.815.775-.656.8a1.173,1.173,0,0,1,.838.518,1.363,1.363,0,0,1-.342,1.858,1.267,1.267,0,0,1-1.788-.351,1.435,1.435,0,0,1-.068-1.411,3.775,3.775,0,0,1,1.766-1.72,4.359,4.359,0,0,1,2.2-.47c2.968,0,3.782,1.929,3.782,4.706v3.5s-.021,1.648,1.088,1.648a.661.661,0,0,0,.609-.4l.385.165a2.7,2.7,0,0,1-2.649,1.67A2.267,2.267,0,0,1,1183.085,8503.869Zm-2.989-1.082s0,1.555,1.473,1.555a1.693,1.693,0,0,0,1.495-1.2v-3.175C1180.844,8500.482,1180.1,8501.588,1180.1,8502.787Zm-33.581-2.61c0-3.319,2.172-5.694,5.3-5.694,3.282,0,4.824,1.764,4.824,5.436h-7.2c.182,2.3,1.313,3.506,2.831,3.857,1.223.282,3.034-.188,3.6-1.292l.385.21a4.6,4.6,0,0,1-4.734,3.083C1148.553,8505.776,1146.515,8502.931,1146.515,8500.177Zm2.936-1.143h4.413c-.094-2.662-.988-4.152-2.164-4.152C1150.46,8494.882,1149.571,8496.933,1149.451,8499.034Zm-41.525,1.095c0-3.106,1.948-5.646,5.388-5.646,3.466,0,5.391,2.54,5.391,5.646,0,3.082-1.924,5.647-5.391,5.647C1109.874,8505.776,1107.926,8503.211,1107.926,8500.129Zm3.329,0c0,4.26.43,5.248,2.059,5.248s2.04-.988,2.04-5.248-.408-5.247-2.04-5.247S1111.255,8495.872,1111.255,8500.129Zm-15.74,3.74a3.386,3.386,0,0,1-3.282,1.907s-2.6,0-2.6-2.4c0-2.563,1.9-2.8,5.865-3.834v-1.458c0-2.448-1.315-3.671-2.876-2.824-.725.376-.817.775-.659.8a1.161,1.161,0,0,1,.838.518,1.362,1.362,0,0,1-.338,1.858,1.27,1.27,0,0,1-1.79-.351,1.434,1.434,0,0,1-.068-1.411,3.774,3.774,0,0,1,1.766-1.72,4.365,4.365,0,0,1,2.2-.47c2.966,0,3.78,1.929,3.78,4.706v3.5s-.021,1.648,1.088,1.648a.661.661,0,0,0,.609-.4l.387.165a2.708,2.708,0,0,1-2.651,1.67A2.267,2.267,0,0,1,1095.516,8503.869Zm-2.989-1.082s0,1.555,1.473,1.555a1.693,1.693,0,0,0,1.495-1.2v-3.175C1093.275,8500.482,1092.527,8501.588,1092.527,8502.787Zm75.206,2.777v-.4c.883-.282.9-1.249.9-2.472v-5.222c0-.8-.2-1.152-1.131-1.646v-.4l3.986-.94v2.66a5.252,5.252,0,0,1,2.673-2.543,1.966,1.966,0,0,1,1.835.306,1.8,1.8,0,0,1,.158,2.47,1.639,1.639,0,0,1-2.378.188,1.588,1.588,0,0,1-.522-1.152c0-.257-.928-.023-1.766,1.39v4.893c0,1.316.113,2.236.928,2.472v.4Zm-9.624,0v-.4c.883-.282.907-1.249.907-2.472v-5.222c0-.8-.205-1.152-1.133-1.646v-.4l3.986-.94v2.66a5.244,5.244,0,0,1,2.673-2.543,1.961,1.961,0,0,1,1.833.306,1.8,1.8,0,0,1,.16,2.47,1.639,1.639,0,0,1-2.378.188,1.588,1.588,0,0,1-.522-1.152c0-.257-.928-.023-1.766,1.39v4.893c0,1.316.113,2.236.928,2.472v.4Zm-17.912,0v-.4c.859-.282.9-1.272.9-2.472v-5.222c0-.8-.224-1.129-1.155-1.646v-.4l3.964-.94v8.211c0,1.316.113,2.236.928,2.472v.4Zm-11.981,0v-.4c.952,0,1.927-.847,1.927-2.448v-12.676c-3.6-.139-5.414,3.688-5.414,3.688h-.385V8489h14.9v4.728h-.387s-1.813-3.827-5.412-3.688c0,0-.009,0-.021-.009v12.685c0,1.6.975,2.448,1.924,2.448v.4Zm-53.216,0v-.212c.973,0,1.315-1.411,1.315-3.013v-10.092c0-1.459-.319-3.058-1.315-3.058V8489h5.5c3.147,0,6.092-.144,6.092,4,0,3.5-3.6,4.069-4.054,4.069,1.471,0,5.119.259,5.119,4.283,0,4.118-3.24,4.212-7.157,4.212Zm4.621-.4h.883c1.969,0,3.827.047,3.827-3.931,0-3.739-2.309-3.859-3.827-3.859h-.883Zm0-8.189h.883c1.221,0,2.944-.539,2.944-4.022,0-3.507-1.882-3.554-2.944-3.554h-.883ZM1140.74,8491a1.56,1.56,0,0,1,1.54-1.6,1.6,1.6,0,0,1,0,3.2A1.558,1.558,0,0,1,1140.74,8491Zm-38.655,0a1.552,1.552,0,1,1,1.54,1.6A1.574,1.574,0,0,1,1102.084,8491Z" transform="translate(-1075 -8489.001)"/></svg>