<svg xmlns="http://www.w3.org/2000/svg" width="180" height="49" viewBox="0 0 180 49"><defs><style>.a{fill:#080909;}</style></defs><g transform="translate(-142.156 -353.956)"><path class="a" d="M154.168,366.713c.722,0,6.458-.893,6.458-6.434,0-6.545-4.69-6.322-9.7-6.322h-8.766v.3c1.587,0,2.092,2.53,2.092,4.835v15.954c0,2.529-.541,4.759-2.092,4.759v.335h8.766c6.24,0,11.4-.149,11.4-6.657C162.321,367.122,156.513,366.713,154.168,366.713Zm-4.653-12.123h1.407c1.695,0,4.689.074,4.689,5.615,0,5.5-2.742,6.359-4.689,6.359h-1.407Zm1.407,24.916h-1.407V367.2h1.407c2.417,0,6.1.186,6.1,6.1C157.018,379.58,154.06,379.506,150.922,379.506Z"/><path class="a" d="M181.078,378.2c-1.768,0-1.732-2.6-1.732-2.6V370.06c0-4.389-1.3-7.438-6.024-7.438a7,7,0,0,0-3.5.744,5.993,5.993,0,0,0-2.814,2.715,2.255,2.255,0,0,0,.109,2.232,2.035,2.035,0,0,0,2.85.557,2.145,2.145,0,0,0,.541-2.938,1.852,1.852,0,0,0-1.335-.818c-.252-.037-.108-.669,1.046-1.265,2.489-1.338,4.581.6,4.581,4.463v2.306c-6.313,1.636-9.343,2.008-9.343,6.062,0,3.793,4.148,3.793,4.148,3.793,2.561,0,4.689-1.376,5.231-3.012.4,3.012,3.607,3.012,3.607,3.012,2.273,0,3.932-1.45,4.22-2.64l-.613-.26A1.059,1.059,0,0,1,181.078,378.2Zm-6.276-1.9a2.685,2.685,0,0,1-2.381,1.9,2.372,2.372,0,0,1-2.345-2.454c0-1.9,1.191-3.645,4.726-4.463Z"/><path class="a" d="M184.036,364.742c1.479.818,1.8,1.488,1.8,2.752v11.641s0,8.293-2.2,8.85v.632c3.571-.93,6.674-3.309,6.674-10.338V362.622l-6.277,1.488Z"/><path class="a" d="M187.752,359.647a2.53,2.53,0,1,0-2.453-2.529A2.5,2.5,0,0,0,187.752,359.647Z"/><path class="a" d="M203.19,362.622c-5.482,0-8.585,4.017-8.585,8.925,0,4.872,3.1,8.925,8.585,8.925,5.519,0,8.585-4.053,8.585-8.925C211.775,366.639,208.709,362.622,203.19,362.622Zm0,17.219c-2.6,0-3.282-1.562-3.282-8.294s.685-8.293,3.282-8.293,3.247,1.562,3.247,8.293S205.787,379.841,203.19,379.841Z"/><path class="a" d="M220.758,361.432h.613s2.891-6.049,8.621-5.83v20.036c0,2.529-1.551,3.868-3.066,3.868v.632h11.363v-.632c-1.515,0-3.066-1.339-3.066-3.868v-20.05c.021.011.034.017.034.013,5.73-.218,8.621,5.83,8.621,5.83h.615v-7.475H220.758Z"/><path class="a" d="M251.925,375.6V362.622l-6.313,1.488v.632c1.479.818,1.84,1.339,1.84,2.6V375.6c0,1.9-.073,3.458-1.443,3.9v.632H253.4v-.632C252.1,379.135,251.925,377.684,251.925,375.6Z"/><path class="a" d="M249.327,359.647a2.529,2.529,0,0,0,0-5.058,2.53,2.53,0,0,0,0,5.058Z"/><path class="a" d="M264.514,362.622c-4.978,0-8.441,3.757-8.441,9,0,4.352,3.246,8.851,7.972,8.851,4.833,0,6.962-2.938,7.539-4.871l-.613-.334c-.9,1.747-3.787,2.491-5.736,2.045-2.417-.557-4.22-2.454-4.509-6.1H272.2C272.2,365.411,269.744,362.622,264.514,362.622Zm-.181.632c1.873,0,3.3,2.355,3.449,6.564H260.75C260.941,366.5,262.356,363.255,264.334,363.255Z"/><path class="a" d="M287.708,363.292a3.145,3.145,0,0,0-2.922-.483c-.866.371-2.345.93-4.256,4.017v-4.2l-6.349,1.488v.632c1.479.781,1.8,1.339,1.8,2.6V375.6c0,1.933-.036,3.458-1.443,3.9v.632h7.467v-.632c-1.3-.371-1.478-1.822-1.478-3.9v-7.735c1.335-2.231,2.813-2.6,2.813-2.194a2.511,2.511,0,0,0,.83,1.822,2.628,2.628,0,0,0,3.788-.3A2.829,2.829,0,0,0,287.708,363.292Z"/><path class="a" d="M303.038,363.292a3.145,3.145,0,0,0-2.922-.483c-.866.371-2.345.93-4.257,4.017v-4.2l-6.348,1.488v.632c1.478.781,1.8,1.339,1.8,2.6V375.6c0,1.933-.036,3.458-1.443,3.9v.632h7.467v-.632c-1.3-.371-1.479-1.822-1.479-3.9v-7.735c1.335-2.231,2.814-2.6,2.814-2.194a2.511,2.511,0,0,0,.83,1.822,2.628,2.628,0,0,0,3.787-.3A2.829,2.829,0,0,0,303.038,363.292Z"/><path class="a" d="M321.543,377.573a1.059,1.059,0,0,1-.974.632c-1.768,0-1.732-2.6-1.732-2.6V370.06c0-4.389-1.3-7.438-6.024-7.438a7,7,0,0,0-3.5.744,5.993,5.993,0,0,0-2.814,2.715,2.255,2.255,0,0,0,.109,2.232,2.035,2.035,0,0,0,2.85.557,2.145,2.145,0,0,0,.541-2.938,1.852,1.852,0,0,0-1.335-.818c-.252-.037-.108-.669,1.046-1.265,2.489-1.338,4.581.6,4.581,4.463v2.306c-6.313,1.636-9.343,2.008-9.343,6.062,0,3.793,4.149,3.793,4.149,3.793,2.561,0,4.689-1.376,5.231-3.012.4,3.012,3.607,3.012,3.607,3.012,2.273,0,3.932-1.45,4.22-2.64Zm-7.25-1.265a2.685,2.685,0,0,1-2.381,1.9,2.372,2.372,0,0,1-2.345-2.454c0-1.9,1.191-3.645,4.726-4.463Z"/><path class="a" d="M143.313,401.018v1.505H142.2V397.2h2.344a1.909,1.909,0,0,1,0,3.817Zm0-1.087h1.236a.751.751,0,0,0,.8-.8.76.76,0,0,0-.8-.806h-1.236Z"/><path class="a" d="M154.85,402.523h-1.229l-1.272-1.749h-.8v1.749h-1.108V397.2H152.8a1.74,1.74,0,0,1,1.84,1.795,1.6,1.6,0,0,1-1.151,1.672l1.364,1.765Zm-3.3-4.3v1.551h1.264a.716.716,0,0,0,.732-.745.761.761,0,0,0-.746-.806Z"/><path class="a" d="M162.643,402.523h-3.787V397.2h3.687v1.087h-2.6v1.027h2.451v1.042h-2.451v1.072h2.7Z"/><path class="a" d="M171.111,398.828l-1.535,2.068h-.2l-1.485-2.084v3.719h-1.108v-5.322h1.271l1.449,2.045,1.456-2.045h1.258v5.322h-1.108Z"/><path class="a" d="M176.594,402.523V397.2h1.1v5.322Z"/><path class="a" d="M186.533,397.208v2.973c0,1.582-.824,2.425-2.132,2.471a2.228,2.228,0,0,1-2.4-2.471v-2.973h1.1v2.973c0,.951.5,1.445,1.307,1.407.753-.053,1.023-.608,1.023-1.407v-2.973Z"/><path class="a" d="M195.164,398.828l-1.535,2.068h-.2l-1.485-2.084v3.719h-1.108v-5.322h1.272l1.449,2.045,1.456-2.045h1.257v5.322h-1.108Z"/><path class="a" d="M210.239,401.512l.576.623-.775.822-.6-.662a2.9,2.9,0,0,1-1.435.35,2.794,2.794,0,1,1,2.671-2.791A3.069,3.069,0,0,1,210.239,401.512ZM208,398.143a1.594,1.594,0,0,0-1.6,1.711,1.6,1.6,0,1,0,1.6-1.711Z"/><path class="a" d="M219.239,397.208v2.973c0,1.582-.824,2.425-2.131,2.471a2.229,2.229,0,0,1-2.4-2.471v-2.973h1.1v2.973c0,.951.5,1.445,1.307,1.407.753-.053,1.023-.608,1.023-1.407v-2.973Z"/><path class="a" d="M226.9,401.611h-2.551l-.363.912h-1.193l2.231-5.322h1.208l2.23,5.322h-1.2Zm-1.272-3.208-.86,2.159h1.712Z"/><path class="a" d="M236.665,402.523h-1.229l-1.272-1.749h-.8v1.749h-1.108V397.2h2.359a1.74,1.74,0,0,1,1.84,1.795,1.6,1.6,0,0,1-1.151,1.672l1.364,1.765Zm-3.3-4.3v1.551h1.265a.715.715,0,0,0,.731-.745.76.76,0,0,0-.746-.806Z"/><path class="a" d="M241.681,398.257h-1.513V397.2h4.127v1.057h-1.513v4.266h-1.1Z"/><path class="a" d="M248.024,397.2h3.8v.517l-2.387,3.695h2.444v1.11H247.9v-.616l2.43-3.688h-2.309Z"/><path class="a" d="M263.859,398.486a1.593,1.593,0,0,0-1.151-.449c-.49,0-.888.22-.888.585,0,.487.434.578,1.073.639.981.091,1.911.494,1.911,1.726,0,1.187-1.023,1.7-2.1,1.711a2.429,2.429,0,0,1-2.174-1.1l.661-.737a1.925,1.925,0,0,0,1.521.753c.59,0,.994-.252.994-.632.007-.449-.327-.654-1-.714-1.051-.106-1.989-.388-1.975-1.642a1.754,1.754,0,0,1,1.968-1.62,2.122,2.122,0,0,1,1.854.821Z"/><path class="a" d="M273.294,397.208v2.973c0,1.582-.824,2.425-2.132,2.471a2.228,2.228,0,0,1-2.4-2.471v-2.973h1.1v2.973c0,.951.5,1.445,1.307,1.407.753-.053,1.023-.608,1.023-1.407v-2.973Z"/><path class="a" d="M282.01,402.523h-1.229l-1.271-1.749h-.8v1.749H277.6V397.2h2.359a1.74,1.74,0,0,1,1.84,1.795,1.6,1.6,0,0,1-1.151,1.672l1.364,1.765Zm-3.3-4.3v1.551h1.265a.715.715,0,0,0,.731-.745.76.76,0,0,0-.746-.806Z"/><path class="a" d="M286.016,402.523v-5.315h3.623V398.3h-2.515v1.262h2.359v1.057h-2.359v1.908Z"/><path class="a" d="M296.949,401.611H294.4l-.363.912h-1.193l2.231-5.322h1.208l2.23,5.322h-1.2Zm-1.272-3.208-.86,2.159h1.712Z"/><path class="a" d="M306.412,401.877a2.54,2.54,0,0,1-1.911.783,2.506,2.506,0,0,1-2.657-2.761,2.621,2.621,0,0,1,2.657-2.821,2.477,2.477,0,0,1,1.826.821l-.7.738a1.595,1.595,0,0,0-2.692,1.27,1.511,1.511,0,0,0,1.563,1.657,1.817,1.817,0,0,0,1.222-.509Z"/><path class="a" d="M314.127,402.523H310.34V397.2h3.687v1.087h-2.6v1.027h2.451v1.042h-2.451v1.072h2.7Z"/><path class="a" d="M321.209,398.486a1.593,1.593,0,0,0-1.151-.449c-.49,0-.888.22-.888.585,0,.487.434.578,1.073.639.981.091,1.911.494,1.911,1.726,0,1.187-1.023,1.7-2.1,1.711a2.429,2.429,0,0,1-2.174-1.1l.661-.737a1.925,1.925,0,0,0,1.521.753c.589,0,.994-.252.994-.632.007-.449-.327-.654-1-.714-1.051-.106-1.989-.388-1.975-1.642a1.754,1.754,0,0,1,1.968-1.62,2.122,2.122,0,0,1,1.854.821Z"/></g></svg>