<svg xmlns="http://www.w3.org/2000/svg" width="78.626" height="82.493" viewBox="0 0 78.626 82.493"><defs><style>.a{fill:#b0b0b0;}</style></defs><g transform="translate(-10.757 -8.796)"><path d="M67.673,77.605A1.173,1.173,0,0,1,66.5,76.433,19.38,19.38,0,0,0,47.136,57.08a1.173,1.173,0,1,1,0-2.346A19.38,19.38,0,0,0,66.5,35.382a1.174,1.174,0,0,1,2.347,0A19.38,19.38,0,0,0,88.21,54.734a1.173,1.173,0,1,1,0,2.346A19.38,19.38,0,0,0,68.847,76.433,1.173,1.173,0,0,1,67.673,77.605Zm-13.49-21.7A21.811,21.811,0,0,1,67.673,69.39a21.811,21.811,0,0,1,13.49-13.483,21.811,21.811,0,0,1-13.49-13.483A21.81,21.81,0,0,1,54.183,55.907Z"/><path d="M36.379,86.4a1.173,1.173,0,0,1-1.174-1.173A14.486,14.486,0,0,0,20.732,70.764a1.173,1.173,0,1,1,0-2.346A14.486,14.486,0,0,0,35.206,53.952a1.174,1.174,0,0,1,2.347,0A14.486,14.486,0,0,0,52.026,68.418a1.173,1.173,0,1,1,0,2.346A14.486,14.486,0,0,0,37.553,85.229,1.173,1.173,0,0,1,36.379,86.4ZM26.906,69.591a16.907,16.907,0,0,1,9.473,9.468,16.908,16.908,0,0,1,9.473-9.468,16.907,16.907,0,0,1-9.473-9.468A16.907,16.907,0,0,1,26.906,69.591Z"/><path d="M53,42.419a1.173,1.173,0,0,1-1.174-1.173A14.486,14.486,0,0,0,37.357,26.781a1.173,1.173,0,1,1,0-2.346A14.486,14.486,0,0,0,51.831,9.969a1.174,1.174,0,0,1,2.347,0A14.486,14.486,0,0,0,68.651,24.435a1.173,1.173,0,1,1,0,2.346A14.486,14.486,0,0,0,54.178,41.246,1.173,1.173,0,0,1,53,42.419ZM43.531,25.608A16.908,16.908,0,0,1,53,35.076a16.907,16.907,0,0,1,9.473-9.468A16.908,16.908,0,0,1,53,16.14,16.907,16.907,0,0,1,43.531,25.608Z"/><path class="a" d="M17.8,46.329a7.037,7.037,0,1,1,7.041-7.037A7.047,7.047,0,0,1,17.8,46.329Zm0-11.729a4.692,4.692,0,1,0,4.694,4.692A4.7,4.7,0,0,0,17.8,34.6Z"/><path class="a" d="M78.43,91.289a5.082,5.082,0,1,1,5.085-5.082A5.089,5.089,0,0,1,78.43,91.289Zm0-7.819a2.737,2.737,0,1,0,2.738,2.737A2.74,2.74,0,0,0,78.43,83.47Z"/><path class="a" d="M82.342,32.645a5.082,5.082,0,1,1,5.085-5.082A5.09,5.09,0,0,1,82.342,32.645Zm0-7.819a2.737,2.737,0,1,0,2.738,2.737A2.74,2.74,0,0,0,82.342,24.826Z"/></g></svg>