<svg xmlns="http://www.w3.org/2000/svg" width="66.001" height="69" viewBox="0 0 66.001 69"><defs><style>.a{fill:none;}.b{fill:#b2b2b2;}</style></defs><g transform="translate(-185 -2704)"><g transform="translate(175.377 2693.129)"><path class="a" d="M51.175,49.978a3.9,3.9,0,1,0,3.919,3.9A3.916,3.916,0,0,0,51.175,49.978Z"/><path d="M70.982,45.37l4.611-10.408a.354.354,0,0,0-.145-.449l-9.881-5.725L63.148,17.672a.357.357,0,0,0-.388-.278L51.387,18.54,42.86,10.961a.356.356,0,0,0-.473,0L33.86,18.54,22.484,17.394a.341.341,0,0,0-.383.274l-2.421,11.12L9.8,34.514a.353.353,0,0,0-.148.449L14.263,45.37,9.653,55.78a.354.354,0,0,0,.147.448l9.879,5.725L22.1,73.071a.369.369,0,0,0,.385.278L33.86,72.2l8.526,7.578a.358.358,0,0,0,.475,0L51.387,72.2l11.376,1.146a.39.39,0,0,0,.386-.289l2.417-11.106,9.881-5.725a.353.353,0,0,0,.145-.449Zm-5.91,16.048a.357.357,0,0,0-.168.23L62.518,72.611,51.3,71.481a.419.419,0,0,0-.269.089l-8.409,7.471L34.218,71.57a.364.364,0,0,0-.238-.091L22.729,72.611,20.342,61.65a.351.351,0,0,0-.17-.231l-9.738-5.643,4.545-10.261a.361.361,0,0,0,0-.288L10.434,34.966l9.74-5.644a.349.349,0,0,0,.168-.231l2.387-10.96,11.215,1.127a.361.361,0,0,0,.272-.086L42.623,11.7l8.406,7.469a.352.352,0,0,0,.281.088L62.518,18.13,64.9,29.09a.354.354,0,0,0,.168.231l9.743,5.646L70.268,45.227a.349.349,0,0,0,0,.285l4.546,10.262Z"/><path class="b" d="M34.072,42.889a6.026,6.026,0,1,0-6.057-6.026A6.048,6.048,0,0,0,34.072,42.889Zm0-11.343h0a5.317,5.317,0,1,1-5.344,5.317A5.337,5.337,0,0,1,34.072,31.547Z"/><path class="b" d="M51.175,47.853a6.025,6.025,0,1,0,6.057,6.024A6.047,6.047,0,0,0,51.175,47.853Zm0,11.341h0a5.317,5.317,0,1,1,5.344-5.317A5.336,5.336,0,0,1,51.175,59.194Z"/><path class="b" d="M56.875,30.838h0a.355.355,0,0,0-.249.1L28.119,59.3a.354.354,0,0,0,.252.605h0a.34.34,0,0,0,.245-.1L57.128,31.443a.356.356,0,0,0,0-.5A.36.36,0,0,0,56.875,30.838Z"/></g></g></svg>