<?xml version="1.0" encoding="utf-8"?>
<!-- Generator: Adobe Illustrator 25.2.1, SVG Export Plug-In . SVG Version: 6.00 Build 0)  -->
<svg version="1.1" id="Layer_1" xmlns="http://www.w3.org/2000/svg" xmlns:xlink="http://www.w3.org/1999/xlink" x="0px" y="0px"
	 viewBox="0 0 15.8 20" style="enable-background:new 0 0 15.8 20;" xml:space="preserve">
<style type="text/css">
	.st0{fill:#FFFFFF;}
</style>
<g transform="translate(0,-952.36218)">
	<path class="st0" d="M13.1,953.3c-1.5,0-2.7,1.2-2.7,2.7c0,0.3,0.1,0.7,0.2,1l-5.9,3.6c-0.5-0.6-1.2-0.9-2-0.9
		c-1.5,0-2.7,1.2-2.7,2.7s1.2,2.7,2.7,2.7c0.8,0,1.5-0.4,2-0.9l5.9,3.6c-0.1,0.3-0.2,0.6-0.2,1c0,1.5,1.2,2.7,2.7,2.7
		s2.7-1.2,2.7-2.7s-1.2-2.7-2.7-2.7c-0.8,0-1.6,0.4-2.1,1l-5.9-3.6c0.1-0.3,0.2-0.7,0.2-1.1c0-0.4-0.1-0.7-0.2-1.1l5.9-3.6
		c0.5,0.6,1.3,1,2.1,1c1.5,0,2.7-1.2,2.7-2.7S14.6,953.3,13.1,953.3z M13.1,954.1c1,0,1.9,0.8,1.9,1.9s-0.8,1.9-1.9,1.9
		s-1.9-0.8-1.9-1.9S12.1,954.1,13.1,954.1z M2.6,960.5c1,0,1.9,0.8,1.9,1.9s-0.8,1.9-1.9,1.9s-1.9-0.8-1.9-1.9S1.6,960.5,2.6,960.5z
		 M13.1,966.9c1,0,1.9,0.8,1.9,1.9s-0.8,1.9-1.9,1.9s-1.9-0.8-1.9-1.9c0-0.3,0.1-0.6,0.2-0.9c0,0,0,0,0-0.1
		C11.8,967.3,12.4,966.9,13.1,966.9z"/>
</g>
</svg>
