<?xml version="1.0" encoding="utf-8"?>
<!-- Generator: Adobe Illustrator 25.2.1, SVG Export Plug-In . SVG Version: 6.00 Build 0)  -->
<svg version="1.1" id="Layer_1" xmlns="http://www.w3.org/2000/svg" xmlns:xlink="http://www.w3.org/1999/xlink" x="0px" y="0px"
	 viewBox="0 0 16 20" style="enable-background:new 0 0 16 20;" xml:space="preserve">
<style type="text/css">
	.st0{fill:#010101;}
</style>
<g>
	<path class="st0" d="M16,9.6c0-4.4-3.6-8-8-8s-8,3.6-8,8c0,1.3,0.3,2.7,1,3.9l0.1,0.1L0,17.7l4.1-1.1l0.1,0.1c1.2,0.6,2.5,1,3.8,1
		C12.4,17.6,16,14,16,9.6z M8,16.8c-1.3,0-2.6-0.4-3.7-1l-0.2-0.1l-3,0.8l0.8-3l-0.1-0.2c-0.7-1.1-1.1-2.4-1.1-3.7
		c0-4,3.2-7.2,7.2-7.2s7.2,3.2,7.2,7.2C15.1,13.5,11.9,16.8,8,16.8z"/>
	<path class="st0" d="M11.1,11.2l-0.2-0.1c-0.3-0.2-0.6-0.3-0.9-0.2c-0.1,0-0.3,0.3-0.3,0.4c-0.1,0.1-0.1,0.2-0.2,0.3
		c-0.2,0.3-0.5,0.3-0.8,0.2c-1.3-0.5-2.3-1.4-3-2.5C5.6,9.1,5.5,8.8,5.8,8.4C6,8.1,6.2,8,6.2,7.8S6.1,7.2,6,7.1V6.9
		C5.8,6.6,5.7,6.3,5.5,6.2c-0.1,0-0.1,0-0.2,0C5.1,6.2,5,6.3,4.9,6.4C4.5,6.6,4.3,7.1,4.3,7.7c0,0.2,0,0.3,0.1,0.4
		c0.1,0.3,0.2,0.7,0.5,1.1C5,9.4,5.1,9.7,5.3,10c0.6,0.8,1.4,1.5,2.2,2c0.5,0.3,0.9,0.5,1.4,0.6H9c0.5,0.2,0.9,0.3,1.4,0.2
		s1-0.4,1.2-0.9c0-0.1,0.1-0.2,0.1-0.4C11.6,11.5,11.3,11.3,11.1,11.2z"/>
</g>
</svg>
