<svg width="12" height="12" viewBox="0 0 12 12" fill="none" xmlns="http://www.w3.org/2000/svg">
<path fill-rule="evenodd" clip-rule="evenodd" d="M2.77744 0.16877L2.76085 0.167671C1.99269 0.131931 0.908689 1.05557 0.508147 1.72362C0.0686649 2.32391 0.0602151 3.1211 0.444002 4.0432L0.504507 4.18245C1.51579 6.67301 5.3106 10.463 7.79141 11.5007C8.74062 11.9447 9.5866 11.9529 10.2531 11.4729C10.8392 11.1379 11.8002 10.0231 11.7724 9.23145C11.7461 8.90572 11.5947 8.63981 11.3595 8.39776L11.3021 8.34073L11.1423 8.19299C10.5637 7.67564 9.56205 6.93906 9.25222 6.87395C8.88844 6.79811 8.64179 6.866 8.2527 7.08053L8.1078 7.16293C7.83112 7.32248 7.73219 7.34977 7.60112 7.30194C6.21692 6.7337 5.24085 5.75273 4.66886 4.34563C4.63168 4.24138 4.65006 4.15032 4.77038 3.92957L4.83376 3.817C5.09601 3.35899 5.18392 3.10007 5.10132 2.70137L5.08674 2.6497C4.95124 2.25524 4.12083 1.14231 3.65974 0.657803L3.58546 0.582652C3.34516 0.346656 3.08093 0.194897 2.77744 0.16877ZM2.71296 1.02065L2.7446 1.02673C2.79996 1.04235 2.86524 1.08069 2.93875 1.14386L2.9923 1.19282L3.09336 1.29921C3.48539 1.73206 4.24489 2.75282 4.27001 2.87488C4.29375 2.98946 4.2675 3.08523 4.1431 3.31092L4.07801 3.42598C3.80408 3.90565 3.71929 4.21493 3.8767 4.65231C4.5412 6.28793 5.6849 7.43736 7.29588 8.09829C7.71136 8.25023 8.00589 8.1895 8.42319 7.96333L8.56615 7.8826C8.84929 7.71887 8.95295 7.68331 9.07915 7.70962C9.20247 7.73554 10.3059 8.56372 10.7104 8.9529L10.7576 8.99983C10.862 9.1073 10.919 9.20745 10.9251 9.28176C10.9307 9.45544 10.7568 9.78173 10.4498 10.1379C10.2312 10.3914 9.94739 10.6506 9.82432 10.7366L9.79491 10.7556C9.39733 11.0393 8.90632 11.0515 8.25703 10.7749L8.13342 10.7196C5.89044 9.78106 2.36303 6.28466 1.34425 3.98638L1.28388 3.84433C0.968198 3.14609 0.942008 2.63563 1.16868 2.26422L1.21413 2.1962C1.47684 1.7612 2.26857 1.07604 2.66278 1.0233L2.71296 1.02065ZM7.41277 0.308834L7.47045 0.311352C9.76282 0.567223 11.5731 2.38507 11.8308 4.68949C11.8569 4.92372 11.6893 5.13495 11.4563 5.16128C11.2233 5.18761 11.0132 5.01907 10.987 4.78483C10.7737 2.87674 9.27482 1.37159 7.37676 1.15973C7.14375 1.13372 6.97582 0.922718 7.00169 0.688446C7.02325 0.493219 7.17258 0.343437 7.35661 0.313985L7.41277 0.308834ZM7.44751 2.32556L7.50479 2.33281C8.67633 2.56239 9.59181 3.4828 9.82016 4.66064C9.86501 4.892 9.71482 5.11611 9.4847 5.1612C9.25458 5.2063 9.03167 5.0553 8.98682 4.82394C8.82462 3.98732 8.17451 3.3337 7.34236 3.17063C7.11224 3.12554 6.96205 2.90143 7.00691 2.67007C7.04429 2.47727 7.20531 2.34028 7.39112 2.32607L7.44751 2.32556Z" fill="black"/>
</svg>
