<?xml version="1.0" encoding="utf-8"?>
<!-- Generator: Adobe Illustrator 25.0.0, SVG Export Plug-In . SVG Version: 6.00 Build 0)  -->
<svg version="1.1" id="Layer_1" xmlns="http://www.w3.org/2000/svg" xmlns:xlink="http://www.w3.org/1999/xlink" x="0px" y="0px"
	 viewBox="0 0 25 25" style="enable-background:new 0 0 25 25;" xml:space="preserve">
<style type="text/css">
	.st0{fill-rule:evenodd;clip-rule:evenodd;fill:#B8B8B8;}
	.st1{fill:#B8B8B8;}
</style>
<path class="st0" d="M21.7,0H3.3C1.5,0,0,1.5,0,3.3v18.4C0,23.5,1.5,25,3.3,25h6.9c-0.1,0-0.2-0.1-0.2-0.2v-9.4v-0.2H8.2
	c-0.1,0-0.2-0.1-0.2-0.2v-2.9c0-0.1,0.1-0.2,0.2-0.2H10V9c0-1.9,1.6-3.5,3.5-3.5h3.3c0.1,0,0.2,0.1,0.2,0.2v2.9
	c0,0.1-0.1,0.2-0.2,0.2h-2c-0.5,0-0.9,0.4-0.9,0.9v2h2.8c0.1,0,0.3,0.1,0.2,0.3L16.7,15c0,0.1-0.1,0.2-0.2,0.2H14v9.6
	c0,0.1-0.1,0.2-0.2,0.2h8c1.8,0,3.3-1.5,3.3-3.3V3.3C25,1.5,23.5,0,21.7,0z"/>
</svg>
