<?xml version="1.0" encoding="utf-8"?>
<!-- Generator: Adobe Illustrator 25.0.0, SVG Export Plug-In . SVG Version: 6.00 Build 0)  -->
<svg version="1.1" id="Layer_1" xmlns="http://www.w3.org/2000/svg" xmlns:xlink="http://www.w3.org/1999/xlink" x="0px" y="0px"
	 viewBox="0 0 25 25" style="enable-background:new 0 0 25 25;" xml:space="preserve">
<style type="text/css">
	.st0{fill-rule:evenodd;clip-rule:evenodd;fill:#B8B8B8;}
	.st1{fill:#B8B8B8;}
</style>
<g>
	<path class="st1" d="M19.1,4.6c-0.8,0-1.5,0.7-1.5,1.5c0,0.8,0.7,1.5,1.5,1.5c0.8,0,1.5-0.7,1.5-1.5C20.5,5.3,19.9,4.6,19.1,4.6z
		 M12.5,6.5c-3.4,0-6.2,2.8-6.2,6.2s2.8,6.2,6.2,6.2s6.2-2.8,6.2-6.2S15.9,6.5,12.5,6.5z M12.5,16.6c-2.2,0-4-1.8-4-4
		c0-2.2,1.8-4,4-4c2.2,0,4,1.8,4,4C16.5,14.8,14.7,16.6,12.5,16.6z M25,7.5C25,3.4,21.6,0,17.5,0H7.5C3.4,0,0,3.4,0,7.5v9.9
		C0,21.6,3.4,25,7.5,25h9.9c4.2,0,7.5-3.4,7.5-7.5V7.5z M22.6,17.5c0,2.9-2.3,5.2-5.2,5.2H7.5c-2.9,0-5.2-2.3-5.2-5.2V7.5
		c0-2.9,2.3-5.2,5.2-5.2h9.9c2.9,0,5.2,2.3,5.2,5.2V17.5z"/>
</g>
</svg>
