<?xml version="1.0" encoding="utf-8"?>
<!-- Generator: Adobe Illustrator 25.0.0, SVG Export Plug-In . SVG Version: 6.00 Build 0)  -->
<svg version="1.1" id="Layer_1" xmlns="http://www.w3.org/2000/svg" xmlns:xlink="http://www.w3.org/1999/xlink" x="0px" y="0px"
	 viewBox="0 0 25 25" style="enable-background:new 0 0 25 25;" xml:space="preserve">
<style type="text/css">
	.st0{fill-rule:evenodd;clip-rule:evenodd;fill:#B8B8B8;}
	.st1{fill:#B8B8B8;}
</style>
<g>
	<path class="st1" d="M13.3,11.5L13.3,11.5C13.3,11.5,13.3,11.5,13.3,11.5L13.3,11.5z"/>
	<path class="st1" d="M21.7,0H3.3C1.5,0,0,1.5,0,3.3v18.4C0,23.5,1.5,25,3.3,25h18.4c1.8,0,3.3-1.5,3.3-3.3V3.3
		C25,1.5,23.5,0,21.7,0z M8.7,19c0,0.1-0.1,0.2-0.2,0.2H5.9c-0.1,0-0.2-0.1-0.2-0.2v-8.6c0-0.1,0.1-0.2,0.2-0.2h2.6
		c0.1,0,0.2,0.1,0.2,0.2V19z M7.1,9C6.2,9,5.5,8.3,5.5,7.4c0-0.9,0.7-1.6,1.6-1.6c0.9,0,1.6,0.7,1.6,1.6C8.7,8.3,8,9,7.1,9z
		 M19.5,19c0,0.1-0.1,0.2-0.2,0.2h-2.6c-0.1,0-0.2-0.1-0.2-0.2v-4.6c0-1.2-0.4-2-1.5-2c-0.8,0-1.3,0.6-1.5,1.1
		c-0.1,0.2-0.1,0.5-0.1,0.7V19c0,0.1-0.1,0.2-0.2,0.2h-2.6c-0.1,0-0.2-0.1-0.2-0.2c0-1.2,0-7.2,0-8.6c0-0.1,0.1-0.2,0.2-0.2h2.6
		c0.1,0,0.2,0.1,0.2,0.2v1.1c0.4-0.6,1.1-1.5,2.7-1.5c2,0,3.5,1.3,3.5,4.1V19z"/>
</g>
</svg>
