<?xml version="1.0" encoding="utf-8"?>
<!-- Generator: Adobe Illustrator 25.2.0, SVG Export Plug-In . SVG Version: 6.00 Build 0)  -->
<svg version="1.1" id="Layer_1" xmlns="http://www.w3.org/2000/svg" xmlns:xlink="http://www.w3.org/1999/xlink" x="0px" y="0px"
	 viewBox="0 0 7406.61 3224.35" style="enable-background:new 0 0 7406.61 3224.35;" xml:space="preserve">
<style type="text/css">
	.st0{display:none;fill:#FFFFFF;}
	.st1{fill:#FFFFFF;}
</style>
<path id="r_curve_2_" class="st0" d="M5371.33,1100.51c0,0,0.76-4.48-4.61-5.3c0,0-7.97-1.48-18.27,3.94c0,0-12.08,5.7-17.58,10.2
	c0,0-11.01,8.15-14.36,11.57c0,0-24.82,23.16-40.86,49.96v10.17h-5.49v-49.5l5.17-1.37l0.32,6.92c0,0,30.33-45.81,49.64-65.01
	c0,0,24.35-25.9,35.54-32.75l16.36,54.45l3.05,10.96l-8.51,2.6C5371.73,1107.35,5371.17,1102.93,5371.33,1100.51z"/>
<g>
	<rect width="7406.61" height="3224.35"/>
	<g>
		<path id="B_curve_center" class="st1" d="M894.76,1177.99v-21.36h39.22c0,0,56.34,0.31,60.39,1.9
			c4.04,1.59,47.98,2.95,79.29,21.77c31.3,18.82,40.75,35.35,54.57,54.74s75.62-36.96,75.62-36.96l-40.31-27.13l-58.78-14.32
			l-62.14-12.82l-70.94-4.17h-76.91H876v42.26v39.65h18.75V1177.99z"/>
		<path id="B_curve4" class="st1" d="M894.39,1506.78v28.09c0,0,85.17-0.22,90.09-0.4c4.92-0.18,46.94-1.59,76.64-12.3
			c29.7-10.7,52.52-34.61,61.3-54.52s13.78-35.28,14.86-39.69c1.08-4.41,138.89,8.37,138.89,8.37s-18.4,52.7-19.98,54.26
			c-1.58,1.57-85.18,40.17-85.18,40.17l-188.23,21.91H879.73l-2.63-31.3l3.68-26.09l13.62,1.04V1506.78z"/>
		<path id="B_curve_3" class="st1" d="M893.15,765.87v-20.72l66.17,0.24c0,0,43.05,0.05,73.2,17.05
			c30.16,17,46.34,43.69,55.14,69.77c8.8,26.08,127.73-24.2,127.73-24.2l-92.19-43.04l-50.28-28.57l-78.62-9.78h-78.22h-35.12
			c0,0,1.2,68.09,0,69.26c-1.2,1.17,0,32.09,0,32.09h12.18V765.87z"/>
		<path id="B_curve2" class="st1" d="M648.65,1556.37v-9.65c0,0,9.85-0.08,17.13-3.08c7.28-2.99,18.44-10.26,27.86-24.59
			c9.41-14.34,16.06-37.81,17.68-45.08s7.4-41.67,8-58.87s0-41.08,0-41.08h110.63v182.35H648.65z"/>
		<path id="B_curve1" class="st1" d="M648.65,722.31v9.65c0,0,9.85,0.08,17.13,3.08s18.44,10.26,27.86,24.59
			s16.06,37.81,17.68,45.08c1.62,7.27,7.4,41.67,8,58.87c0.61,17.2,0,41.08,0,41.08h110.63V722.31H648.65z"/>
		<path id="a_curve1" class="st1" d="M1563.52,1079.04c0,0-4.31-0.59-3.11-6.45c1.2-5.86,9.28-18.29,31.18-30.09
			c21.89-11.8,37.15-17.09,61.37-17.11c0,0,14.31,0.24,29.44,6.48c15.13,6.24,14.13-26.64,14.13-26.64l-24.81-1.26l-33.38,7.64
			c0,0-19.95,4.08-21.92,4.84c-1.98,0.76-19.37,5.45-24.73,9.11c-5.36,3.66-13.67,6.69-17.46,10.56
			c-3.79,3.87-15.29,10.39-16.1,12.73s-8.05,14.58-9.07,18.29s-4.23,8.37-3.88,11.7c0.36,3.33,3.44,9.43,4.61,10.03
			c1.18,0.6,10.25-0.08,10.85-1.05S1563.52,1079.04,1563.52,1079.04z"/>
		<path id="a_curve1_1_" class="st1" d="M6225.72,1079.04c0,0-4.31-0.59-3.11-6.45c1.21-5.86,9.28-18.29,31.18-30.09
			c21.89-11.8,37.15-17.09,61.37-17.11c0,0,14.31,0.24,29.44,6.48c15.13,6.24,14.13-26.64,14.13-26.64l-24.81-1.26l-33.38,7.64
			c0,0-19.95,4.08-21.92,4.84c-1.98,0.76-19.37,5.45-24.73,9.11c-5.36,3.66-13.67,6.69-17.46,10.56s-15.29,10.39-16.1,12.73
			c-0.81,2.34-8.05,14.58-9.07,18.29s-4.23,8.37-3.88,11.7c0.36,3.33,3.44,9.43,4.61,10.03s10.25-0.08,10.85-1.05
			C6223.43,1086.83,6225.72,1079.04,6225.72,1079.04z"/>
		<path id="a_curve" class="st1" d="M1740.32,1293.83c0,0-68.7,15.26-101.23,39.85c0,0-34.29,22.41-48.08,54.02
			c0,0-8.72,19.75-9.73,34.29c-1.01,14.54-45.67-74.09-45.67-74.09l-2.38-10.57l-5.07-7.79c0,0,67.91-25.36,111.59-32.85
			l100.55-24.58v21.3"/>
		<path id="a_curve_1_" class="st1" d="M6409.48,1293.14c0,0-70.42,15.26-103.77,39.85c0,0-35.16,22.41-49.29,54.02
			c0,0-8.94,19.75-9.97,34.29c-1.03,14.54-46.82-74.09-46.82-74.09l-2.44-10.57l-5.2-7.79c0,0,69.62-25.36,114.4-32.85l103.08-24.58
			v21.3"/>
		<path id="_x2E_" class="st1" d="M2173.36,899.61c45.84,0,83.23-36.19,83.23-82.03c0-45.84-37.39-82.03-83.23-82.03
			c-44.63,0-82.03,36.19-82.03,82.03C2091.34,863.42,2128.73,899.61,2173.36,899.61z"/>
		<path id="o_curve_1_" class="st1" d="M2584.84,1150.85c0,0,5.51-53.2,22.13-81.12c0,0,13.08-28.95,51.17-37.44
			c0,0,42.43-8.63,78.17,4.65c0,0,39.26,10.9,52.39,82.82c13.12,71.92,81.39-19.65,81.39-19.65l-31.76-40.3l-50.41-28.57
			l-50.41-16.43l-68.27-3.52l-53.19,8.22l-25.8,12.52c0,0-24.61,12.91-25.01,14.09c-0.4,1.17-5.16,15.65-6.75,19.96
			c-1.59,4.3-11.51,19.57-11.91,23.48c-0.4,3.91-3.97,11.74-1.98,20.35c1.98,8.61-0.4,17.22,1.98,24.26s1.98,10.57,3.57,14.87
			c1.59,4.3,13.5,10.57,14.69,10.57C2566.03,1159.58,2584.84,1150.85,2584.84,1150.85z"/>
		<path id="o_curve" class="st1" d="M2792.69,1424.69c0,0-5.51,53.2-22.13,81.12c0,0-13.08,28.95-51.17,37.44
			c0,0-42.43,8.63-78.17-4.65c0,0-39.26-10.9-52.39-82.82c-13.12-71.92-81.4,19.65-81.4,19.65l31.76,40.3l50.41,28.57l50.41,16.43
			l68.27,3.52l53.19-8.22l25.8-12.52c0,0,24.61-12.91,25.01-14.09c0.4-1.17,5.16-15.65,6.75-19.96c1.59-4.3,11.51-19.57,11.91-23.48
			c0.4-3.91,3.97-11.74,1.98-20.35c-1.98-8.61,0.4-17.22-1.98-24.26c-2.38-7.04-1.98-10.57-3.57-14.87
			c-1.59-4.3-13.5-10.57-14.69-10.57C2811.49,1415.95,2792.69,1424.69,2792.69,1424.69z"/>
		<path id="e_curve" class="st1" d="M4626.93,1150.54c0,0,17.42-63.28,52.97-97.66c35.55-34.38,73.88-28.64,101.61-9.79
			c0,0,23,15.66,39.08,47.58c0,0,10.85,21.64,15.58,38.36l58.79-31.09c0,0-17.75-31.83-19.36-32.87
			c-1.61-1.04-53.79-40.17-53.79-40.17l-53.25-13.04h-78.53l-34.96,16.02c0,0-19.9,17.37-23.13,21.02
			c-3.23,3.65-24.2,24.44-28.51,32.31c-4.3,7.87-11.3,20.91-12.91,28.74c-1.61,7.83-3.23,13.04-3.23,16.17
			c0,3.13-1.08,6.26,2.15,12.52s13.98,14.09,13.98,14.09L4626.93,1150.54z"/>
		<path id="r_curve_1_" class="st1" d="M5374.27,1111.76c0,0-0.18-7.41-6.07-7.78c0,0-4.67-0.33-9.45,1.23c0,0-6.55,1.93-11.13,4.29
			s-8.71,4.51-12.98,7.46c-4.27,2.96-32.56,21.38-58.61,62.86v15.26h-4l2.45-45l1.55-4.03l1.12-1.68l4.92-7.23
			c0,0,14.77-21.35,20.3-27.55s16.66-21.82,31.58-35.69c0,0,18.11-18.28,22.12-19.9c4.01-1.62,21.43,24.21,21.43,24.21
			s2.59,11.35,2.72,11.74c0.14,0.39-0.82,21.91-0.82,22.43c0,0.52,0.83,7.17,0.83,7.17l-4.88,1.7c0,0-0.55-3.23-0.71-4.81
			C5374.48,1114.85,5374.27,1111.76,5374.27,1111.76z"/>
		<path id="r_curve" class="st1" d="M5886.43,1108.89c0,0-0.18-7.41-6.15-7.78c0,0-4.74-0.33-9.58,1.23c0,0-6.64,1.93-11.28,4.29
			s-8.83,4.51-13.16,7.46c-4.33,2.96-33.01,21.38-59.42,62.85v15.26h-4.06l2.48-45l1.57-4.03l1.14-1.68l4.99-7.23
			c0,0,14.98-21.35,20.58-27.55c5.6-6.2,16.89-21.82,32.02-35.69c0,0,18.36-18.28,22.43-19.9s21.73,24.21,21.73,24.21
			s2.62,11.35,2.76,11.74c0.14,0.39-0.83,21.91-0.83,22.43s0.84,7.17,0.84,7.17l-4.95,1.7c0,0-0.56-3.23-0.72-4.81
			C5886.64,1111.98,5886.43,1108.89,5886.43,1108.89z"/>
		<path id="B" class="st1" d="M1050.34,1128.8c24.12,0,215.92-28.95,215.92-208.69c0-212.3-156.82-205.06-324.49-205.06H648.65v9.65
			c53.07,0,69.96,82.03,69.96,156.81V1399c0,82.02-18.09,154.4-69.96,154.4v10.85h293.12c208.69,0,381.18-4.83,381.18-215.92
			C1322.95,1142.06,1128.75,1128.8,1050.34,1128.8z M894.73,735.55h47.04c56.7,0,156.82,2.41,156.82,182.15
			c0,178.53-91.68,206.27-156.82,206.27h-47.04V735.55z M941.77,1543.75h-47.04v-399.27h47.04c80.82,0,203.86,6.03,203.86,197.83
			C1145.63,1546.16,1046.72,1543.75,941.77,1543.75z"/>
		<path id="a" class="st1" d="M1950.21,1501.53c-59.11,0-57.9-84.44-57.9-84.44v-179.73c0-142.34-43.43-241.25-201.45-241.25
			c0,0-62.72-4.82-117.01,24.13c-66.34,34.98-82.02,67.55-94.09,88.06c-12.06,20.51-10.85,49.46,3.62,72.38
			c21.71,31.36,63.93,38.6,95.29,18.09c31.36-21.71,39.81-63.93,18.09-95.3c-10.85-15.68-26.54-24.12-44.63-26.53
			c-8.45-1.21-3.62-21.71,34.98-41.02c83.23-43.43,153.2,19.3,153.2,144.75v74.79c-211.1,53.08-312.43,65.14-312.43,196.62
			c0,123.04,138.72,123.04,138.72,123.04c85.64,0,156.82-44.63,174.91-97.71c13.27,97.71,120.63,97.71,120.63,97.71
			c76,0,131.49-47.04,141.13-85.64l-20.51-8.44C1975.54,1501.53,1950.21,1501.53,1950.21,1501.53z M1740.32,1440.01
			c-10.86,28.95-38.6,61.52-79.62,61.52c-78.41,0-78.41-79.62-78.41-79.62c0-61.52,39.81-118.21,158.02-144.75
			C1740.32,1277.17,1740.32,1437.6,1740.32,1440.01z"/>
		<path id="j" class="st1" d="M2049.12,1064.86c49.45,26.54,60.31,48.25,60.31,89.27v377.56c0,0,0,269-73.58,287.09v20.51
			c119.42-30.16,223.16-107.36,223.16-335.34V996.11l-209.89,48.25V1064.86z"/>
		<path id="o" class="st1" d="M2689.64,996.11c-183.36,0-287.09,130.28-287.09,289.51c0,158.02,103.74,289.5,287.09,289.5
			c184.56,0,287.09-131.48,287.09-289.5C2976.73,1126.38,2874.2,996.11,2689.64,996.11z M2689.64,1554.61
			c-86.85,0-109.77-50.66-109.77-269s22.92-269,109.77-269c86.85,0,108.56,50.66,108.56,269S2776.49,1554.61,2689.64,1554.61z"/>
		<path id="T" class="st1" d="M3277.1,957.51h18.05h2.46c0,0,96.69-196.19,288.3-189.1v649.9c0,82.03-51.87,125.45-102.53,125.45
			v20.51h379.97v-20.51c-50.66,0-102.53-43.43-102.53-125.45V767.97c0.7,0.34,1.16,0.52,1.16,0.43
			c191.61-7.09,288.3,189.1,288.3,189.1h0.05h2.41h18.1V715.05H3277.1V957.51z"/>
		<path id="i" class="st1" d="M4319.33,1417.09V996.11l-211.1,48.25v20.51c49.46,26.54,61.52,43.43,61.52,84.44v267.79
			c0,61.52-2.42,112.18-48.25,126.66v20.51h247.28v-20.51C4325.35,1531.69,4319.33,1484.65,4319.33,1417.09z"/>
		<path id="_x2E__1_" class="st1" d="M4232.47,899.61c45.84,0,83.23-36.19,83.23-82.03c0-45.84-37.4-82.03-83.23-82.03
			c-45.84,0-82.03,36.19-82.03,82.03C4150.45,863.42,4186.64,899.61,4232.47,899.61z"/>
		<path id="e" class="st1" d="M4740.31,996.11c-166.46,0-282.27,121.83-282.27,291.92c0,141.13,108.56,287.09,266.58,287.09
			c161.64,0,232.81-95.29,252.11-158.02l-20.51-10.85c-30.16,56.7-126.66,80.82-191.8,66.34
			c-80.82-18.09-141.13-79.61-150.78-197.83h383.59C4997.25,1086.58,4915.22,996.11,4740.31,996.11z M4734.28,1016.62
			c62.65,0,110.22,76.41,115.32,212.89h-235.18C4620.82,1121.74,4668.17,1016.62,4734.28,1016.62z"/>
		<path id="r" class="st1" d="M5515.93,1017.82c-26.54-21.71-72.38-26.53-97.71-15.68c-28.95,12.06-78.4,30.16-142.34,130.28V996.11
			l-212.3,48.25v20.51c49.46,25.34,60.31,43.43,60.31,84.44v267.79c0,62.73-1.21,112.18-48.25,126.66v20.51h249.7v-20.51
			c-43.43-12.06-49.45-59.11-49.45-126.66v-250.9c44.63-72.38,94.09-84.44,94.09-71.17c0,21.71,9.65,42.22,27.74,59.11
			c38.6,32.57,94.09,27.74,126.66-9.65C5556.94,1108.29,5553.32,1050.39,5515.93,1017.82z"/>
		<path id="r_1_" class="st1" d="M6028.58,1017.82c-26.54-21.71-72.38-26.53-97.71-15.68c-28.95,12.06-78.4,30.16-142.34,130.28
			V996.11l-212.3,48.25v20.51c49.46,25.34,60.31,43.43,60.31,84.44v267.79c0,62.73-1.21,112.18-48.25,126.66v20.51h249.7v-20.51
			c-43.43-12.06-49.45-59.11-49.45-126.66v-250.9c44.63-72.38,94.09-84.44,94.09-71.17c0,21.71,9.65,42.22,27.74,59.11
			c38.6,32.57,94.09,27.74,126.66-9.65C6069.59,1108.29,6065.97,1050.39,6028.58,1017.82z"/>
		<path id="a_1_" class="st1" d="M6647.39,1481.02c-7.24,20.51-32.57,20.51-32.57,20.51c-59.11,0-57.9-84.44-57.9-84.44v-179.73
			c0-142.34-43.43-241.25-201.45-241.25c0,0-62.72-4.82-117.01,24.13c-66.34,34.98-82.02,67.55-94.09,88.06
			c-12.06,20.51-10.85,49.46,3.62,72.38c21.71,31.36,63.93,38.6,95.29,18.09c31.36-21.71,39.81-63.93,18.09-95.3
			c-10.85-15.68-26.54-24.12-44.63-26.53c-8.45-1.21-3.62-21.71,34.98-41.02c83.23-43.43,153.2,19.3,153.2,144.75v74.79
			c-211.1,53.08-312.43,65.14-312.43,196.62c0,123.04,138.72,123.04,138.72,123.04c85.64,0,156.82-44.63,174.91-97.71
			c13.27,97.71,120.63,97.71,120.63,97.71c76,0,131.49-47.04,141.13-85.64L6647.39,1481.02z M6404.93,1440.01
			c-10.86,28.95-38.6,61.52-79.62,61.52c-78.41,0-78.41-79.62-78.41-79.62c0-61.52,39.81-118.21,158.02-144.75
			C6404.93,1277.17,6404.93,1437.6,6404.93,1440.01z"/>
		<g id="Final_TGL">
			<path id="P" class="st1" d="M693.44,2258v55.41h-42.95v-195.88c30.84,0,60.3,0,90.86,0c49.28,0,73.78,32.46,73.78,70.24
				c0,39.18-24.78,69.68-73.78,70.24H693.44z M693.44,2217.98h47.91c20.64,0,30.83-13.71,30.83-29.38
				c0-15.67-10.46-29.66-30.83-29.66h-47.91V2217.98z"/>
			<path id="R_3_" class="st1" d="M1219.83,2313.41h-47.63l-49.28-64.36h-31.11v64.36h-42.95v-195.88c31.39,0,60.3,0,91.41,0
				c46.53,0,71.31,31.62,71.31,66.04c-0.27,25.47-7.71,48.13-44.6,61.56l52.86,64.93V2313.41z M1091.81,2155.02v57.09h49.01
				c19.81,0,28.36-15.11,28.36-27.42c-0.28-13.43-8.81-29.67-28.91-29.67H1091.81z"/>
			<path id="E_3_" class="st1" d="M1594.84,2313.41H1448.1c0-65.2,0-130.69,0-195.88h142.89v40.02h-100.77v37.78h94.98v38.34h-94.98
				v39.46h104.62V2313.41z"/>
			<path id="M_3_" class="st1" d="M2003.3,2177.13l-59.47,76.12h-7.7l-57.54-76.67v136.84h-42.95v-195.89c16.25,0,33.04,0,49.28,0
				l56.17,75.28l56.44-75.28h48.74v195.89h-42.95V2177.13z"/>
			<path id="I_1_" class="st1" d="M2285.43,2313.4v-195.88h42.68v195.88H2285.43z"/>
			<path id="U_3_" class="st1" d="M2751.64,2117.51v109.41c0,58.21-31.93,89.27-82.59,90.95c-50.38,1.68-93.05-27.7-93.05-90.95
				v-109.41h42.67v109.41c0,34.98,19.28,53.17,50.66,51.77c29.18-1.96,39.65-22.39,39.65-51.77v-109.41H2751.64z"/>
			<path id="M_2_" class="st1" d="M3161.67,2177.12l-59.47,76.12h-7.7l-57.54-76.67v136.84h-42.95v-195.89c16.24,0,33.04,0,49.28,0
				l56.17,75.28l56.44-75.28h48.74v195.89h-42.95V2177.12z"/>
			<g id="Surfaces">
				<path id="S_3_" class="st1" d="M3838.83,2163.83c-10.74-11.47-29.46-16.51-44.6-16.51c-18.99,0-34.41,8.11-34.41,21.55
					c0,17.91,16.79,21.27,41.57,23.51c38,3.36,74.06,18.19,74.06,63.52c0,43.65-39.64,62.68-81.22,62.96
					c-33.31,0.28-68-12.87-84.24-40.3l25.6-27.14c14.87,19.31,39.37,27.7,58.92,27.7c22.85,0,38.54-9.24,38.54-23.23
					c0.28-16.51-12.66-24.07-38.82-26.31c-40.74-3.92-77.08-14.27-76.53-60.45c0.27-38.9,36.61-59.6,76.26-59.6
					c29.73,0,52.03,6.72,71.85,30.22L3838.83,2163.83z"/>
				<path id="U_2_" class="st1" d="M4292.45,2117.51v109.41c0,58.21-31.93,89.27-82.59,90.95c-50.38,1.68-93.05-27.7-93.05-90.95
					v-109.41h42.67v109.41c0,34.98,19.28,53.17,50.66,51.77c29.18-1.96,39.65-22.39,39.65-51.77v-109.41H4292.45z"/>
				<path id="R_2_" class="st1" d="M4705.85,2313.4h-47.63l-49.28-64.36h-31.11v64.36h-42.95v-195.88c31.39,0,60.3,0,91.41,0
					c46.53,0,71.31,31.62,71.31,66.04c-0.27,25.47-7.71,48.13-44.6,61.56l52.86,64.93V2313.4z M4577.83,2155.01v57.09h49.01
					c19.81,0,28.36-15.11,28.36-27.42c-0.28-13.43-8.81-29.67-28.91-29.67H4577.83z"/>
				<path id="F_1_" class="st1" d="M4934.59,2313.12v-195.61H5075v40.02h-97.46v46.45h91.4v38.9h-91.4v70.24H4934.59z"/>
				<path id="A_1_" class="st1" d="M5453.77,2279.82h-98.84l-14.04,33.58h-46.25l86.45-195.88h46.79l86.45,195.88h-46.53
					L5453.77,2279.82z M5404.49,2161.73l-33.32,79.48h66.35L5404.49,2161.73z"/>
				<path id="C_1_" class="st1" d="M5896.62,2289.91c-19.82,19.87-45.43,28.82-74.06,28.82c-73.51,0-102.7-48.13-102.97-101.58
					c-0.27-50.65,32.21-103.82,102.97-103.82c26.43,0,50.93,10.35,70.75,30.22l-26.98,27.15c-11.56-11.48-28.36-16.23-43.77-16.23
					c-43.78,0-60.85,34.42-60.57,62.97c0.27,28.54,15.42,61,60.57,61c15.42,0,35.79-6.99,47.35-18.75L5896.62,2289.91z"/>
				<path id="E_2_" class="st1" d="M6275.2,2313.4h-146.74c0-65.2,0-130.69,0-195.88h142.89v40.01h-100.77v37.78h94.98v38.34h-94.98
					v39.46h104.62V2313.4z"/>
				<path id="S_2_" class="st1" d="M6639.59,2165.1c-10.73-11.47-29.45-16.51-44.6-16.51c-18.99,0-34.41,8.11-34.41,21.55
					c0,17.91,16.79,21.27,41.56,23.51c37.99,3.36,74.05,18.19,74.05,63.52c0,43.65-39.63,62.68-81.21,62.96
					c-33.3,0.28-67.99-12.87-84.23-40.3l25.59-27.14c14.87,19.31,39.37,27.7,58.92,27.7c22.84,0,38.53-9.24,38.53-23.23
					c0.28-16.51-12.65-24.07-38.81-26.31c-40.73-3.92-77.07-14.27-76.52-60.44c0.27-38.9,36.61-59.6,76.25-59.6
					c29.73,0,52.02,6.72,71.85,30.22L6639.59,2165.1z"/>
			</g>
		</g>
	</g>
</g>
<g>
</g>
<g>
</g>
<g>
</g>
<g>
</g>
<g>
</g>
<g>
</g>
</svg>
