<?xml version="1.0" encoding="utf-8"?>
<!-- Generator: Adobe Illustrator 25.0.0, SVG Export Plug-In . SVG Version: 6.00 Build 0)  -->
<svg version="1.1" id="Layer_1" xmlns="http://www.w3.org/2000/svg" xmlns:xlink="http://www.w3.org/1999/xlink" x="0px" y="0px"
	 viewBox="0 0 181 49" style="enable-background:new 0 0 181 49;" xml:space="preserve">
<style type="text/css">
	.st0{fill:#080909;}
</style>
<g>
	<path id="B_curve_center" class="st0" d="M8,14.4v-0.6h1.2c0,0,1.7,0,1.8,0.1c0.1,0,1.4,0.1,2.4,0.6c0.9,0.6,1.2,1.1,1.6,1.6
		c0.4,0.6,2.3-1.1,2.3-1.1L16,14.2l-1.8-0.4l-1.9-0.4l-2.1-0.1H8H7.5v1.3v1.2H8L8,14.4L8,14.4z"/>
	<path id="B_curve4" class="st0" d="M8,24.2V25c0,0,2.5,0,2.7,0c0.1,0,1.4,0,2.3-0.4c0.9-0.3,1.6-1,1.8-1.6c0.3-0.6,0.4-1.1,0.4-1.2
		c0-0.1,4.1,0.2,4.1,0.2s-0.5,1.6-0.6,1.6c0,0-2.5,1.2-2.5,1.2l-5.6,0.7H7.6l-0.1-0.9l0.1-0.8l0.4,0L8,24.2L8,24.2z"/>
	<path id="B_curve_3" class="st0" d="M8,2.1V1.5l2,0c0,0,1.3,0,2.2,0.5c0.9,0.5,1.4,1.3,1.6,2.1c0.3,0.8,3.8-0.7,3.8-0.7l-2.7-1.3
		l-1.5-0.9L11,0.9H8.7h-1c0,0,0,2,0,2.1c0,0,0,1,0,1H8L8,2.1L8,2.1z"/>
	<path id="B_curve2" class="st0" d="M0.7,25.7v-0.3c0,0,0.3,0,0.5-0.1C1.4,25.2,1.8,25,2,24.5c0.3-0.4,0.5-1.1,0.5-1.3
		s0.2-1.2,0.2-1.8s0-1.2,0-1.2h3.3v5.4L0.7,25.7L0.7,25.7z"/>
	<path id="B_curve1" class="st0" d="M0.7,0.8v0.3c0,0,0.3,0,0.5,0.1S1.8,1.5,2,1.9S2.5,3,2.6,3.3S2.8,4.5,2.8,5c0,0.5,0,1.2,0,1.2
		h3.3V0.8H0.7z"/>
	<path id="a_curve1" class="st0" d="M28,11.4c0,0-0.1,0-0.1-0.2c0-0.2,0.3-0.5,0.9-0.9c0.7-0.4,1.1-0.5,1.8-0.5c0,0,0.4,0,0.9,0.2
		c0.5,0.2,0.4-0.8,0.4-0.8l-0.7,0l-1,0.2c0,0-0.6,0.1-0.7,0.1c-0.1,0-0.6,0.2-0.7,0.3c-0.2,0.1-0.4,0.2-0.5,0.3
		c-0.1,0.1-0.5,0.3-0.5,0.4c0,0.1-0.2,0.4-0.3,0.5c0,0.1-0.1,0.2-0.1,0.3c0,0.1,0.1,0.3,0.1,0.3c0,0,0.3,0,0.3,0
		C27.9,11.7,28,11.4,28,11.4z"/>
	<path id="a_curve1_1_" class="st0" d="M166.9,11.4c0,0-0.1,0-0.1-0.2c0-0.2,0.3-0.5,0.9-0.9c0.7-0.4,1.1-0.5,1.8-0.5
		c0,0,0.4,0,0.9,0.2s0.4-0.8,0.4-0.8l-0.7,0l-1,0.2c0,0-0.6,0.1-0.7,0.1c-0.1,0-0.6,0.2-0.7,0.3c-0.2,0.1-0.4,0.2-0.5,0.3
		c-0.1,0.1-0.5,0.3-0.5,0.4s-0.2,0.4-0.3,0.5c0,0.1-0.1,0.2-0.1,0.3c0,0.1,0.1,0.3,0.1,0.3c0,0,0.3,0,0.3,0
		C166.8,11.7,166.9,11.4,166.9,11.4z"/>
	<path id="a_curve" class="st0" d="M33.2,17.8c0,0-2,0.5-3,1.2c0,0-1,0.7-1.4,1.6c0,0-0.3,0.6-0.3,1c0,0.4-1.4-2.2-1.4-2.2l-0.1-0.3
		l-0.2-0.2c0,0,2-0.8,3.3-1l3-0.7L33.2,17.8"/>
	<path id="a_curve_1_" class="st0" d="M172.4,17.8c0,0-2.1,0.5-3.1,1.2c0,0-1,0.7-1.5,1.6c0,0-0.3,0.6-0.3,1c0,0.4-1.4-2.2-1.4-2.2
		l-0.1-0.3l-0.2-0.2c0,0,2.1-0.8,3.4-1l3.1-0.7L172.4,17.8"/>
	<path id="_x2E_" class="st0" d="M46.1,6.1c1.4,0,2.5-1.1,2.5-2.4s-1.1-2.4-2.5-2.4c-1.3,0-2.4,1.1-2.4,2.4
		C43.7,5,44.8,6.1,46.1,6.1z"/>
	<path id="o_curve_1_" class="st0" d="M58.4,13.6c0,0,0.2-1.6,0.7-2.4c0,0,0.4-0.9,1.5-1.1c0,0,1.3-0.3,2.3,0.1c0,0,1.2,0.3,1.6,2.5
		c0.4,2.1,2.4-0.6,2.4-0.6l-0.9-1.2L64.4,10l-1.5-0.5l-2-0.1l-1.6,0.2L58.6,10c0,0-0.7,0.4-0.7,0.4c0,0-0.2,0.5-0.2,0.6
		c0,0.1-0.3,0.6-0.4,0.7c0,0.1-0.1,0.3-0.1,0.6c0.1,0.3,0,0.5,0.1,0.7c0.1,0.2,0.1,0.3,0.1,0.4s0.4,0.3,0.4,0.3
		C57.8,13.8,58.4,13.6,58.4,13.6z"/>
	<path id="o_curve" class="st0" d="M64.6,21.7c0,0-0.2,1.6-0.7,2.4c0,0-0.4,0.9-1.5,1.1c0,0-1.3,0.3-2.3-0.1c0,0-1.2-0.3-1.6-2.5
		c-0.4-2.1-2.4,0.6-2.4,0.6l0.9,1.2l1.5,0.9l1.5,0.5l2,0.1l1.6-0.2l0.8-0.4c0,0,0.7-0.4,0.7-0.4c0,0,0.2-0.5,0.2-0.6
		c0-0.1,0.3-0.6,0.4-0.7c0-0.1,0.1-0.3,0.1-0.6c-0.1-0.3,0-0.5-0.1-0.7c-0.1-0.2-0.1-0.3-0.1-0.4s-0.4-0.3-0.4-0.3
		C65.1,21.5,64.6,21.7,64.6,21.7z"/>
	<path id="e_curve" class="st0" d="M119.2,13.6c0,0,0.5-1.9,1.6-2.9c1.1-1,2.2-0.9,3-0.3c0,0,0.7,0.5,1.2,1.4c0,0,0.3,0.6,0.5,1.1
		l1.8-0.9c0,0-0.5-0.9-0.6-1c0,0-1.6-1.2-1.6-1.2l-1.6-0.4h-2.3l-1,0.5c0,0-0.6,0.5-0.7,0.6c-0.1,0.1-0.7,0.7-0.8,1
		c-0.1,0.2-0.3,0.6-0.4,0.9c0,0.2-0.1,0.4-0.1,0.5s0,0.2,0.1,0.4c0.1,0.2,0.4,0.4,0.4,0.4L119.2,13.6z"/>
	<path id="r_curve_1_" class="st0" d="M141.5,12.4c0,0,0-0.2-0.2-0.2c0,0-0.1,0-0.3,0c0,0-0.2,0.1-0.3,0.1c-0.1,0.1-0.3,0.1-0.4,0.2
		c-0.1,0.1-1,0.6-1.7,1.9v0.5h-0.1l0.1-1.3l0-0.1l0-0.1l0.1-0.2c0,0,0.4-0.6,0.6-0.8s0.5-0.7,0.9-1.1c0,0,0.5-0.5,0.7-0.6
		c0.1,0,0.6,0.7,0.6,0.7s0.1,0.3,0.1,0.3c0,0,0,0.7,0,0.7s0,0.2,0,0.2l-0.1,0.1c0,0,0-0.1,0-0.1C141.5,12.5,141.5,12.4,141.5,12.4z"
		/>
	<path id="r_curve" class="st0" d="M156.8,12.3c0,0,0-0.2-0.2-0.2c0,0-0.1,0-0.3,0c0,0-0.2,0.1-0.3,0.1c-0.1,0.1-0.3,0.1-0.4,0.2
		c-0.1,0.1-1,0.6-1.8,1.9v0.5h-0.1l0.1-1.3l0-0.1l0-0.1l0.1-0.2c0,0,0.4-0.6,0.6-0.8c0.2-0.2,0.5-0.7,1-1.1c0,0,0.5-0.5,0.7-0.6
		s0.6,0.7,0.6,0.7s0.1,0.3,0.1,0.3c0,0,0,0.7,0,0.7s0,0.2,0,0.2l-0.1,0.1c0,0,0-0.1,0-0.1C156.8,12.4,156.8,12.3,156.8,12.3z"/>
	<path id="B" class="st0" d="M12.7,12.9c0.7,0,6.4-0.9,6.4-6.2c0-6.3-4.7-6.1-9.7-6.1H0.7v0.3c1.6,0,2.1,2.4,2.1,4.7V21
		c0,2.4-0.5,4.6-2.1,4.6v0.3h8.7c6.2,0,11.4-0.1,11.4-6.4C20.8,13.3,15,12.9,12.7,12.9z M8,1.2h1.4c1.7,0,4.7,0.1,4.7,5.4
		c0,5.3-2.7,6.1-4.7,6.1H8V1.2z M9.4,25.3H8V13.4h1.4c2.4,0,6.1,0.2,6.1,5.9C15.5,25.4,12.6,25.3,9.4,25.3z"/>
	<path id="a" class="st0" d="M39.5,24c-1.8,0-1.7-2.5-1.7-2.5v-5.4c0-4.2-1.3-7.2-6-7.2c0,0-1.9-0.1-3.5,0.7c-2,1-2.4,2-2.8,2.6
		c-0.4,0.6-0.3,1.5,0.1,2.2c0.6,0.9,1.9,1.2,2.8,0.5c0.9-0.6,1.2-1.9,0.5-2.8c-0.3-0.5-0.8-0.7-1.3-0.8c-0.3,0-0.1-0.6,1-1.2
		c2.5-1.3,4.6,0.6,4.6,4.3v2.2c-6.3,1.6-9.3,1.9-9.3,5.9c0,3.7,4.1,3.7,4.1,3.7c2.6,0,4.7-1.3,5.2-2.9c0.4,2.9,3.6,2.9,3.6,2.9
		c2.3,0,3.9-1.4,4.2-2.6l-0.6-0.3C40.2,24,39.5,24,39.5,24z M33.2,22.2c-0.3,0.9-1.2,1.8-2.4,1.8c-2.3,0-2.3-2.4-2.3-2.4
		c0-1.8,1.2-3.5,4.7-4.3C33.2,17.3,33.2,22.1,33.2,22.2z"/>
	<path id="j" class="st0" d="M42.4,11c1.5,0.8,1.8,1.4,1.8,2.7v11.2c0,0,0,8-2.2,8.6v0.6c3.6-0.9,6.6-3.2,6.6-10V9l-6.3,1.4L42.4,11
		L42.4,11z"/>
	<path id="o" class="st0" d="M61.5,9c-5.5,0-8.6,3.9-8.6,8.6c0,4.7,3.1,8.6,8.6,8.6c5.5,0,8.6-3.9,8.6-8.6C70.1,12.8,67,9,61.5,9z
		 M61.5,25.6c-2.6,0-3.3-1.5-3.3-8s0.7-8,3.3-8c2.6,0,3.2,1.5,3.2,8S64.1,25.6,61.5,25.6z"/>
	<path id="T" class="st0" d="M79,7.8h0.5h0.1c0,0,2.9-5.8,8.6-5.6v19.4c0,2.4-1.5,3.7-3.1,3.7v0.6h11.3v-0.6c-1.5,0-3.1-1.3-3.1-3.7
		V2.2c0,0,0,0,0,0c5.7-0.2,8.6,5.6,8.6,5.6h0h0.1h0.5V0.6H79V7.8z"/>
	<path id="i" class="st0" d="M110.1,21.5V9l-6.3,1.4V11c1.5,0.8,1.8,1.3,1.8,2.5v8c0,1.8-0.1,3.3-1.4,3.8v0.6h7.4v-0.6
		C110.3,24.9,110.1,23.5,110.1,21.5z"/>
	<path id="_x2E__1_" class="st0" d="M107.5,6.1c1.4,0,2.5-1.1,2.5-2.4s-1.1-2.4-2.5-2.4c-1.4,0-2.4,1.1-2.4,2.4
		C105,5,106.1,6.1,107.5,6.1z"/>
	<path id="e" class="st0" d="M122.6,9c-5,0-8.4,3.6-8.4,8.7c0,4.2,3.2,8.6,7.9,8.6c4.8,0,6.9-2.8,7.5-4.7l-0.6-0.3
		c-0.9,1.7-3.8,2.4-5.7,2c-2.4-0.5-4.2-2.4-4.5-5.9h11.4C130.3,11.7,127.8,9,122.6,9z M122.4,9.6c1.9,0,3.3,2.3,3.4,6.3h-7
		C119.1,12.7,120.5,9.6,122.4,9.6z"/>
	<path id="r" class="st0" d="M145.7,9.6c-0.8-0.6-2.2-0.8-2.9-0.5c-0.9,0.4-2.3,0.9-4.2,3.9V9l-6.3,1.4V11c1.5,0.8,1.8,1.3,1.8,2.5
		v8c0,1.9,0,3.3-1.4,3.8v0.6h7.4v-0.6c-1.3-0.4-1.5-1.8-1.5-3.8V14c1.3-2.2,2.8-2.5,2.8-2.1c0,0.6,0.3,1.3,0.8,1.8
		c1.2,1,2.8,0.8,3.8-0.3C146.9,12.3,146.8,10.6,145.7,9.6z"/>
	<path id="r_1_" class="st0" d="M161,9.6c-0.8-0.6-2.2-0.8-2.9-0.5c-0.9,0.4-2.3,0.9-4.2,3.9V9l-6.3,1.4V11c1.5,0.8,1.8,1.3,1.8,2.5
		v8c0,1.9,0,3.3-1.4,3.8v0.6h7.4v-0.6c-1.3-0.4-1.5-1.8-1.5-3.8V14c1.3-2.2,2.8-2.5,2.8-2.1c0,0.6,0.3,1.3,0.8,1.8
		c1.2,1,2.8,0.8,3.8-0.3C162.2,12.3,162.1,10.6,161,9.6z"/>
	<path id="a_1_" class="st0" d="M179.4,23.4c-0.2,0.6-1,0.6-1,0.6c-1.8,0-1.7-2.5-1.7-2.5v-5.4c0-4.2-1.3-7.2-6-7.2
		c0,0-1.9-0.1-3.5,0.7c-2,1-2.4,2-2.8,2.6c-0.4,0.6-0.3,1.5,0.1,2.2c0.6,0.9,1.9,1.2,2.8,0.5c0.9-0.6,1.2-1.9,0.5-2.8
		c-0.3-0.5-0.8-0.7-1.3-0.8c-0.3,0-0.1-0.6,1-1.2c2.5-1.3,4.6,0.6,4.6,4.3v2.2c-6.3,1.6-9.3,1.9-9.3,5.9c0,3.7,4.1,3.7,4.1,3.7
		c2.6,0,4.7-1.3,5.2-2.9c0.4,2.9,3.6,2.9,3.6,2.9c2.3,0,3.9-1.4,4.2-2.6L179.4,23.4z M172.2,22.2c-0.3,0.9-1.2,1.8-2.4,1.8
		c-2.3,0-2.3-2.4-2.3-2.4c0-1.8,1.2-3.5,4.7-4.3C172.2,17.3,172.2,22.1,172.2,22.2z"/>
	<g id="Final_TGL">
		<path id="P" class="st0" d="M2,46.6v1.7H0.8v-5.8c0.9,0,1.8,0,2.7,0c1.5,0,2.2,1,2.2,2.1c0,1.2-0.7,2.1-2.2,2.1L2,46.6L2,46.6z
			 M2,45.4h1.4c0.6,0,0.9-0.4,0.9-0.9c0-0.5-0.3-0.9-0.9-0.9H2V45.4z"/>
		<path id="R_3_" class="st0" d="M17.7,48.2h-1.4l-1.5-1.9h-0.9v1.9h-1.3v-5.8c0.9,0,1.8,0,2.7,0c1.4,0,2.1,0.9,2.1,2
			c0,0.8-0.2,1.4-1.3,1.8L17.7,48.2L17.7,48.2L17.7,48.2z M13.9,43.5v1.7h1.5c0.6,0,0.8-0.5,0.8-0.8c0-0.4-0.3-0.9-0.9-0.9
			L13.9,43.5L13.9,43.5z"/>
		<path id="E_3_" class="st0" d="M28.9,48.2h-4.4c0-1.9,0-3.9,0-5.8h4.3v1.2h-3v1.1h2.8v1.1h-2.8V47h3.1V48.2z"/>
		<path id="M_3_" class="st0" d="M41.1,44.2l-1.8,2.3h-0.2l-1.7-2.3v4.1h-1.3v-5.8c0.5,0,1,0,1.5,0l1.7,2.2l1.7-2.2h1.5v5.8h-1.3
			L41.1,44.2L41.1,44.2z"/>
		<path id="I_1_" class="st0" d="M49.5,48.2v-5.8h1.3v5.8H49.5z"/>
		<path id="U_3_" class="st0" d="M63.4,42.4v3.3c0,1.7-1,2.7-2.5,2.7c-1.5,0.1-2.8-0.8-2.8-2.7v-3.3h1.3v3.3c0,1,0.6,1.6,1.5,1.5
			c0.9-0.1,1.2-0.7,1.2-1.5v-3.3H63.4z"/>
		<path id="M_2_" class="st0" d="M75.6,44.2l-1.8,2.3h-0.2l-1.7-2.3v4.1h-1.3v-5.8c0.5,0,1,0,1.5,0l1.7,2.2l1.7-2.2h1.5v5.8h-1.3
			L75.6,44.2L75.6,44.2z"/>
		<g id="Surfaces">
			<path id="S_3_" class="st0" d="M95.8,43.8c-0.3-0.3-0.9-0.5-1.3-0.5c-0.6,0-1,0.2-1,0.6c0,0.5,0.5,0.6,1.2,0.7
				c1.1,0.1,2.2,0.5,2.2,1.9c0,1.3-1.2,1.9-2.4,1.9c-1,0-2-0.4-2.5-1.2l0.8-0.8c0.4,0.6,1.2,0.8,1.8,0.8c0.7,0,1.1-0.3,1.1-0.7
				c0-0.5-0.4-0.7-1.2-0.8c-1.2-0.1-2.3-0.4-2.3-1.8c0-1.2,1.1-1.8,2.3-1.8c0.9,0,1.6,0.2,2.1,0.9L95.8,43.8z"/>
			<path id="U_2_" class="st0" d="M109.3,42.4v3.3c0,1.7-1,2.7-2.5,2.7c-1.5,0.1-2.8-0.8-2.8-2.7v-3.3h1.3v3.3c0,1,0.6,1.6,1.5,1.5
				c0.9-0.1,1.2-0.7,1.2-1.5v-3.3H109.3z"/>
			<path id="R_2_" class="st0" d="M121.6,48.2h-1.4l-1.5-1.9h-0.9v1.9h-1.3v-5.8c0.9,0,1.8,0,2.7,0c1.4,0,2.1,0.9,2.1,2
				c0,0.8-0.2,1.4-1.3,1.8L121.6,48.2L121.6,48.2L121.6,48.2z M117.8,43.5v1.7h1.5c0.6,0,0.8-0.5,0.8-0.8c0-0.4-0.3-0.9-0.9-0.9
				L117.8,43.5L117.8,43.5z"/>
			<path id="F_1_" class="st0" d="M128.4,48.2v-5.8h4.2v1.2h-2.9V45h2.7v1.2h-2.7v2.1L128.4,48.2L128.4,48.2z"/>
			<path id="A_1_" class="st0" d="M143.9,47.2h-2.9l-0.4,1h-1.4l2.6-5.8h1.4l2.6,5.8h-1.4L143.9,47.2z M142.4,43.7l-1,2.4h2
				L142.4,43.7z"/>
			<path id="C_1_" class="st0" d="M157.1,47.5c-0.6,0.6-1.4,0.9-2.2,0.9c-2.2,0-3.1-1.4-3.1-3c0-1.5,1-3.1,3.1-3.1
				c0.8,0,1.5,0.3,2.1,0.9l-0.8,0.8c-0.3-0.3-0.8-0.5-1.3-0.5c-1.3,0-1.8,1-1.8,1.9c0,0.9,0.5,1.8,1.8,1.8c0.5,0,1.1-0.2,1.4-0.6
				L157.1,47.5z"/>
			<path id="E_2_" class="st0" d="M168.4,48.2H164c0-1.9,0-3.9,0-5.8h4.3v1.2h-3v1.1h2.8v1.1h-2.8V47h3.1V48.2z"/>
			<path id="S_2_" class="st0" d="M179.2,43.8c-0.3-0.3-0.9-0.5-1.3-0.5c-0.6,0-1,0.2-1,0.6c0,0.5,0.5,0.6,1.2,0.7
				c1.1,0.1,2.2,0.5,2.2,1.9c0,1.3-1.2,1.9-2.4,1.9c-1,0-2-0.4-2.5-1.2l0.8-0.8c0.4,0.6,1.2,0.8,1.8,0.8c0.7,0,1.1-0.3,1.1-0.7
				c0-0.5-0.4-0.7-1.2-0.8c-1.2-0.1-2.3-0.4-2.3-1.8c0-1.2,1.1-1.8,2.3-1.8c0.9,0,1.5,0.2,2.1,0.9L179.2,43.8z"/>
		</g>
	</g>
</g>
</svg>
