<?xml version="1.0" encoding="utf-8"?>
<!-- Generator: Adobe Illustrator 25.0.0, SVG Export Plug-In . SVG Version: 6.00 Build 0)  -->
<svg version="1.1" id="Layer_1" xmlns="http://www.w3.org/2000/svg" xmlns:xlink="http://www.w3.org/1999/xlink" x="0px" y="0px"
	 viewBox="0 0 113 30.5" style="enable-background:new 0 0 113 30.5;" xml:space="preserve">
<style type="text/css">
	.st0{fill:#FFFFFF;}
</style>
<g>
	<path id="B_curve_center" class="st0" d="M4.6,8.9V8.5h0.7c0,0,1.1,0,1.1,0c0.1,0,0.9,0.1,1.5,0.4c0.6,0.4,0.8,0.7,1,1
		c0.3,0.4,1.4-0.7,1.4-0.7L9.7,8.8L8.6,8.5L7.4,8.2L6.1,8.2H4.6H4.3V9v0.7h0.4L4.6,8.9L4.6,8.9z"/>
	<path id="B_curve4" class="st0" d="M4.6,15v0.5c0,0,1.6,0,1.7,0c0.1,0,0.9,0,1.4-0.2c0.6-0.2,1-0.6,1.1-1c0.2-0.4,0.3-0.7,0.3-0.7
		c0-0.1,2.6,0.2,2.6,0.2s-0.3,1-0.4,1c0,0-1.6,0.8-1.6,0.8l-3.5,0.4H4.3l0-0.6l0.1-0.5l0.3,0L4.6,15L4.6,15z"/>
	<path id="B_curve_3" class="st0" d="M4.6,1.2V0.8l1.2,0c0,0,0.8,0,1.4,0.3c0.6,0.3,0.9,0.8,1,1.3c0.2,0.5,2.4-0.5,2.4-0.5L8.9,1.1
		L8,0.6L6.5,0.4H5H4.4c0,0,0,1.3,0,1.3c0,0,0,0.6,0,0.6h0.2L4.6,1.2L4.6,1.2z"/>
	<path id="B_curve2" class="st0" d="M0,16v-0.2c0,0,0.2,0,0.3-0.1c0.1-0.1,0.3-0.2,0.5-0.5C1,15,1.1,14.6,1.2,14.4s0.1-0.8,0.1-1.1
		c0-0.3,0-0.8,0-0.8h2.1V16L0,16L0,16z"/>
	<path id="B_curve1" class="st0" d="M0,0.3v0.2c0,0,0.2,0,0.3,0.1C0.5,0.6,0.7,0.8,0.8,1s0.3,0.7,0.3,0.8S1.3,2.7,1.3,3
		c0,0.3,0,0.8,0,0.8h2.1V0.3H0z"/>
	<path id="a_curve1" class="st0" d="M17.2,7c0,0-0.1,0-0.1-0.1c0-0.1,0.2-0.3,0.6-0.6C18.1,6.1,18.4,6,18.8,6c0,0,0.3,0,0.6,0.1
		c0.3,0.1,0.3-0.5,0.3-0.5l-0.5,0l-0.6,0.1c0,0-0.4,0.1-0.4,0.1c0,0-0.4,0.1-0.5,0.2c-0.1,0.1-0.3,0.1-0.3,0.2
		c-0.1,0.1-0.3,0.2-0.3,0.2c0,0-0.2,0.3-0.2,0.3c0,0.1-0.1,0.2-0.1,0.2c0,0.1,0.1,0.2,0.1,0.2c0,0,0.2,0,0.2,0
		C17.1,7.2,17.2,7,17.2,7z"/>
	<path id="a_curve1_1_" class="st0" d="M104.6,7c0,0-0.1,0-0.1-0.1c0-0.1,0.2-0.3,0.6-0.6c0.4-0.2,0.7-0.3,1.2-0.3
		c0,0,0.3,0,0.6,0.1c0.3,0.1,0.3-0.5,0.3-0.5l-0.5,0L106,5.8c0,0-0.4,0.1-0.4,0.1c0,0-0.4,0.1-0.5,0.2c-0.1,0.1-0.3,0.1-0.3,0.2
		s-0.3,0.2-0.3,0.2c0,0-0.2,0.3-0.2,0.3c0,0.1-0.1,0.2-0.1,0.2c0,0.1,0.1,0.2,0.1,0.2c0,0,0.2,0,0.2,0C104.5,7.2,104.6,7,104.6,7z"
		/>
	<path id="a_curve" class="st0" d="M20.5,11.1c0,0-1.3,0.3-1.9,0.7c0,0-0.6,0.4-0.9,1c0,0-0.2,0.4-0.2,0.6c0,0.3-0.9-1.4-0.9-1.4
		l0-0.2l-0.1-0.1c0,0,1.3-0.5,2.1-0.6l1.9-0.5L20.5,11.1"/>
	<path id="a_curve_1_" class="st0" d="M108,11c0,0-1.3,0.3-1.9,0.7c0,0-0.7,0.4-0.9,1c0,0-0.2,0.4-0.2,0.6s-0.9-1.4-0.9-1.4l0-0.2
		l-0.1-0.1c0,0,1.3-0.5,2.1-0.6l1.9-0.5L108,11"/>
	<path id="_x2E_" class="st0" d="M28.6,3.7c0.9,0,1.6-0.7,1.6-1.5s-0.7-1.5-1.6-1.5c-0.8,0-1.5,0.7-1.5,1.5C27,3,27.7,3.7,28.6,3.7z
		"/>
	<path id="o_curve_1_" class="st0" d="M36.3,8.4c0,0,0.1-1,0.4-1.5c0,0,0.2-0.5,1-0.7c0,0,0.8-0.2,1.5,0.1c0,0,0.7,0.2,1,1.6
		c0.2,1.3,1.5-0.4,1.5-0.4l-0.6-0.8l-0.9-0.5l-0.9-0.3l-1.3-0.1l-1,0.2l-0.5,0.2c0,0-0.5,0.2-0.5,0.3c0,0-0.1,0.3-0.1,0.4
		c0,0.1-0.2,0.4-0.2,0.4c0,0.1-0.1,0.2,0,0.4c0,0.2,0,0.3,0,0.5c0,0.1,0,0.2,0.1,0.3c0,0.1,0.3,0.2,0.3,0.2
		C35.9,8.5,36.3,8.4,36.3,8.4z"/>
	<path id="o_curve" class="st0" d="M40.2,13.5c0,0-0.1,1-0.4,1.5c0,0-0.2,0.5-1,0.7c0,0-0.8,0.2-1.5-0.1c0,0-0.7-0.2-1-1.6
		c-0.2-1.3-1.5,0.4-1.5,0.4l0.6,0.8l0.9,0.5l0.9,0.3l1.3,0.1l1-0.2l0.5-0.2c0,0,0.5-0.2,0.5-0.3c0,0,0.1-0.3,0.1-0.4
		c0-0.1,0.2-0.4,0.2-0.4c0-0.1,0.1-0.2,0-0.4c0-0.2,0-0.3,0-0.5c0-0.1,0-0.2-0.1-0.3c0-0.1-0.3-0.2-0.3-0.2
		C40.5,13.3,40.2,13.5,40.2,13.5z"/>
	<path id="e_curve" class="st0" d="M74.6,8.4c0,0,0.3-1.2,1-1.8C76.2,5.9,77,6,77.5,6.4c0,0,0.4,0.3,0.7,0.9c0,0,0.2,0.4,0.3,0.7
		l1.1-0.6c0,0-0.3-0.6-0.4-0.6c0,0-1-0.8-1-0.8l-1-0.2h-1.5l-0.7,0.3c0,0-0.4,0.3-0.4,0.4c-0.1,0.1-0.5,0.5-0.5,0.6
		c-0.1,0.1-0.2,0.4-0.2,0.5c0,0.1-0.1,0.2-0.1,0.3s0,0.1,0,0.2s0.3,0.3,0.3,0.3L74.6,8.4z"/>
	<path id="r_curve_1_" class="st0" d="M88.6,7.6c0,0,0-0.1-0.1-0.1c0,0-0.1,0-0.2,0c0,0-0.1,0-0.2,0.1c-0.1,0-0.2,0.1-0.2,0.1
		c-0.1,0.1-0.6,0.4-1.1,1.2v0.3h-0.1l0-0.8l0-0.1l0,0l0.1-0.1c0,0,0.3-0.4,0.4-0.5c0.1-0.1,0.3-0.4,0.6-0.7c0,0,0.3-0.3,0.4-0.4
		c0.1,0,0.4,0.5,0.4,0.5s0,0.2,0.1,0.2C88.7,7.2,88.7,7.6,88.6,7.6c0.1,0,0.1,0.1,0.1,0.1l-0.1,0C88.6,7.8,88.6,7.8,88.6,7.6
		C88.6,7.7,88.6,7.6,88.6,7.6z"/>
	<path id="r_curve" class="st0" d="M98.2,7.6c0,0,0-0.1-0.1-0.1c0,0-0.1,0-0.2,0c0,0-0.1,0-0.2,0.1c-0.1,0-0.2,0.1-0.2,0.1
		c-0.1,0.1-0.6,0.4-1.1,1.2v0.3h-0.1l0-0.8l0-0.1l0,0l0.1-0.1c0,0,0.3-0.4,0.4-0.5c0.1-0.1,0.3-0.4,0.6-0.7c0,0,0.3-0.3,0.4-0.4
		S98.3,7,98.3,7s0,0.2,0.1,0.2C98.3,7.2,98.3,7.6,98.2,7.6c0.1,0,0.1,0.1,0.1,0.1l-0.1,0C98.2,7.8,98.2,7.7,98.2,7.6
		C98.2,7.6,98.2,7.6,98.2,7.6z"/>
	<path id="B" class="st0" d="M7.5,8c0.5,0,4-0.5,4-3.9c0-4-2.9-3.8-6.1-3.8H0v0.2c1,0,1.3,1.5,1.3,2.9V13c0,1.5-0.3,2.9-1.3,2.9v0.2
		h5.5c3.9,0,7.1-0.1,7.1-4C12.6,8.2,9,8,7.5,8z M4.6,0.6h0.9c1.1,0,2.9,0,2.9,3.4c0,3.3-1.7,3.9-2.9,3.9H4.6V0.6z M5.5,15.7H4.6V8.3
		h0.9C7,8.3,9.3,8.4,9.3,12C9.3,15.8,7.5,15.7,5.5,15.7z"/>
	<path id="a" class="st0" d="M24.4,14.9c-1.1,0-1.1-1.6-1.1-1.6V10c0-2.7-0.8-4.5-3.8-4.5c0,0-1.2-0.1-2.2,0.5
		c-1.2,0.7-1.5,1.3-1.8,1.7c-0.2,0.4-0.2,0.9,0.1,1.4c0.4,0.6,1.2,0.7,1.8,0.3c0.6-0.4,0.7-1.2,0.3-1.8C17.6,7.2,17.3,7,16.9,7
		c-0.2,0-0.1-0.4,0.7-0.8c1.6-0.8,2.9,0.4,2.9,2.7v1.4c-4,1-5.9,1.2-5.9,3.7c0,2.3,2.6,2.3,2.6,2.3c1.6,0,2.9-0.8,3.3-1.8
		c0.2,1.8,2.3,1.8,2.3,1.8c1.4,0,2.5-0.9,2.6-1.6L25,14.6C24.9,14.9,24.4,14.9,24.4,14.9z M20.5,13.8c-0.2,0.5-0.7,1.2-1.5,1.2
		c-1.5,0-1.5-1.5-1.5-1.5c0-1.2,0.7-2.2,3-2.7C20.5,10.7,20.5,13.8,20.5,13.8z"/>
	<path id="j" class="st0" d="M26.3,6.8c0.9,0.5,1.1,0.9,1.1,1.7v7.1c0,0,0,5-1.4,5.4v0.4c2.2-0.6,4.2-2,4.2-6.3V5.5l-3.9,0.9
		L26.3,6.8L26.3,6.8z"/>
	<path id="o" class="st0" d="M38.3,5.5c-3.4,0-5.4,2.4-5.4,5.4c0,3,1.9,5.4,5.4,5.4c3.5,0,5.4-2.5,5.4-5.4
		C43.6,7.9,41.7,5.5,38.3,5.5z M38.3,15.9c-1.6,0-2.1-0.9-2.1-5s0.4-5,2.1-5s2,0.9,2,5S39.9,15.9,38.3,15.9z"/>
	<path id="T" class="st0" d="M49.3,4.8h0.3h0c0,0,1.8-3.7,5.4-3.5v12.2c0,1.5-1,2.4-1.9,2.4v0.4h7.1v-0.4c-0.9,0-1.9-0.8-1.9-2.4
		V1.2c0,0,0,0,0,0c3.6-0.1,5.4,3.5,5.4,3.5h0h0h0.3V0.2H49.3V4.8z"/>
	<path id="i" class="st0" d="M68.8,13.4V5.5l-4,0.9v0.4C65.8,7.3,66,7.6,66,8.3v5c0,1.2,0,2.1-0.9,2.4v0.4h4.6v-0.4
		C68.9,15.5,68.8,14.6,68.8,13.4z"/>
	<path id="_x2E__1_" class="st0" d="M67.2,3.7c0.9,0,1.6-0.7,1.6-1.5S68,0.6,67.2,0.6c-0.9,0-1.5,0.7-1.5,1.5
		C65.6,3,66.3,3.7,67.2,3.7z"/>
	<path id="e" class="st0" d="M76.7,5.5c-3.1,0-5.3,2.3-5.3,5.5c0,2.6,2,5.4,5,5.4c3,0,4.4-1.8,4.7-3l-0.4-0.2
		c-0.6,1.1-2.4,1.5-3.6,1.2c-1.5-0.3-2.6-1.5-2.8-3.7h7.2C81.5,7.2,80,5.5,76.7,5.5z M76.6,5.9c1.2,0,2.1,1.4,2.2,4h-4.4
		C74.5,7.8,75.4,5.9,76.6,5.9z"/>
	<path id="r" class="st0" d="M91.2,5.9c-0.5-0.4-1.4-0.5-1.8-0.3c-0.5,0.2-1.5,0.6-2.7,2.4V5.5l-4,0.9v0.4c0.9,0.5,1.1,0.8,1.1,1.6
		v5c0,1.2,0,2.1-0.9,2.4v0.4h4.7v-0.4c-0.8-0.2-0.9-1.1-0.9-2.4V8.7c0.8-1.4,1.8-1.6,1.8-1.3c0,0.4,0.2,0.8,0.5,1.1
		C89.8,9,90.8,9,91.4,8.3C92,7.6,91.9,6.5,91.2,5.9z"/>
	<path id="r_1_" class="st0" d="M100.9,5.9c-0.5-0.4-1.4-0.5-1.8-0.3c-0.5,0.2-1.5,0.6-2.7,2.4V5.5l-4,0.9v0.4
		c0.9,0.5,1.1,0.8,1.1,1.6v5c0,1.2,0,2.1-0.9,2.4v0.4h4.7v-0.4c-0.8-0.2-0.9-1.1-0.9-2.4V8.7c0.8-1.4,1.8-1.6,1.8-1.3
		c0,0.4,0.2,0.8,0.5,1.1C99.4,9,100.4,9,101,8.3C101.6,7.6,101.6,6.5,100.9,5.9z"/>
	<path id="a_1_" class="st0" d="M112.5,14.6c-0.1,0.4-0.6,0.4-0.6,0.4c-1.1,0-1.1-1.6-1.1-1.6V10c0-2.7-0.8-4.5-3.8-4.5
		c0,0-1.2-0.1-2.2,0.5c-1.2,0.7-1.5,1.3-1.8,1.7c-0.2,0.4-0.2,0.9,0.1,1.4c0.4,0.6,1.2,0.7,1.8,0.3c0.6-0.4,0.7-1.2,0.3-1.8
		C105,7.2,104.7,7,104.4,7c-0.2,0-0.1-0.4,0.7-0.8c1.6-0.8,2.9,0.4,2.9,2.7v1.4c-4,1-5.9,1.2-5.9,3.7c0,2.3,2.6,2.3,2.6,2.3
		c1.6,0,2.9-0.8,3.3-1.8c0.2,1.8,2.3,1.8,2.3,1.8c1.4,0,2.5-0.9,2.6-1.6L112.5,14.6z M107.9,13.8c-0.2,0.5-0.7,1.2-1.5,1.2
		c-1.5,0-1.5-1.5-1.5-1.5c0-1.2,0.7-2.2,3-2.7C107.9,10.7,107.9,13.8,107.9,13.8z"/>
	<g id="Final_TGL">
		<path id="P" class="st0" d="M0.8,29.1v1H0v-3.7c0.6,0,1.1,0,1.7,0c0.9,0,1.4,0.6,1.4,1.3c0,0.7-0.5,1.3-1.4,1.3L0.8,29.1L0.8,29.1
			z M0.8,28.4h0.9c0.4,0,0.6-0.3,0.6-0.6s-0.2-0.6-0.6-0.6H0.8V28.4z"/>
		<path id="R_3_" class="st0" d="M10.7,30.2H9.8L8.9,29H8.3v1.2H7.5v-3.7c0.6,0,1.1,0,1.7,0c0.9,0,1.3,0.6,1.3,1.2
			c0,0.5-0.1,0.9-0.8,1.2L10.7,30.2L10.7,30.2L10.7,30.2z M8.3,27.2v1.1h0.9c0.4,0,0.5-0.3,0.5-0.5c0-0.3-0.2-0.6-0.5-0.6L8.3,27.2
			L8.3,27.2z"/>
		<path id="E_3_" class="st0" d="M17.7,30.2H15c0-1.2,0-2.5,0-3.7h2.7v0.8h-1.9V28h1.8v0.7h-1.8v0.7h2V30.2z"/>
		<path id="M_3_" class="st0" d="M25.4,27.6L24.3,29h-0.1l-1.1-1.4v2.6h-0.8v-3.7c0.3,0,0.6,0,0.9,0l1.1,1.4l1.1-1.4h0.9v3.7h-0.8
			L25.4,27.6L25.4,27.6z"/>
		<path id="I_1_" class="st0" d="M30.7,30.2v-3.7h0.8v3.7H30.7z"/>
		<path id="U_3_" class="st0" d="M39.4,26.5v2.1c0,1.1-0.6,1.7-1.5,1.7c-0.9,0-1.7-0.5-1.7-1.7v-2.1h0.8v2.1c0,0.7,0.4,1,0.9,1
			c0.5,0,0.7-0.4,0.7-1v-2.1H39.4z"/>
		<path id="M_2_" class="st0" d="M47.1,27.6L46,29h-0.1l-1.1-1.4v2.6H44v-3.7c0.3,0,0.6,0,0.9,0l1.1,1.4l1.1-1.4h0.9v3.7h-0.8
			L47.1,27.6L47.1,27.6z"/>
		<g id="Surfaces">
			<path id="S_3_" class="st0" d="M59.8,27.4c-0.2-0.2-0.6-0.3-0.8-0.3c-0.4,0-0.6,0.2-0.6,0.4c0,0.3,0.3,0.4,0.8,0.4
				c0.7,0.1,1.4,0.3,1.4,1.2c0,0.8-0.7,1.2-1.5,1.2c-0.6,0-1.3-0.2-1.6-0.8l0.5-0.5c0.3,0.4,0.7,0.5,1.1,0.5c0.4,0,0.7-0.2,0.7-0.4
				c0-0.3-0.2-0.5-0.7-0.5c-0.8-0.1-1.4-0.3-1.4-1.1c0-0.7,0.7-1.1,1.4-1.1c0.6,0,1,0.1,1.3,0.6L59.8,27.4z"/>
			<path id="U_2_" class="st0" d="M68.3,26.5v2.1c0,1.1-0.6,1.7-1.5,1.7c-0.9,0-1.7-0.5-1.7-1.7v-2.1h0.8v2.1c0,0.7,0.4,1,0.9,1
				c0.5,0,0.7-0.4,0.7-1v-2.1H68.3z"/>
			<path id="R_2_" class="st0" d="M76.1,30.2h-0.9L74.2,29h-0.6v1.2h-0.8v-3.7c0.6,0,1.1,0,1.7,0c0.9,0,1.3,0.6,1.3,1.2
				c0,0.5-0.1,0.9-0.8,1.2L76.1,30.2L76.1,30.2L76.1,30.2z M73.7,27.2v1.1h0.9c0.4,0,0.5-0.3,0.5-0.5c0-0.3-0.2-0.6-0.5-0.6
				L73.7,27.2L73.7,27.2z"/>
			<path id="F_1_" class="st0" d="M80.3,30.2v-3.7H83v0.8h-1.8v0.9h1.7v0.7h-1.7v1.3L80.3,30.2L80.3,30.2z"/>
			<path id="A_1_" class="st0" d="M90.1,29.5h-1.9L88,30.2h-0.9l1.6-3.7h0.9l1.6,3.7h-0.9L90.1,29.5z M89.2,27.3l-0.6,1.5h1.2
				L89.2,27.3z"/>
			<path id="C_1_" class="st0" d="M98.4,29.7c-0.4,0.4-0.9,0.5-1.4,0.5c-1.4,0-1.9-0.9-1.9-1.9c0-0.9,0.6-1.9,1.9-1.9
				c0.5,0,1,0.2,1.3,0.6l-0.5,0.5c-0.2-0.2-0.5-0.3-0.8-0.3c-0.8,0-1.1,0.6-1.1,1.2c0,0.5,0.3,1.1,1.1,1.1c0.3,0,0.7-0.1,0.9-0.4
				L98.4,29.7z"/>
			<path id="E_2_" class="st0" d="M105.5,30.2h-2.8c0-1.2,0-2.5,0-3.7h2.7v0.8h-1.9V28h1.8v0.7h-1.8v0.7h2V30.2z"/>
			<path id="S_2_" class="st0" d="M112.3,27.4c-0.2-0.2-0.6-0.3-0.8-0.3c-0.4,0-0.6,0.2-0.6,0.4c0,0.3,0.3,0.4,0.8,0.4
				c0.7,0.1,1.4,0.3,1.4,1.2c0,0.8-0.7,1.2-1.5,1.2c-0.6,0-1.3-0.2-1.6-0.8l0.5-0.5c0.3,0.4,0.7,0.5,1.1,0.5c0.4,0,0.7-0.2,0.7-0.4
				c0-0.3-0.2-0.5-0.7-0.5c-0.8-0.1-1.4-0.3-1.4-1.1c0-0.7,0.7-1.1,1.4-1.1c0.6,0,1,0.1,1.3,0.6L112.3,27.4z"/>
		</g>
	</g>
</g>
</svg>
