<svg width="12" height="12" viewBox="0 0 12 12" fill="none" xmlns="http://www.w3.org/2000/svg">
<path fill-rule="evenodd" clip-rule="evenodd" d="M8.63978 0.750028L3.34946 0.75C1.50057 0.75 0.166687 2.24421 0.166687 4.16773V7.83227C0.166687 9.75578 1.50057 11.25 3.34946 11.25H8.63484C9.52291 11.2401 10.3635 10.8662 10.9657 10.2155C11.5679 9.56478 11.8792 8.694 11.8271 7.80597L11.8279 4.16773C11.8792 3.306 11.5679 2.43522 10.9657 1.78451C10.3635 1.1338 9.52291 0.759946 8.63978 0.750028ZM3.34945 1.64158L8.6299 1.64155C9.27093 1.64875 9.88106 1.92012 10.3182 2.39244C10.7553 2.86477 10.9813 3.49684 10.9435 4.14143L10.9427 7.83226C10.9813 8.50316 10.7553 9.13522 10.3182 9.60755C9.88106 10.0799 9.27093 10.3512 8.6299 10.3584L3.34945 10.3584C2.01164 10.3584 1.05185 9.28326 1.05185 7.83226V4.16773C1.05185 2.71674 2.01164 1.64158 3.34945 1.64158ZM9.51404 4.03905C9.3613 3.84683 9.08277 3.81574 8.89194 3.96959L6.50069 5.89748L6.43215 5.94564C6.15021 6.12223 5.77998 6.10592 5.50991 5.8939L3.10119 3.96843L3.04698 3.93127C2.86015 3.82257 2.61752 3.86518 2.47938 4.0405C2.32743 4.23335 2.35946 4.51376 2.55093 4.66681L4.9627 6.5947L5.0568 6.66356C5.66349 7.07676 6.46748 7.05392 7.04935 6.59711L9.44509 4.66565L9.49315 4.62071C9.64001 4.46152 9.6529 4.21378 9.51404 4.03905Z" fill="black"/>
</svg>
