<svg xmlns="http://www.w3.org/2000/svg" width="86" height="57" viewBox="0 0 86 57"><defs><style>.a{fill:#fff;}</style></defs><path class="a" d="M660.84,6140a8.76,8.76,0,0,1-8.84-8.652v-39.7a8.76,8.76,0,0,1,8.84-8.652h68.316a8.76,8.76,0,0,1,8.843,8.652v39.7a8.759,8.759,0,0,1-8.839,8.652Zm-5.894-48.348v39.7a5.839,5.839,0,0,0,5.894,5.768h68.316a5.839,5.839,0,0,0,5.894-5.768h0v-39.7a5.838,5.838,0,0,0-5.893-5.768H660.84A5.84,5.84,0,0,0,654.946,6091.652Zm29.4,35.807c-.051,0-.1,0-.149-.006a1.552,1.552,0,0,1-.587-.188,1.424,1.424,0,0,1-.464-.411,1.307,1.307,0,0,1-.223-.458,1.335,1.335,0,0,1-.052-.379V6096.98a1.43,1.43,0,0,1,.737-1.249,1.5,1.5,0,0,1,1.473,0l25.664,14.506a1.467,1.467,0,0,1,.328.241,1.488,1.488,0,0,1,.3.427,1.414,1.414,0,0,1-.307,1.618,1.332,1.332,0,0,1-.319.234l-25.33,14.315a1.832,1.832,0,0,1-1.032.385Zm1.467-3.94,21.27-12.018-21.27-12.02Z" transform="translate(-652 -6083)"/></svg>