<?xml version="1.0" encoding="utf-8"?>
<!-- Generator: Adobe Illustrator 25.2.3, SVG Export Plug-In . SVG Version: 6.00 Build 0)  -->
<svg version="1.1" id="OBJECTS" xmlns="http://www.w3.org/2000/svg" xmlns:xlink="http://www.w3.org/1999/xlink" x="0px" y="0px"
	 viewBox="0 0 500 500" style="enable-background:new 0 0 500 500;" xml:space="preserve">
<path d="M411.88,396.8l-98.06-98.06c18.36-21.66,29.46-49.67,29.46-80.23c0-68.5-55.73-124.23-124.23-124.23
	c-68.5,0-124.23,55.73-124.23,124.23s55.73,124.23,124.23,124.23c30.76,0,58.94-11.24,80.67-29.83l98.03,98.03L411.88,396.8z
	 M219.04,322.74c-57.48,0-104.23-46.76-104.23-104.23c0-57.48,46.76-104.23,104.23-104.23s104.23,46.76,104.23,104.23
	C323.28,275.98,276.52,322.74,219.04,322.74z"/>
</svg>
