<?xml version="1.0" encoding="utf-8"?>
<!-- Generator: Adobe Illustrator 25.2.3, SVG Export Plug-In . SVG Version: 6.00 Build 0)  -->
<svg version="1.1" id="OBJECTS" xmlns="http://www.w3.org/2000/svg" xmlns:xlink="http://www.w3.org/1999/xlink" x="0px" y="0px"
	 viewBox="0 0 500 500" style="enable-background:new 0 0 500 500;" xml:space="preserve">
<path d="M436.12,413.94L326.85,304.67c20.16-24.91,32.26-56.6,32.26-91.07c0-79.95-65.05-145-145-145s-145,65.05-145,145
	c0,79.95,65.05,145,145,145c34.7,0,66.59-12.26,91.58-32.67L414.9,435.15L436.12,413.94z M214.11,328.6c-63.41,0-115-51.59-115-115
	c0-63.41,51.59-115,115-115s115,51.59,115,115C329.11,277.01,277.52,328.6,214.11,328.6z"/>
</svg>
