<?xml version="1.0" encoding="utf-8"?>
<!-- Generator: Adobe Illustrator 22.1.0, SVG Export Plug-In . SVG Version: 6.00 Build 0)  -->
<svg version="1.1" id="Layer_1" xmlns="http://www.w3.org/2000/svg" xmlns:xlink="http://www.w3.org/1999/xlink" x="0px" y="0px"
	 viewBox="0 0 18.4 18.4" style="enable-background:new 0 0 18.4 18.4;" xml:space="preserve">
<style type="text/css">
	.st0{fill:#ffffff;}
</style>
<path class="st0" d="M12.1,10.7c0.9-1.2,1.4-2.6,1.4-4.1c0-3.6-3-6.6-6.6-6.6C5.2-0.1,3.7,0.5,2.2,1.6l0,0C1,2.8,0.1,4.4,0.1,6.2
	s0.5,3.6,1.7,4.9c2.3,2.6,6.4,3,9.1,0.9l6.4,6.4l1.2-1.2L12.1,10.7z M6.8,1.7c2.7,0,5,2.2,5,5s-2.2,5-5,5c-1.4,0-2.6-0.6-3.6-1.5
	S1.8,8,1.8,6.6l0,0C1.8,3.9,4.1,1.7,6.8,1.7z"/>
</svg>
